{
.appVersion = "3193";
DisplayStrings = (
"/A_P_O.rlig/A_P_T_O.rlig/B_T_A.rlig/B_T_O.rlig/D_E_two.rlig/D_P_O.rlig/D_S_two.rlig \012/D_S_three.rlig/D_S_four.rlig/F_O.rlig/J_A_O.rlig/A_P_T_O.rlig/J_O.rlig/J_O_two.rlig/J_S.rlig/J_X_O.rlig \012/M_A.rlig/P_A.rlig/P_E.rlig/P_O.rlig/P_P.rlig/P_T.rlig/P_T_A.rlig/P_U.rlig \012/S_M.rlig/S_M_A.rlig/X_A_O.rlig/X_one.rlig/X_two.rlig/X_three.rlig/X_O.rlig \012/_smart.Ap/_smart.J/_smart.a/_smart.e/_smart.longs/_smart.m/_smart.o/_smart.p/_smart.s/_smart.u/_smart.x/_smart.s.001",
"/_smart.Ap/_smart.J/_smart.a/_smart.e/_smart.longs/_smart.m/_smart.o/_smart.p/_smart.s/_smart.u/_smart.x/_smart.s.001"
);
copyright = "Copyright © 2023 Toshi Omagari for the ligatures portion. The original Copyright string for Source Han Serif: © Copyright © 2017 Adobe Systems Incorporated (http://www.adobe.com/), with Reserved Font Name 'Source'.";
customParameters = (
{
name = ROS;
value = "Adobe-Identity-0";
},
{
name = glyphOrder;
value = (
.notdef,
space,
exclam,
quotedbl,
numbersign,
dollar,
percent,
ampersand,
quotesingle,
parenleft,
parenright,
asterisk,
plus,
comma,
hyphen,
period,
slash,
zero,
one,
two,
three,
four,
five,
six,
seven,
eight,
nine,
colon,
semicolon,
less,
equal,
greater,
question,
at,
A,
B,
C,
D,
E,
F,
G,
H,
I,
J,
K,
L,
M,
N,
O,
P,
Q,
R,
S,
T,
U,
V,
W,
X,
Y,
Z,
bracketleft,
backslash,
bracketright,
asciicircum,
underscore,
grave,
a,
b,
c,
d,
e,
f,
g,
h,
i,
j,
k,
l,
m,
n,
o,
p,
q,
r,
s,
t,
u,
v,
w,
x,
y,
z,
braceleft,
bar,
braceright,
asciitilde
);
},
{
name = "Default Layer Width";
value = "1000";
},
{
name = DisableAllAutomaticBehaviour;
value = 1;
},
{
name = vendorID;
value = UKWN;
},
{
name = note;
value = "源ノ明朝 v1.001 のグリフを使用しています。";
}
);
date = "2019-12-26 03:00:56 +0000";
designer = "Ligature glyphs designed by Original Source Han Serif Latin designed by Frank Grießhammer.";
familyName = "Kirishitan Ligatures";
featurePrefixes = (
{
automatic = 1;
code = "languagesystem DFLT dflt;\012";
name = Languagesystems;
}
);

glyphs = (
{
glyphname = .notdef;
lastChange = "2019-12-26 02:40:52 +0000";
layers = (
{
layerId = "AODEWCWT-RYM3-6S2H-YGKD-BAMV0KWXFSSX";
paths = (
{
closed = 1;
nodes = (
"863 -120 LINE",
"863 880 LINE",
"137 880 LINE",
"137 -120 LINE"
);
},
{
closed = 1;
nodes = (
"172 844 LINE",
"828 844 LINE",
"828 -84 LINE",
"172 -84 LINE"
);
},
{
closed = 1;
nodes = (
"500 349 LINE",
"668 108 LINE",
"698 128 LINE",
"522 380 LINE",
"698 632 LINE",
"668 652 LINE",
"500 411 LINE",
"332 652 LINE",
"302 632 LINE",
"478 380 LINE",
"302 128 LINE",
"332 108 LINE"
);
}
);
width = 1000;
}
);
note = Full;
},
{
glyphname = exclam;
lastChange = "2019-12-26 05:49:10 +0000";
layers = (
{
hints = (
{
horizontal = 1;
place = "{-13, 122}";
type = Stem;
},
{
horizontal = 1;
place = "{747, -20}";
target = down;
type = TopGhost;
},
{
place = "{90, 123}";
type = Stem;
},
{
place = "{130, 43}";
type = Stem;
}
);
layerId = "AODEWCWT-RYM3-6S2H-YGKD-BAMV0KWXFSSX";
paths = (
{
closed = 1;
nodes = (
"167 221 LINE",
"179 397 LINE SMOOTH",
"192 546 OFFCURVE",
"203 644 OFFCURVE",
"203 689 CURVE SMOOTH",
"203 729 OFFCURVE",
"184 747 OFFCURVE",
"151 747 CURVE SMOOTH",
"120 747 OFFCURVE",
"100 729 OFFCURVE",
"100 689 CURVE SMOOTH",
"100 644 OFFCURVE",
"111 546 OFFCURVE",
"124 397 CURVE SMOOTH",
"136 221 LINE"
);
},
{
closed = 1;
nodes = (
"186 -13 OFFCURVE",
"213 15 OFFCURVE",
"213 48 CURVE SMOOTH",
"213 80 OFFCURVE",
"186 109 OFFCURVE",
"151 109 CURVE SMOOTH",
"117 109 OFFCURVE",
"90 80 OFFCURVE",
"90 48 CURVE SMOOTH",
"90 15 OFFCURVE",
"117 -13 OFFCURVE",
"151 -13 CURVE SMOOTH"
);
}
);
width = 303;
}
);
leftKerningGroup = exclam;
note = cid00002;
unicode = 0021;
},
{
glyphname = quotedbl;
lastChange = "2019-12-26 05:49:10 +0000";
layers = (
{
hints = (
{
horizontal = 1;
place = "{477, 326}";
type = Stem;
},
{
place = "{73.5, 43}";
type = Stem;
},
{
place = "{252.5, 42}";
type = Stem;
}
);
layerId = "AODEWCWT-RYM3-6S2H-YGKD-BAMV0KWXFSSX";
paths = (
{
closed = 1;
nodes = (
"289 477 LINE",
"300 565 LINE SMOOTH",
"304 609 OFFCURVE",
"321 704 OFFCURVE",
"321 745 CURVE SMOOTH",
"321 786 OFFCURVE",
"302 803 OFFCURVE",
"273 803 CURVE SMOOTH",
"243 803 OFFCURVE",
"226 786 OFFCURVE",
"226 745 CURVE SMOOTH",
"226 704 OFFCURVE",
"241 609 OFFCURVE",
"247 565 CURVE SMOOTH",
"258 477 LINE"
);
},
{
closed = 1;
nodes = (
"111 477 LINE",
"122 565 LINE SMOOTH",
"126 609 OFFCURVE",
"142 704 OFFCURVE",
"142 745 CURVE SMOOTH",
"142 786 OFFCURVE",
"124 803 OFFCURVE",
"95 803 CURVE SMOOTH",
"65 803 OFFCURVE",
"48 786 OFFCURVE",
"48 745 CURVE SMOOTH",
"48 704 OFFCURVE",
"63 609 OFFCURVE",
"68 565 CURVE SMOOTH",
"79 477 LINE"
);
}
);
width = 367;
}
);
leftKerningGroup = quotedbl;
note = cid00003;
rightKerningGroup = quotedbl;
unicode = 0022;
},
{
glyphname = numbersign;
lastChange = "2019-12-26 05:49:10 +0000";
layers = (
{
hints = (
{
horizontal = 1;
place = "{0, 21}";
target = up;
type = BottomGhost;
},
{
horizontal = 1;
place = "{203, 74}";
type = Stem;
},
{
horizontal = 1;
place = "{438, 74}";
type = Stem;
},
{
place = "{26, 515}";
type = Stem;
}
);
layerId = "AODEWCWT-RYM3-6S2H-YGKD-BAMV0KWXFSSX";
paths = (
{
closed = 1;
nodes = (
"139 0 LINE",
"170 203 LINE",
"349 203 LINE",
"318 0 LINE",
"358 0 LINE",
"389 203 LINE",
"505 203 LINE",
"505 277 LINE",
"400 277 LINE",
"424 438 LINE",
"541 438 LINE",
"541 512 LINE",
"435 512 LINE",
"465 707 LINE",
"426 707 LINE",
"396 512 LINE",
"217 512 LINE",
"247 707 LINE",
"208 707 LINE",
"178 512 LINE",
"62 512 LINE",
"62 438 LINE",
"167 438 LINE",
"142 277 LINE",
"26 277 LINE",
"26 203 LINE",
"131 203 LINE",
"100 0 LINE"
);
},
{
closed = 1;
nodes = (
"206 438 LINE",
"385 438 LINE",
"360 277 LINE",
"181 277 LINE"
);
}
);
width = 567;
}
);
leftKerningGroup = numbersign;
note = cid00004;
rightKerningGroup = numbersign;
unicode = 0023;
},
{
glyphname = dollar;
lastChange = "2019-12-26 05:49:10 +0000";
layers = (
{
hints = (
{
horizontal = 1;
place = "{-14, 42}";
type = Stem;
},
{
horizontal = 1;
place = "{675, 43}";
type = Stem;
},
{
place = "{70, 72}";
type = Stem;
},
{
place = "{261, 37}";
type = Stem;
},
{
place = "{421, 73}";
type = Stem;
},
{
horizontal = 1;
place = "{673, 45}";
type = Stem;
},
{
place = "{262, 37}";
type = Stem;
}
);
layerId = "AODEWCWT-RYM3-6S2H-YGKD-BAMV0KWXFSSX";
paths = (
{
closed = 1;
nodes = (
"298 -125 LINE",
"298 -12 LINE",
"417 -1 OFFCURVE",
"494 73 OFFCURVE",
"494 180 CURVE SMOOTH",
"494 266 OFFCURVE",
"452 337 OFFCURVE",
"305 391 CURVE SMOOTH",
"299 393 LINE",
"299 675 LINE",
"320 674 OFFCURVE",
"342 671 OFFCURVE",
"365 663 CURVE",
"382 591 LINE SMOOTH",
"392 545 OFFCURVE",
"416 532 OFFCURVE",
"438 532 CURVE SMOOTH",
"458 532 OFFCURVE",
"474 541 OFFCURVE",
"480 563 CURVE",
"471 651 OFFCURVE",
"397 711 OFFCURVE",
"299 718 CURVE",
"299 819 LINE",
"262 819 LINE",
"262 718 LINE",
"151 711 OFFCURVE",
"70 633 OFFCURVE",
"70 527 CURVE SMOOTH",
"70 423 OFFCURVE",
"134 365 OFFCURVE",
"245 323 CURVE SMOOTH",
"261 317 LINE",
"261 28 LINE",
"231 29 OFFCURVE",
"202 33 OFFCURVE",
"171 43 CURVE",
"155 113 LINE SMOOTH",
"145 161 OFFCURVE",
"123 174 OFFCURVE",
"100 174 CURVE SMOOTH",
"77 174 OFFCURVE",
"64 162 OFFCURVE",
"55 142 CURVE",
"65 49 OFFCURVE",
"146 -13 OFFCURVE",
"261 -14 CURVE",
"261 -125 LINE"
);
},
{
closed = 1;
nodes = (
"298 303 LINE",
"387 267 OFFCURVE",
"421 230 OFFCURVE",
"421 163 CURVE SMOOTH",
"421 88 OFFCURVE",
"373 40 OFFCURVE",
"298 30 CURVE"
);
},
{
closed = 1;
nodes = (
"184 436 OFFCURVE",
"142 476 OFFCURVE",
"142 546 CURVE SMOOTH",
"142 621 OFFCURVE",
"192 665 OFFCURVE",
"262 673 CURVE",
"262 407 LINE"
);
}
);
width = 539;
}
);
note = cid00005;
unicode = 0024;
},
{
glyphname = percent;
lastChange = "2019-12-26 05:49:10 +0000";
layers = (
{
hints = (
{
horizontal = 1;
place = "{-10, 32}";
type = Stem;
},
{
horizontal = 1;
place = "{268, 32}";
type = Stem;
},
{
horizontal = 1;
place = "{409, 31}";
type = Stem;
},
{
horizontal = 1;
place = "{729, -20}";
target = down;
type = TopGhost;
},
{
place = "{79, 69}";
type = Stem;
},
{
place = "{308, 68}";
type = Stem;
},
{
place = "{560, 68}";
type = Stem;
},
{
place = "{788, 69}";
type = Stem;
},
{
horizontal = 1;
place = "{-4, 21}";
target = up;
type = BottomGhost;
},
{
horizontal = 1;
place = "{687, 32}";
type = Stem;
}
);
layerId = "AODEWCWT-RYM3-6S2H-YGKD-BAMV0KWXFSSX";
paths = (
{
closed = 1;
nodes = (
"742 707 LINE",
"715 729 LINE",
"205 -4 LINE",
"233 -26 LINE"
);
},
{
closed = 1;
nodes = (
"303 268 OFFCURVE",
"376 334 OFFCURVE",
"376 494 CURVE SMOOTH",
"376 653 OFFCURVE",
"303 719 OFFCURVE",
"228 719 CURVE SMOOTH",
"153 719 OFFCURVE",
"79 653 OFFCURVE",
"79 494 CURVE SMOOTH",
"79 334 OFFCURVE",
"153 268 OFFCURVE",
"228 268 CURVE SMOOTH"
);
},
{
closed = 1;
nodes = (
"188 300 OFFCURVE",
"148 338 OFFCURVE",
"148 494 CURVE SMOOTH",
"148 650 OFFCURVE",
"188 687 OFFCURVE",
"228 687 CURVE SMOOTH",
"270 687 OFFCURVE",
"308 649 OFFCURVE",
"308 494 CURVE SMOOTH",
"308 338 OFFCURVE",
"270 300 OFFCURVE",
"228 300 CURVE SMOOTH"
);
},
{
closed = 1;
nodes = (
"784 -10 OFFCURVE",
"857 55 OFFCURVE",
"857 215 CURVE SMOOTH",
"857 375 OFFCURVE",
"784 440 OFFCURVE",
"709 440 CURVE SMOOTH",
"634 440 OFFCURVE",
"560 375 OFFCURVE",
"560 215 CURVE SMOOTH",
"560 55 OFFCURVE",
"634 -10 OFFCURVE",
"709 -10 CURVE SMOOTH"
);
},
{
closed = 1;
nodes = (
"669 22 OFFCURVE",
"628 60 OFFCURVE",
"628 215 CURVE SMOOTH",
"628 372 OFFCURVE",
"669 409 OFFCURVE",
"709 409 CURVE SMOOTH",
"750 409 OFFCURVE",
"788 371 OFFCURVE",
"788 215 CURVE SMOOTH",
"788 60 OFFCURVE",
"750 22 OFFCURVE",
"709 22 CURVE SMOOTH"
);
}
);
width = 935;
}
);
note = cid00006;
unicode = 0025;
},
{
glyphname = ampersand;
lastChange = "2019-12-26 05:49:15 +0000";
layers = (
{
hints = (
{
horizontal = 1;
place = "{-14, 59}";
type = Stem;
},
{
horizontal = 1;
place = "{428, 36}";
type = Stem;
},
{
horizontal = 1;
place = "{711, 35}";
type = Stem;
},
{
place = "{36, 78}";
type = Stem;
},
{
place = "{389, 61}";
type = Stem;
},
{
place = "{118, 66}";
type = Stem;
},
{
place = "{517, 216}";
type = Stem;
},
{
horizontal = 1;
place = "{-12, 49}";
type = Stem;
}
);
layerId = "AODEWCWT-RYM3-6S2H-YGKD-BAMV0KWXFSSX";
paths = (
{
closed = 1;
nodes = (
"367 -14 OFFCURVE",
"439 30 OFFCURVE",
"488 86 CURVE",
"536 33 LINE SMOOTH",
"567 -1 OFFCURVE",
"600 -12 OFFCURVE",
"653 -12 CURVE SMOOTH",
"679 -12 OFFCURVE",
"700 -9 OFFCURVE",
"728 -2 CURVE",
"732 32 LINE",
"635 42 LINE",
"536 147 LINE",
"591 228 OFFCURVE",
"626 309 OFFCURVE",
"649 415 CURVE",
"733 428 LINE",
"733 464 LINE",
"517 464 LINE",
"517 428 LINE",
"606 416 LINE",
"587 321 OFFCURVE",
"557 245 OFFCURVE",
"512 173 CURVE",
"465 224 OFFCURVE",
"423 268 OFFCURVE",
"377 318 CURVE SMOOTH",
"340 359 OFFCURVE",
"313 388 OFFCURVE",
"288 416 CURVE",
"396 475 OFFCURVE",
"450 530 OFFCURVE",
"450 607 CURVE SMOOTH",
"450 687 OFFCURVE",
"395 746 OFFCURVE",
"290 746 CURVE SMOOTH",
"192 746 OFFCURVE",
"118 687 OFFCURVE",
"118 594 CURVE SMOOTH",
"118 537 OFFCURVE",
"140 484 OFFCURVE",
"192 425 CURVE SMOOTH",
"203 412 LINE",
"92 355 OFFCURVE",
"36 282 OFFCURVE",
"36 185 CURVE SMOOTH",
"36 75 OFFCURVE",
"127 -14 OFFCURVE",
"263 -14 CURVE SMOOTH"
);
},
{
closed = 1;
nodes = (
"176 45 OFFCURVE",
"114 126 OFFCURVE",
"114 210 CURVE SMOOTH",
"114 269 OFFCURVE",
"141 337 OFFCURVE",
"225 387 CURVE",
"263 343 OFFCURVE",
"293 308 OFFCURVE",
"340 252 CURVE SMOOTH",
"463 114 LINE",
"418 69 OFFCURVE",
"355 45 OFFCURVE",
"286 45 CURVE SMOOTH"
);
},
{
closed = 1;
nodes = (
"236 478 LINE SMOOTH",
"192 532 OFFCURVE",
"184 564 OFFCURVE",
"184 604 CURVE SMOOTH",
"184 666 OFFCURVE",
"232 711 OFFCURVE",
"290 711 CURVE SMOOTH",
"348 711 OFFCURVE",
"389 671 OFFCURVE",
"389 604 CURVE SMOOTH",
"389 536 OFFCURVE",
"339 489 OFFCURVE",
"267 441 CURVE"
);
}
);
width = 780;
}
);
leftKerningGroup = ampersand;
note = cid00007;
rightKerningGroup = ampersand;
unicode = 0026;
},
{
glyphname = quotesingle;
lastChange = "2019-12-26 05:49:10 +0000";
layers = (
{
hints = (
{
horizontal = 1;
place = "{477, 326}";
type = Stem;
},
{
place = "{73.5, 43}";
type = Stem;
}
);
layerId = "AODEWCWT-RYM3-6S2H-YGKD-BAMV0KWXFSSX";
paths = (
{
closed = 1;
nodes = (
"111 477 LINE",
"122 565 LINE SMOOTH",
"126 609 OFFCURVE",
"142 704 OFFCURVE",
"142 745 CURVE SMOOTH",
"142 786 OFFCURVE",
"124 803 OFFCURVE",
"95 803 CURVE SMOOTH",
"65 803 OFFCURVE",
"48 786 OFFCURVE",
"48 745 CURVE SMOOTH",
"48 704 OFFCURVE",
"63 609 OFFCURVE",
"68 565 CURVE SMOOTH",
"79 477 LINE"
);
}
);
width = 189;
}
);
leftKerningGroup = quotedbl;
note = cid00008;
rightKerningGroup = quotedbl;
unicode = 0027;
},
{
glyphname = parenleft;
lastChange = "2019-12-26 05:49:10 +0000";
layers = (
{
hints = (
{
horizontal = 1;
place = "{-215, 1035}";
type = Stem;
},
{
place = "{90, 74}";
type = Stem;
}
);
layerId = "AODEWCWT-RYM3-6S2H-YGKD-BAMV0KWXFSSX";
paths = (
{
closed = 1;
nodes = (
"333 -198 LINE",
"203 -9 OFFCURVE",
"164 122 OFFCURVE",
"164 302 CURVE SMOOTH",
"164 483 OFFCURVE",
"202 612 OFFCURVE",
"333 802 CURVE",
"312 820 LINE",
"161 669 OFFCURVE",
"90 502 OFFCURVE",
"90 302 CURVE SMOOTH",
"90 102 OFFCURVE",
"161 -64 OFFCURVE",
"312 -215 CURVE"
);
}
);
width = 361;
}
);
leftKerningGroup = parenleft;
note = cid00009;
rightKerningGroup = parenleft;
unicode = 0028;
},
{
glyphname = parenright;
lastChange = "2019-12-26 05:49:10 +0000";
layers = (
{
hints = (
{
horizontal = 1;
place = "{-215, 1035}";
type = Stem;
},
{
place = "{197, 74}";
type = Stem;
}
);
layerId = "AODEWCWT-RYM3-6S2H-YGKD-BAMV0KWXFSSX";
paths = (
{
closed = 1;
nodes = (
"200 -64 OFFCURVE",
"271 102 OFFCURVE",
"271 302 CURVE SMOOTH",
"271 502 OFFCURVE",
"200 669 OFFCURVE",
"49 820 CURVE",
"28 802 LINE",
"158 613 OFFCURVE",
"197 483 OFFCURVE",
"197 302 CURVE SMOOTH",
"197 122 OFFCURVE",
"159 -8 OFFCURVE",
"28 -198 CURVE",
"49 -215 LINE"
);
}
);
width = 361;
}
);
leftKerningGroup = parenright;
note = cid00010;
rightKerningGroup = parenright;
unicode = 0029;
},
{
glyphname = asterisk;
lastChange = "2019-12-26 05:49:15 +0000";
layers = (
{
hints = (
{
horizontal = 1;
place = "{398, 417}";
type = Stem;
},
{
place = "{224.5, 31}";
type = Stem;
}
);
layerId = "AODEWCWT-RYM3-6S2H-YGKD-BAMV0KWXFSSX";
paths = (
{
closed = 1;
nodes = (
"155 398 OFFCURVE",
"174 446 OFFCURVE",
"213 517 CURVE SMOOTH",
"240 570 LINE",
"267 517 LINE SMOOTH",
"308 443 OFFCURVE",
"325 398 OFFCURVE",
"357 398 CURVE SMOOTH",
"373 398 OFFCURVE",
"388 411 OFFCURVE",
"388 429 CURVE SMOOTH",
"388 457 OFFCURVE",
"349 487 OFFCURVE",
"300 540 CURVE SMOOTH",
"259 584 LINE",
"316 594 LINE SMOOTH",
"410 610 OFFCURVE",
"458 611 OFFCURVE",
"458 648 CURVE SMOOTH",
"458 666 OFFCURVE",
"445 682 OFFCURVE",
"426 682 CURVE SMOOTH",
"404 682 OFFCURVE",
"361 657 OFFCURVE",
"304 630 CURVE SMOOTH",
"251 605 LINE",
"260 663 LINE SMOOTH",
"265 714 OFFCURVE",
"274 760 OFFCURVE",
"274 780 CURVE SMOOTH",
"274 805 OFFCURVE",
"259 815 OFFCURVE",
"240 815 CURVE SMOOTH",
"221 815 OFFCURVE",
"207 805 OFFCURVE",
"207 780 CURVE SMOOTH",
"207 759 OFFCURVE",
"213 714 OFFCURVE",
"221 663 CURVE SMOOTH",
"228 604 LINE",
"176 630 LINE SMOOTH",
"118 657 OFFCURVE",
"77 682 OFFCURVE",
"54 682 CURVE SMOOTH",
"35 682 OFFCURVE",
"23 666 OFFCURVE",
"23 648 CURVE SMOOTH",
"23 612 OFFCURVE",
"70 610 OFFCURVE",
"164 592 CURVE SMOOTH",
"222 583 LINE",
"180 540 LINE SMOOTH",
"130 486 OFFCURVE",
"92 458 OFFCURVE",
"92 429 CURVE SMOOTH",
"92 410 OFFCURVE",
"108 398 OFFCURVE",
"124 398 CURVE SMOOTH"
);
}
);
width = 479;
}
);
leftKerningGroup = asterisk;
note = cid00011;
rightKerningGroup = asterisk;
unicode = 002A;
},
{
glyphname = plus;
lastChange = "2019-12-26 05:49:10 +0000";
layers = (
{
hints = (
{
horizontal = 1;
place = "{336, 49}";
type = Stem;
},
{
place = "{262, 53}";
type = Stem;
}
);
layerId = "AODEWCWT-RYM3-6S2H-YGKD-BAMV0KWXFSSX";
paths = (
{
closed = 1;
nodes = (
"315 89 LINE",
"315 336 LINE",
"542 336 LINE",
"542 385 LINE",
"315 385 LINE",
"315 626 LINE",
"262 626 LINE",
"262 385 LINE",
"35 385 LINE",
"35 336 LINE",
"262 336 LINE",
"262 89 LINE"
);
}
);
width = 576;
}
);
note = cid00012;
unicode = 002B;
},
{
glyphname = comma;
lastChange = "2019-12-26 05:49:15 +0000";
layers = (
{
hints = (
{
horizontal = 1;
place = "{-210, 21}";
target = up;
type = BottomGhost;
},
{
place = "{97, 127}";
type = Stem;
}
);
layerId = "AODEWCWT-RYM3-6S2H-YGKD-BAMV0KWXFSSX";
paths = (
{
closed = 1;
nodes = (
"132 -198 OFFCURVE",
"224 -98 OFFCURVE",
"224 22 CURVE SMOOTH",
"224 48 OFFCURVE",
"220 68 OFFCURVE",
"213 93 CURVE",
"190 114 OFFCURVE",
"172 121 OFFCURVE",
"153 121 CURVE SMOOTH",
"116 121 OFFCURVE",
"97 93 OFFCURVE",
"97 61 CURVE SMOOTH",
"97 38 OFFCURVE",
"108 14 OFFCURVE",
"133 -7 CURVE SMOOTH",
"171 -36 LINE",
"149 -118 OFFCURVE",
"96 -170 OFFCURVE",
"22 -210 CURVE",
"35 -239 LINE"
);
}
);
width = 326;
}
);
leftKerningGroup = comma;
note = cid00013;
rightKerningGroup = comma;
unicode = 002C;
},
{
glyphname = hyphen;
lastChange = "2019-12-26 05:49:10 +0000";
layers = (
{
hints = (
{
horizontal = 1;
place = "{243, 58}";
type = Stem;
},
{
place = "{43, 252}";
type = Stem;
}
);
layerId = "AODEWCWT-RYM3-6S2H-YGKD-BAMV0KWXFSSX";
paths = (
{
closed = 1;
nodes = (
"295 243 LINE",
"295 301 LINE",
"43 301 LINE",
"43 243 LINE"
);
}
);
width = 338;
}
);
leftKerningGroup = hyphen;
note = cid00014;
rightKerningGroup = hyphen;
unicode = 002D;
},
{
glyphname = period;
lastChange = "2019-12-26 02:40:52 +0000";
layers = (
{
hints = (
{
horizontal = 1;
place = "{-13, 134}";
type = Stem;
},
{
place = "{97, 132}";
type = Stem;
}
);
layerId = "AODEWCWT-RYM3-6S2H-YGKD-BAMV0KWXFSSX";
paths = (
{
closed = 1;
nodes = (
"201 -13 OFFCURVE",
"229 17 OFFCURVE",
"229 53 CURVE SMOOTH",
"229 90 OFFCURVE",
"201 121 OFFCURVE",
"163 121 CURVE SMOOTH",
"125 121 OFFCURVE",
"97 90 OFFCURVE",
"97 53 CURVE SMOOTH",
"97 17 OFFCURVE",
"125 -13 OFFCURVE",
"163 -13 CURVE SMOOTH"
);
}
);
width = 326;
}
);
leftKerningGroup = comma;
note = cid00015;
rightKerningGroup = comma;
unicode = 002E;
},
{
glyphname = slash;
lastChange = "2019-12-26 05:49:10 +0000";
layers = (
{
hints = (
{
horizontal = 1;
place = "{-174, 21}";
target = up;
type = BottomGhost;
},
{
place = "{3, 342}";
type = Stem;
}
);
layerId = "AODEWCWT-RYM3-6S2H-YGKD-BAMV0KWXFSSX";
paths = (
{
closed = 1;
nodes = (
"54 -174 LINE",
"345 772 LINE",
"293 772 LINE",
"3 -174 LINE"
);
}
);
width = 348;
}
);
leftKerningGroup = slash;
note = cid00016;
rightKerningGroup = slash;
unicode = 002F;
},
{
glyphname = zero;
lastChange = "2019-12-26 05:49:10 +0000";
layers = (
{
hints = (
{
horizontal = 1;
place = "{-14, 40}";
type = Stem;
},
{
horizontal = 1;
place = "{703, 41}";
type = Stem;
},
{
place = "{47, 83}";
type = Stem;
},
{
place = "{409, 83}";
type = Stem;
}
);
layerId = "AODEWCWT-RYM3-6S2H-YGKD-BAMV0KWXFSSX";
paths = (
{
closed = 1;
nodes = (
"384 -14 OFFCURVE",
"492 88 OFFCURVE",
"492 371 CURVE SMOOTH",
"492 642 OFFCURVE",
"384 744 OFFCURVE",
"271 744 CURVE SMOOTH",
"157 744 OFFCURVE",
"47 642 OFFCURVE",
"47 371 CURVE SMOOTH",
"47 88 OFFCURVE",
"157 -14 OFFCURVE",
"271 -14 CURVE SMOOTH"
);
},
{
closed = 1;
nodes = (
"199 26 OFFCURVE",
"130 99 OFFCURVE",
"130 371 CURVE SMOOTH",
"130 630 OFFCURVE",
"199 703 OFFCURVE",
"271 703 CURVE SMOOTH",
"341 703 OFFCURVE",
"409 630 OFFCURVE",
"409 371 CURVE SMOOTH",
"409 100 OFFCURVE",
"341 26 OFFCURVE",
"271 26 CURVE SMOOTH"
);
}
);
width = 539;
}
);
note = cid00017;
unicode = 0030;
},
{
glyphname = one;
lastChange = "2019-12-26 05:49:10 +0000";
layers = (
{
hints = (
{
horizontal = 1;
place = "{0, 32}";
type = Stem;
},
{
horizontal = 1;
place = "{739, -20}";
target = down;
type = TopGhost;
},
{
place = "{243, 77}";
type = Stem;
}
);
layerId = "AODEWCWT-RYM3-6S2H-YGKD-BAMV0KWXFSSX";
paths = (
{
closed = 1;
nodes = (
"478 0 LINE",
"478 32 LINE",
"322 51 LINE",
"321 111 OFFCURVE",
"320 170 OFFCURVE",
"320 229 CURVE SMOOTH",
"320 572 LINE",
"324 728 LINE",
"309 739 LINE",
"93 683 LINE",
"93 647 LINE",
"243 664 LINE",
"243 229 LINE SMOOTH",
"243 170 OFFCURVE",
"242 111 OFFCURVE",
"241 51 CURVE",
"83 32 LINE",
"83 0 LINE"
);
}
);
width = 539;
}
);
note = cid00018;
unicode = 0031;
},
{
glyphname = two;
lastChange = "2019-12-26 05:49:15 +0000";
layers = (
{
hints = (
{
horizontal = 1;
place = "{0, 75}";
type = Stem;
},
{
horizontal = 1;
place = "{703, 41}";
type = Stem;
},
{
place = "{379, 82}";
type = Stem;
}
);
layerId = "AODEWCWT-RYM3-6S2H-YGKD-BAMV0KWXFSSX";
paths = (
{
closed = 1;
nodes = (
"494 0 LINE",
"494 75 LINE",
"118 75 LINE",
"173 135 OFFCURVE",
"225 190 OFFCURVE",
"253 221 CURVE SMOOTH",
"410 391 OFFCURVE",
"461 461 OFFCURVE",
"461 553 CURVE SMOOTH",
"461 666 OFFCURVE",
"398 744 OFFCURVE",
"263 744 CURVE SMOOTH",
"159 744 OFFCURVE",
"66 691 OFFCURVE",
"49 586 CURVE",
"60 567 OFFCURVE",
"75 555 OFFCURVE",
"97 555 CURVE SMOOTH",
"123 555 OFFCURVE",
"138 574 OFFCURVE",
"150 617 CURVE SMOOTH",
"175 694 LINE",
"199 701 OFFCURVE",
"222 703 OFFCURVE",
"241 703 CURVE SMOOTH",
"327 703 OFFCURVE",
"379 640 OFFCURVE",
"379 548 CURVE SMOOTH",
"379 463 OFFCURVE",
"332 382 OFFCURVE",
"225 258 CURVE SMOOTH",
"177 202 OFFCURVE",
"116 130 OFFCURVE",
"53 60 CURVE",
"53 0 LINE"
);
}
);
width = 539;
}
);
note = cid00019;
unicode = 0032;
},
{
glyphname = three;
lastChange = "2019-12-26 05:49:15 +0000";
layers = (
{
hints = (
{
horizontal = 1;
place = "{-14, 40}";
type = Stem;
},
{
horizontal = 1;
place = "{363, 45}";
type = Stem;
},
{
horizontal = 1;
place = "{703, 41}";
type = Stem;
},
{
place = "{409, 81}";
type = Stem;
},
{
place = "{389, 78}";
type = Stem;
}
);
layerId = "AODEWCWT-RYM3-6S2H-YGKD-BAMV0KWXFSSX";
paths = (
{
closed = 1;
nodes = (
"393 -14 OFFCURVE",
"490 73 OFFCURVE",
"490 192 CURVE SMOOTH",
"490 292 OFFCURVE",
"433 364 OFFCURVE",
"317 385 CURVE",
"413 415 OFFCURVE",
"467 483 OFFCURVE",
"467 566 CURVE SMOOTH",
"467 673 OFFCURVE",
"389 744 OFFCURVE",
"266 744 CURVE SMOOTH",
"171 744 OFFCURVE",
"88 701 OFFCURVE",
"66 609 CURVE",
"75 583 OFFCURVE",
"92 574 OFFCURVE",
"113 574 CURVE SMOOTH",
"145 574 OFFCURVE",
"157 592 OFFCURVE",
"167 633 CURVE SMOOTH",
"186 695 LINE",
"210 701 OFFCURVE",
"231 703 OFFCURVE",
"251 703 CURVE SMOOTH",
"339 703 OFFCURVE",
"389 652 OFFCURVE",
"389 561 CURVE SMOOTH",
"389 464 OFFCURVE",
"325 408 OFFCURVE",
"225 408 CURVE SMOOTH",
"182 408 LINE",
"182 363 LINE",
"233 363 LINE SMOOTH",
"351 363 OFFCURVE",
"409 298 OFFCURVE",
"409 196 CURVE SMOOTH",
"409 97 OFFCURVE",
"348 26 OFFCURVE",
"240 26 CURVE SMOOTH",
"217 26 OFFCURVE",
"193 29 OFFCURVE",
"168 37 CURVE",
"149 99 LINE SMOOTH",
"136 143 OFFCURVE",
"125 163 OFFCURVE",
"95 163 CURVE SMOOTH",
"74 163 OFFCURVE",
"58 152 OFFCURVE",
"48 132 CURVE",
"70 30 OFFCURVE",
"149 -14 OFFCURVE",
"252 -14 CURVE SMOOTH"
);
}
);
width = 539;
}
);
note = cid00020;
unicode = 0033;
},
{
glyphname = four;
lastChange = "2019-12-26 05:49:10 +0000";
layers = (
{
hints = (
{
horizontal = 1;
place = "{0, 21}";
target = up;
type = BottomGhost;
},
{
horizontal = 1;
place = "{234, 56}";
type = Stem;
},
{
horizontal = 1;
place = "{740, -20}";
target = down;
type = TopGhost;
},
{
place = "{330, 75}";
type = Stem;
}
);
layerId = "AODEWCWT-RYM3-6S2H-YGKD-BAMV0KWXFSSX";
paths = (
{
closed = 1;
nodes = (
"405 0 LINE",
"405 234 LINE",
"523 234 LINE",
"523 290 LINE",
"405 290 LINE",
"405 740 LINE",
"353 740 LINE",
"29 280 LINE",
"29 234 LINE",
"330 234 LINE",
"330 0 LINE"
);
},
{
closed = 1;
nodes = (
"330 645 LINE",
"330 290 LINE",
"83 290 LINE"
);
}
);
width = 539;
}
);
note = cid00021;
unicode = 0034;
},
{
glyphname = five;
lastChange = "2019-12-26 05:49:10 +0000";
layers = (
{
hints = (
{
horizontal = 1;
place = "{-14, 40}";
type = Stem;
},
{
horizontal = 1;
place = "{401, 53}";
type = Stem;
},
{
horizontal = 1;
place = "{655, 74}";
type = Stem;
},
{
place = "{410, 80}";
type = Stem;
}
);
layerId = "AODEWCWT-RYM3-6S2H-YGKD-BAMV0KWXFSSX";
paths = (
{
closed = 1;
nodes = (
"392 -14 OFFCURVE",
"490 85 OFFCURVE",
"490 226 CURVE SMOOTH",
"490 372 OFFCURVE",
"396 454 OFFCURVE",
"258 454 CURVE SMOOTH",
"217 454 OFFCURVE",
"181 448 OFFCURVE",
"145 436 CURVE",
"160 655 LINE",
"472 655 LINE",
"472 729 LINE",
"121 729 LINE",
"98 390 LINE",
"126 384 LINE",
"160 396 OFFCURVE",
"199 401 OFFCURVE",
"235 401 CURVE SMOOTH",
"340 401 OFFCURVE",
"410 337 OFFCURVE",
"410 217 CURVE SMOOTH",
"410 101 OFFCURVE",
"348 26 OFFCURVE",
"236 26 CURVE SMOOTH",
"209 26 OFFCURVE",
"186 30 OFFCURVE",
"161 37 CURVE",
"141 102 LINE SMOOTH",
"128 149 OFFCURVE",
"116 163 OFFCURVE",
"88 163 CURVE SMOOTH",
"66 163 OFFCURVE",
"49 152 OFFCURVE",
"41 130 CURVE",
"64 34 OFFCURVE",
"135 -14 OFFCURVE",
"241 -14 CURVE SMOOTH"
);
}
);
width = 539;
}
);
note = cid00022;
unicode = 0035;
},
{
glyphname = six;
lastChange = "2019-12-26 05:49:15 +0000";
layers = (
{
hints = (
{
horizontal = 1;
place = "{-14, 40}";
type = Stem;
},
{
horizontal = 1;
place = "{390, 55}";
type = Stem;
},
{
horizontal = 1;
place = "{744, -20}";
target = down;
type = TopGhost;
},
{
place = "{47, 81}";
type = Stem;
},
{
place = "{413, 81}";
type = Stem;
}
);
layerId = "AODEWCWT-RYM3-6S2H-YGKD-BAMV0KWXFSSX";
paths = (
{
closed = 1;
nodes = (
"403 -14 OFFCURVE",
"494 74 OFFCURVE",
"494 226 CURVE SMOOTH",
"494 360 OFFCURVE",
"414 445 OFFCURVE",
"297 445 CURVE SMOOTH",
"236 445 OFFCURVE",
"178 418 OFFCURVE",
"131 369 CURVE",
"150 549 OFFCURVE",
"256 669 OFFCURVE",
"466 717 CURVE",
"461 744 LINE",
"195 712 OFFCURVE",
"47 520 OFFCURVE",
"47 296 CURVE SMOOTH",
"47 102 OFFCURVE",
"134 -14 OFFCURVE",
"276 -14 CURVE SMOOTH"
);
},
{
closed = 1;
nodes = (
"184 26 OFFCURVE",
"128 125 OFFCURVE",
"128 308 CURVE SMOOTH",
"128 330 LINE",
"174 375 OFFCURVE",
"227 390 OFFCURVE",
"278 390 CURVE SMOOTH",
"359 390 OFFCURVE",
"413 335 OFFCURVE",
"413 212 CURVE SMOOTH",
"413 89 OFFCURVE",
"359 26 OFFCURVE",
"278 26 CURVE SMOOTH"
);
}
);
width = 539;
}
);
note = cid00023;
unicode = 0036;
},
{
glyphname = seven;
lastChange = "2019-12-26 05:49:10 +0000";
layers = (
{
hints = (
{
horizontal = 1;
place = "{0, 10}";
type = Stem;
},
{
horizontal = 1;
place = "{655, 74}";
type = Stem;
},
{
place = "{53, 437}";
type = Stem;
}
);
layerId = "AODEWCWT-RYM3-6S2H-YGKD-BAMV0KWXFSSX";
paths = (
{
closed = 1;
nodes = (
"229 0 LINE",
"490 683 LINE",
"490 729 LINE",
"53 729 LINE",
"53 655 LINE",
"434 655 LINE",
"148 10 LINE",
"158 0 LINE"
);
}
);
width = 539;
}
);
note = cid00024;
unicode = 0037;
},
{
glyphname = eight;
lastChange = "2019-12-26 05:49:10 +0000";
layers = (
{
hints = (
{
horizontal = 1;
place = "{-14, 39}";
type = Stem;
},
{
horizontal = 1;
place = "{703, 41}";
type = Stem;
},
{
place = "{50, 75}";
type = Stem;
},
{
place = "{413, 76}";
type = Stem;
},
{
place = "{74, 72}";
type = Stem;
},
{
place = "{388, 67}";
type = Stem;
}
);
layerId = "AODEWCWT-RYM3-6S2H-YGKD-BAMV0KWXFSSX";
paths = (
{
closed = 1;
nodes = (
"396 -14 OFFCURVE",
"489 63 OFFCURVE",
"489 176 CURVE SMOOTH",
"489 272 OFFCURVE",
"439 333 OFFCURVE",
"321 388 CURVE",
"425 445 OFFCURVE",
"455 515 OFFCURVE",
"455 575 CURVE SMOOTH",
"455 673 OFFCURVE",
"384 744 OFFCURVE",
"272 744 CURVE SMOOTH",
"162 744 OFFCURVE",
"74 675 OFFCURVE",
"74 567 CURVE SMOOTH",
"74 483 OFFCURVE",
"114 413 OFFCURVE",
"210 362 CURVE",
"105 310 OFFCURVE",
"50 250 OFFCURVE",
"50 166 CURVE SMOOTH",
"50 51 OFFCURVE",
"138 -14 OFFCURVE",
"270 -14 CURVE SMOOTH"
);
},
{
closed = 1;
nodes = (
"183 25 OFFCURVE",
"125 86 OFFCURVE",
"125 174 CURVE SMOOTH",
"125 252 OFFCURVE",
"162 298 OFFCURVE",
"242 346 CURVE",
"373 286 OFFCURVE",
"413 236 OFFCURVE",
"413 166 CURVE SMOOTH",
"413 83 OFFCURVE",
"358 25 OFFCURVE",
"272 25 CURVE SMOOTH"
);
},
{
closed = 1;
nodes = (
"175 457 OFFCURVE",
"146 517 OFFCURVE",
"146 580 CURVE SMOOTH",
"146 657 OFFCURVE",
"204 703 OFFCURVE",
"270 703 CURVE SMOOTH",
"346 703 OFFCURVE",
"388 644 OFFCURVE",
"388 576 CURVE SMOOTH",
"388 503 OFFCURVE",
"361 455 OFFCURVE",
"289 403 CURVE"
);
}
);
width = 539;
}
);
note = cid00025;
unicode = 0038;
},
{
glyphname = nine;
lastChange = "2019-12-26 05:49:10 +0000";
layers = (
{
hints = (
{
horizontal = 1;
place = "{295, 52}";
type = Stem;
},
{
horizontal = 1;
place = "{703, 41}";
type = Stem;
},
{
place = "{37, 80}";
type = Stem;
},
{
place = "{402, 82}";
type = Stem;
}
);
layerId = "AODEWCWT-RYM3-6S2H-YGKD-BAMV0KWXFSSX";
paths = (
{
closed = 1;
nodes = (
"368 50 OFFCURVE",
"484 240 OFFCURVE",
"484 455 CURVE SMOOTH",
"484 632 OFFCURVE",
"398 744 OFFCURVE",
"262 744 CURVE SMOOTH",
"129 744 OFFCURVE",
"37 652 OFFCURVE",
"37 514 CURVE SMOOTH",
"36 378 OFFCURVE",
"129 295 OFFCURVE",
"247 295 CURVE SMOOTH",
"306 295 OFFCURVE",
"357 314 OFFCURVE",
"395 353 CURVE",
"370 195 OFFCURVE",
"275 78 OFFCURVE",
"85 14 CURVE",
"93 -18 LINE"
);
},
{
closed = 1;
nodes = (
"184 347 OFFCURVE",
"117 403 OFFCURVE",
"117 522 CURVE SMOOTH",
"117 640 OFFCURVE",
"182 703 OFFCURVE",
"258 703 CURVE SMOOTH",
"341 703 OFFCURVE",
"402 621 OFFCURVE",
"402 446 CURVE SMOOTH",
"402 430 OFFCURVE",
"401 414 OFFCURVE",
"400 398 CURVE",
"364 364 OFFCURVE",
"322 347 OFFCURVE",
"272 347 CURVE SMOOTH"
);
}
);
width = 539;
}
);
note = cid00026;
unicode = 0039;
},
{
glyphname = colon;
lastChange = "2019-12-26 02:40:52 +0000";
layers = (
{
hints = (
{
horizontal = 1;
place = "{-13, 134}";
type = Stem;
},
{
horizontal = 1;
place = "{398, 134}";
type = Stem;
},
{
place = "{97, 132}";
type = Stem;
}
);
layerId = "AODEWCWT-RYM3-6S2H-YGKD-BAMV0KWXFSSX";
paths = (
{
closed = 1;
nodes = (
"201 398 OFFCURVE",
"229 428 OFFCURVE",
"229 464 CURVE SMOOTH",
"229 501 OFFCURVE",
"201 532 OFFCURVE",
"163 532 CURVE SMOOTH",
"125 532 OFFCURVE",
"97 501 OFFCURVE",
"97 464 CURVE SMOOTH",
"97 428 OFFCURVE",
"125 398 OFFCURVE",
"163 398 CURVE SMOOTH"
);
},
{
closed = 1;
nodes = (
"201 -13 OFFCURVE",
"229 17 OFFCURVE",
"229 53 CURVE SMOOTH",
"229 90 OFFCURVE",
"201 121 OFFCURVE",
"163 121 CURVE SMOOTH",
"125 121 OFFCURVE",
"97 90 OFFCURVE",
"97 53 CURVE SMOOTH",
"97 17 OFFCURVE",
"125 -13 OFFCURVE",
"163 -13 CURVE SMOOTH"
);
}
);
width = 326;
}
);
leftKerningGroup = colon;
note = cid00027;
rightKerningGroup = colon;
unicode = 003A;
},
{
glyphname = semicolon;
lastChange = "2019-12-26 05:49:15 +0000";
layers = (
{
hints = (
{
horizontal = 1;
place = "{-210, 21}";
target = up;
type = BottomGhost;
},
{
horizontal = 1;
place = "{398, 134}";
type = Stem;
},
{
place = "{97, 132}";
type = Stem;
},
{
place = "{97, 127}";
type = Stem;
}
);
layerId = "AODEWCWT-RYM3-6S2H-YGKD-BAMV0KWXFSSX";
paths = (
{
closed = 1;
nodes = (
"132 -198 OFFCURVE",
"224 -98 OFFCURVE",
"224 22 CURVE SMOOTH",
"224 48 OFFCURVE",
"220 68 OFFCURVE",
"213 93 CURVE",
"190 114 OFFCURVE",
"172 121 OFFCURVE",
"153 121 CURVE SMOOTH",
"116 121 OFFCURVE",
"97 93 OFFCURVE",
"97 61 CURVE SMOOTH",
"97 38 OFFCURVE",
"108 14 OFFCURVE",
"133 -7 CURVE SMOOTH",
"171 -36 LINE",
"149 -118 OFFCURVE",
"96 -170 OFFCURVE",
"22 -210 CURVE",
"35 -239 LINE"
);
},
{
closed = 1;
nodes = (
"201 398 OFFCURVE",
"229 428 OFFCURVE",
"229 464 CURVE SMOOTH",
"229 501 OFFCURVE",
"201 532 OFFCURVE",
"163 532 CURVE SMOOTH",
"125 532 OFFCURVE",
"97 501 OFFCURVE",
"97 464 CURVE SMOOTH",
"97 428 OFFCURVE",
"125 398 OFFCURVE",
"163 398 CURVE SMOOTH"
);
}
);
width = 326;
}
);
leftKerningGroup = colon;
note = cid00028;
rightKerningGroup = colon;
unicode = 003B;
},
{
glyphname = less;
lastChange = "2019-12-26 05:49:10 +0000";
layers = (
{
hints = (
{
horizontal = 1;
place = "{93, 533}";
type = Stem;
},
{
place = "{64, 446}";
type = Stem;
}
);
layerId = "AODEWCWT-RYM3-6S2H-YGKD-BAMV0KWXFSSX";
paths = (
{
closed = 1;
nodes = (
"510 137 LINE",
"121 360 LINE",
"510 583 LINE",
"485 626 LINE",
"64 379 LINE",
"64 340 LINE",
"485 93 LINE"
);
}
);
width = 576;
}
);
note = cid00029;
unicode = 003C;
},
{
glyphname = equal;
lastChange = "2019-12-26 02:40:52 +0000";
layers = (
{
hints = (
{
horizontal = 1;
place = "{227, 49}";
type = Stem;
},
{
horizontal = 1;
place = "{445, 49}";
type = Stem;
},
{
place = "{35, 507}";
type = Stem;
}
);
layerId = "AODEWCWT-RYM3-6S2H-YGKD-BAMV0KWXFSSX";
paths = (
{
closed = 1;
nodes = (
"542 445 LINE",
"542 494 LINE",
"35 494 LINE",
"35 445 LINE"
);
},
{
closed = 1;
nodes = (
"542 227 LINE",
"542 276 LINE",
"35 276 LINE",
"35 227 LINE"
);
}
);
width = 576;
}
);
note = cid00030;
unicode = 003D;
},
{
glyphname = greater;
lastChange = "2019-12-26 05:49:10 +0000";
layers = (
{
hints = (
{
horizontal = 1;
place = "{95, 532}";
type = Stem;
},
{
place = "{66, 446}";
type = Stem;
}
);
layerId = "AODEWCWT-RYM3-6S2H-YGKD-BAMV0KWXFSSX";
paths = (
{
closed = 1;
nodes = (
"512 341 LINE",
"512 380 LINE",
"91 627 LINE",
"66 584 LINE",
"455 361 LINE",
"66 138 LINE",
"91 95 LINE"
);
}
);
width = 576;
}
);
note = cid00031;
unicode = 003E;
},
{
glyphname = question;
lastChange = "2019-12-26 05:49:15 +0000";
layers = (
{
hints = (
{
horizontal = 1;
place = "{-13, 122}";
type = Stem;
},
{
place = "{97, 123}";
type = Stem;
},
{
place = "{324, 47}";
type = Stem;
},
{
place = "{116, 59}";
type = Stem;
},
{
place = "{145, 30}";
type = Stem;
}
);
layerId = "AODEWCWT-RYM3-6S2H-YGKD-BAMV0KWXFSSX";
paths = (
{
closed = 1;
nodes = (
"176 221 LINE",
"175 289 LINE SMOOTH",
"175 325 OFFCURVE",
"183 336 OFFCURVE",
"232 355 CURVE SMOOTH",
"267 370 LINE SMOOTH",
"336 398 OFFCURVE",
"371 443 OFFCURVE",
"371 513 CURVE SMOOTH",
"371 653 OFFCURVE",
"222 734 OFFCURVE",
"125 748 CURVE",
"92 739 OFFCURVE",
"76 725 OFFCURVE",
"76 696 CURVE SMOOTH",
"76 672 OFFCURVE",
"89 653 OFFCURVE",
"143 644 CURVE SMOOTH",
"289 619 LINE",
"310 592 OFFCURVE",
"323 561 OFFCURVE",
"324 529 CURVE SMOOTH",
"324 485 OFFCURVE",
"302 458 OFFCURVE",
"253 436 CURVE SMOOTH",
"201 415 LINE SMOOTH",
"137 390 OFFCURVE",
"116 371 OFFCURVE",
"116 338 CURVE SMOOTH",
"116 324 OFFCURVE",
"121 305 OFFCURVE",
"132 265 CURVE SMOOTH",
"145 221 LINE"
);
},
{
closed = 1;
nodes = (
"192 -13 OFFCURVE",
"220 15 OFFCURVE",
"220 48 CURVE SMOOTH",
"220 80 OFFCURVE",
"192 109 OFFCURVE",
"158 109 CURVE SMOOTH",
"124 109 OFFCURVE",
"97 80 OFFCURVE",
"97 48 CURVE SMOOTH",
"97 15 OFFCURVE",
"124 -13 OFFCURVE",
"158 -13 CURVE SMOOTH"
);
}
);
width = 438;
}
);
leftKerningGroup = question;
note = cid00032;
rightKerningGroup = question;
unicode = 003F;
},
{
glyphname = at;
lastChange = "2019-12-26 05:49:10 +0000";
layers = (
{
hints = (
{
horizontal = 1;
place = "{-168, 33}";
type = Stem;
},
{
horizontal = 1;
place = "{49, 53}";
type = Stem;
},
{
horizontal = 1;
place = "{468, 42}";
type = Stem;
},
{
horizontal = 1;
place = "{670, 34}";
type = Stem;
},
{
place = "{38, 51}";
type = Stem;
},
{
place = "{254, 63}";
type = Stem;
},
{
place = "{518, 58}";
type = Stem;
},
{
place = "{815, 48}";
type = Stem;
},
{
horizontal = 1;
place = "{49, 40}";
type = Stem;
}
);
layerId = "AODEWCWT-RYM3-6S2H-YGKD-BAMV0KWXFSSX";
paths = (
{
closed = 1;
nodes = (
"495 -168 OFFCURVE",
"570 -155 OFFCURVE",
"633 -123 CURVE",
"623 -98 LINE",
"571 -123 OFFCURVE",
"517 -135 OFFCURVE",
"445 -135 CURVE SMOOTH",
"254 -135 OFFCURVE",
"89 -13 OFFCURVE",
"89 229 CURVE SMOOTH",
"89 461 OFFCURVE",
"263 670 OFFCURVE",
"509 670 CURVE SMOOTH",
"684 670 OFFCURVE",
"815 553 OFFCURVE",
"815 366 CURVE SMOOTH",
"815 176 OFFCURVE",
"719 89 OFFCURVE",
"639 89 CURVE SMOOTH",
"589 89 OFFCURVE",
"567 121 OFFCURVE",
"579 178 CURVE SMOOTH",
"642 496 LINE",
"625 509 LINE",
"577 480 LINE",
"554 502 OFFCURVE",
"530 510 OFFCURVE",
"503 510 CURVE SMOOTH",
"447 510 OFFCURVE",
"390 479 OFFCURVE",
"341 418 CURVE SMOOTH",
"293 361 OFFCURVE",
"254 279 OFFCURVE",
"254 190 CURVE SMOOTH",
"254 91 OFFCURVE",
"309 49 OFFCURVE",
"370 49 CURVE SMOOTH",
"425 49 OFFCURVE",
"473 86 OFFCURVE",
"518 138 CURVE",
"526 85 OFFCURVE",
"562 49 OFFCURVE",
"623 49 CURVE SMOOTH",
"721 49 OFFCURVE",
"863 145 OFFCURVE",
"863 357 CURVE SMOOTH",
"863 561 OFFCURVE",
"732 704 OFFCURVE",
"514 704 CURVE SMOOTH",
"243 704 OFFCURVE",
"38 489 OFFCURVE",
"38 220 CURVE SMOOTH",
"38 -37 OFFCURVE",
"210 -168 OFFCURVE",
"427 -168 CURVE SMOOTH"
);
},
{
closed = 1;
nodes = (
"345 102 OFFCURVE",
"317 139 OFFCURVE",
"317 211 CURVE SMOOTH",
"317 288 OFFCURVE",
"347 353 OFFCURVE",
"382 401 CURVE SMOOTH",
"418 451 OFFCURVE",
"461 468 OFFCURVE",
"496 468 CURVE SMOOTH",
"522 468 OFFCURVE",
"546 457 OFFCURVE",
"566 429 CURVE",
"515 164 LINE",
"461 116 OFFCURVE",
"429 102 OFFCURVE",
"397 102 CURVE SMOOTH"
);
}
);
width = 901;
}
);
leftKerningGroup = at;
note = cid00033;
rightKerningGroup = at;
unicode = 0040;
},
{
glyphname = A;
lastChange = "2023-03-10 17:17:12 +0000";
layers = (
{
hints = (
{
horizontal = 1;
place = "{0, 41.5}";
type = Stem;
},
{
horizontal = 1;
place = "{246, 41}";
type = Stem;
},
{
horizontal = 1;
place = "{736, -20}";
target = down;
type = TopGhost;
},
{
place = "{8, 702}";
type = Stem;
},
{
horizontal = 1;
place = "{0, 41}";
type = Stem;
}
);
layerId = "AODEWCWT-RYM3-6S2H-YGKD-BAMV0KWXFSSX";
paths = (
{
closed = 1;
nodes = (
"248 0 LINE",
"248 36 LINE",
"143 49 LINE",
"208 246 LINE",
"465 246 LINE",
"531 47 LINE",
"421 36 LINE",
"421 0 LINE",
"710 0 LINE",
"710 36 LINE",
"620 46 LINE",
"385 736 LINE",
"329 736 LINE",
"98 48 LINE",
"8 36 LINE",
"8 0 LINE"
);
},
{
closed = 1;
nodes = (
"336 633 LINE",
"451 287 LINE",
"222 287 LINE"
);
}
);
width = 719;
}
);
leftKerningGroup = A;
note = cid00034;
rightKerningGroup = A;
unicode = 0041;
},
{
glyphname = B;
lastChange = "2019-12-26 05:49:10 +0000";
layers = (
{
hints = (
{
horizontal = 1;
place = "{0, 41}";
type = Stem;
},
{
horizontal = 1;
place = "{358, 40}";
type = Stem;
},
{
horizontal = 1;
place = "{688, 41}";
type = Stem;
},
{
place = "{159, 83}";
type = Stem;
},
{
place = "{536, 89}";
type = Stem;
},
{
place = "{504, 84}";
type = Stem;
},
{
horizontal = 1;
place = "{0, 41.5}";
type = Stem;
},
{
horizontal = 1;
place = "{688.5, 40.5}";
type = Stem;
}
);
layerId = "AODEWCWT-RYM3-6S2H-YGKD-BAMV0KWXFSSX";
paths = (
{
closed = 1;
nodes = (
"346 0 LINE SMOOTH",
"544 0 OFFCURVE",
"625 97 OFFCURVE",
"625 198 CURVE SMOOTH",
"625 289 OFFCURVE",
"563 361 OFFCURVE",
"417 380 CURVE",
"538 406 OFFCURVE",
"588 475 OFFCURVE",
"588 553 CURVE SMOOTH",
"588 658 OFFCURVE",
"505 729 OFFCURVE",
"353 729 CURVE SMOOTH",
"52 729 LINE",
"52 694 LINE",
"156 683 LINE",
"159 587 OFFCURVE",
"159 489 OFFCURVE",
"159 393 CURVE SMOOTH",
"159 338 LINE SMOOTH",
"159 240 OFFCURVE",
"159 143 OFFCURVE",
"156 47 CURVE",
"52 36 LINE",
"52 0 LINE"
);
},
{
closed = 1;
nodes = (
"242 139 OFFCURVE",
"242 241 OFFCURVE",
"242 358 CURVE",
"312 358 LINE SMOOTH",
"468 358 OFFCURVE",
"536 302 OFFCURVE",
"536 198 CURVE SMOOTH",
"536 97 OFFCURVE",
"465 41 OFFCURVE",
"326 41 CURVE SMOOTH",
"245 41 LINE"
);
},
{
closed = 1;
nodes = (
"242 498 OFFCURVE",
"242 594 OFFCURVE",
"245 688 CURVE",
"326 688 LINE SMOOTH",
"448 688 OFFCURVE",
"504 647 OFFCURVE",
"504 550 CURVE SMOOTH",
"504 448 OFFCURVE",
"441 398 OFFCURVE",
"305 398 CURVE SMOOTH",
"242 398 LINE"
);
}
);
width = 675;
}
);
leftKerningGroup = B;
note = cid00035;
rightKerningGroup = B;
unicode = 0042;
},
{
glyphname = C;
lastChange = "2019-12-26 05:49:10 +0000";
layers = (
{
hints = (
{
horizontal = 1;
place = "{-16, 45}";
type = Stem;
},
{
horizontal = 1;
place = "{701, 45}";
type = Stem;
},
{
place = "{55, 98}";
type = Stem;
},
{
place = "{587, 52.5}";
type = Stem;
},
{
place = "{577, 53}";
type = Stem;
}
);
layerId = "AODEWCWT-RYM3-6S2H-YGKD-BAMV0KWXFSSX";
paths = (
{
closed = 1;
nodes = (
"498 -16 OFFCURVE",
"570 -1 OFFCURVE",
"638 38 CURVE",
"641 196 LINE",
"587 196 LINE",
"563 60 LINE",
"518 38 OFFCURVE",
"471 29 OFFCURVE",
"425 29 CURVE SMOOTH",
"266 29 OFFCURVE",
"153 149 OFFCURVE",
"153 365 CURVE SMOOTH",
"153 579 OFFCURVE",
"273 701 OFFCURVE",
"432 701 CURVE SMOOTH",
"472 701 OFFCURVE",
"512 692 OFFCURVE",
"553 670 CURVE",
"577 535 LINE",
"632 535 LINE",
"628 692 LINE",
"557 734 OFFCURVE",
"486 746 OFFCURVE",
"421 746 CURVE SMOOTH",
"210 746 OFFCURVE",
"55 586 OFFCURVE",
"55 365 CURVE SMOOTH",
"55 141 OFFCURVE",
"203 -16 OFFCURVE",
"421 -16 CURVE SMOOTH"
);
}
);
width = 690;
}
);
leftKerningGroup = C;
note = cid00036;
rightKerningGroup = C;
unicode = 0043;
},
{
glyphname = D;
lastChange = "2019-12-26 05:49:10 +0000";
layers = (
{
hints = (
{
horizontal = 1;
place = "{0, 41}";
type = Stem;
},
{
horizontal = 1;
place = "{688, 41}";
type = Stem;
},
{
place = "{159, 83}";
type = Stem;
},
{
place = "{619, 96}";
type = Stem;
},
{
horizontal = 1;
place = "{0, 41.5}";
type = Stem;
},
{
horizontal = 1;
place = "{688.5, 40.5}";
type = Stem;
}
);
layerId = "AODEWCWT-RYM3-6S2H-YGKD-BAMV0KWXFSSX";
paths = (
{
closed = 1;
nodes = (
"345 0 LINE SMOOTH",
"562 0 OFFCURVE",
"715 133 OFFCURVE",
"715 364 CURVE SMOOTH",
"715 600 OFFCURVE",
"575 729 OFFCURVE",
"363 729 CURVE SMOOTH",
"52 729 LINE",
"52 694 LINE",
"156 683 LINE",
"159 587 OFFCURVE",
"159 489 OFFCURVE",
"159 390 CURVE SMOOTH",
"159 354 LINE SMOOTH",
"159 241 OFFCURVE",
"159 142 OFFCURVE",
"156 47 CURVE",
"52 36 LINE",
"52 0 LINE"
);
},
{
closed = 1;
nodes = (
"242 140 OFFCURVE",
"242 241 OFFCURVE",
"242 354 CURVE SMOOTH",
"242 390 LINE SMOOTH",
"242 492 OFFCURVE",
"242 592 OFFCURVE",
"245 688 CURVE",
"347 688 LINE SMOOTH",
"521 688 OFFCURVE",
"619 575 OFFCURVE",
"619 364 CURVE SMOOTH",
"619 162 OFFCURVE",
"521 41 OFFCURVE",
"336 41 CURVE SMOOTH",
"245 41 LINE"
);
}
);
width = 772;
}
);
leftKerningGroup = B;
note = cid00037;
rightKerningGroup = D;
unicode = 0044;
},
{
glyphname = E;
lastChange = "2019-12-26 05:49:10 +0000";
layers = (
{
hints = (
{
horizontal = 1;
place = "{0, 189}";
type = Stem;
},
{
horizontal = 1;
place = "{351, 40}";
type = Stem;
},
{
horizontal = 1;
place = "{685, 44}";
type = Stem;
},
{
place = "{159, 83}";
type = Stem;
},
{
place = "{432, 41}";
type = Stem;
},
{
place = "{538, 72.5}";
type = Stem;
},
{
horizontal = 1;
place = "{0, 45}";
type = Stem;
},
{
place = "{518, 72.5}";
type = Stem;
},
{
horizontal = 1;
place = "{541, 188}";
type = Stem;
},
{
horizontal = 1;
place = "{0, 41.5}";
type = Stem;
},
{
horizontal = 1;
place = "{688.5, 40.5}";
type = Stem;
}
);
layerId = "AODEWCWT-RYM3-6S2H-YGKD-BAMV0KWXFSSX";
paths = (
{
closed = 1;
nodes = (
"607 0 LINE",
"614 189 LINE",
"564 189 LINE",
"538 45 LINE",
"245 45 LINE",
"242 142 OFFCURVE",
"242 240 OFFCURVE",
"242 351 CURVE",
"418 351 LINE",
"432 246 LINE",
"473 246 LINE",
"473 499 LINE",
"432 499 LINE",
"417 391 LINE",
"242 391 LINE",
"242 493 OFFCURVE",
"242 591 OFFCURVE",
"245 685 CURVE",
"518 685 LINE",
"545 541 LINE",
"594 541 LINE",
"587 729 LINE",
"52 729 LINE",
"52 694 LINE",
"156 683 LINE",
"159 587 OFFCURVE",
"159 489 OFFCURVE",
"159 392 CURVE SMOOTH",
"159 337 LINE SMOOTH",
"159 239 OFFCURVE",
"159 142 OFFCURVE",
"156 47 CURVE",
"52 36 LINE",
"52 0 LINE"
);
}
);
width = 655;
}
);
leftKerningGroup = B;
note = cid00038;
rightKerningGroup = E;
unicode = 0045;
},
{
glyphname = F;
lastChange = "2019-12-26 05:49:10 +0000";
layers = (
{
hints = (
{
horizontal = 1;
place = "{0, 41.5}";
type = Stem;
},
{
horizontal = 1;
place = "{351, 40}";
type = Stem;
},
{
horizontal = 1;
place = "{685, 44}";
type = Stem;
},
{
place = "{159, 83}";
type = Stem;
},
{
place = "{437, 42}";
type = Stem;
},
{
place = "{519, 72}";
type = Stem;
},
{
horizontal = 1;
place = "{541, 188}";
type = Stem;
},
{
horizontal = 1;
place = "{688.5, 40.5}";
type = Stem;
}
);
layerId = "AODEWCWT-RYM3-6S2H-YGKD-BAMV0KWXFSSX";
paths = (
{
closed = 1;
nodes = (
"352 0 LINE",
"352 36 LINE",
"245 47 LINE",
"242 143 OFFCURVE",
"242 241 OFFCURVE",
"242 351 CURVE",
"423 351 LINE",
"437 237 LINE",
"479 237 LINE",
"479 499 LINE",
"437 499 LINE",
"424 391 LINE",
"242 391 LINE",
"242 493 OFFCURVE",
"242 591 OFFCURVE",
"245 685 CURVE",
"519 685 LINE",
"545 541 LINE",
"595 541 LINE",
"587 729 LINE",
"52 729 LINE",
"52 694 LINE",
"156 683 LINE",
"159 587 OFFCURVE",
"159 489 OFFCURVE",
"159 392 CURVE SMOOTH",
"159 337 LINE SMOOTH",
"159 239 OFFCURVE",
"159 142 OFFCURVE",
"156 47 CURVE",
"52 36 LINE",
"52 0 LINE"
);
}
);
width = 629;
}
);
leftKerningGroup = B;
note = cid00039;
rightKerningGroup = F;
unicode = 0046;
},
{
glyphname = G;
lastChange = "2019-12-26 05:49:10 +0000";
layers = (
{
hints = (
{
horizontal = 1;
place = "{-16, 45}";
type = Stem;
},
{
horizontal = 1;
place = "{306.5, 40.5}";
type = Stem;
},
{
horizontal = 1;
place = "{701, 45}";
type = Stem;
},
{
place = "{55, 98}";
type = Stem;
},
{
place = "{571, 84}";
type = Stem;
},
{
place = "{589, 54}";
type = Stem;
},
{
horizontal = 1;
place = "{307.5, 39.5}";
type = Stem;
}
);
layerId = "AODEWCWT-RYM3-6S2H-YGKD-BAMV0KWXFSSX";
paths = (
{
closed = 1;
nodes = (
"509 -16 OFFCURVE",
"579 8 OFFCURVE",
"655 49 CURVE",
"655 98 LINE SMOOTH",
"655 171 OFFCURVE",
"656 238 OFFCURVE",
"658 304 CURVE",
"727 311 LINE",
"727 347 LINE",
"451 347 LINE",
"451 311 LINE",
"568 302 LINE",
"570 234 OFFCURVE",
"571 165 OFFCURVE",
"571 99 CURVE SMOOTH",
"571 57 LINE",
"526 39 OFFCURVE",
"485 29 OFFCURVE",
"435 29 CURVE SMOOTH",
"261 29 OFFCURVE",
"153 155 OFFCURVE",
"153 364 CURVE SMOOTH",
"153 576 OFFCURVE",
"268 701 OFFCURVE",
"432 701 CURVE SMOOTH",
"482 701 OFFCURVE",
"525 690 OFFCURVE",
"567 665 CURVE",
"589 533 LINE",
"645 533 LINE",
"641 690 LINE",
"580 727 OFFCURVE",
"515 746 OFFCURVE",
"423 746 CURVE SMOOTH",
"207 746 OFFCURVE",
"55 586 OFFCURVE",
"55 365 CURVE SMOOTH",
"55 143 OFFCURVE",
"203 -16 OFFCURVE",
"420 -16 CURVE SMOOTH"
);
}
);
width = 742;
}
);
leftKerningGroup = C;
note = cid00040;
rightKerningGroup = G;
unicode = 0047;
},
{
glyphname = H;
lastChange = "2019-12-26 05:49:10 +0000";
layers = (
{
hints = (
{
horizontal = 1;
place = "{0, 41.5}";
type = Stem;
},
{
horizontal = 1;
place = "{355, 42}";
type = Stem;
},
{
horizontal = 1;
place = "{688.5, 40.5}";
type = Stem;
},
{
place = "{159, 83}";
type = Stem;
},
{
place = "{616, 85}";
type = Stem;
},
{
horizontal = 1;
place = "{0, 41}";
type = Stem;
}
);
layerId = "AODEWCWT-RYM3-6S2H-YGKD-BAMV0KWXFSSX";
paths = (
{
closed = 1;
nodes = (
"349 0 LINE",
"349 36 LINE",
"245 47 LINE",
"242 141 OFFCURVE",
"242 239 OFFCURVE",
"242 355 CURVE",
"616 355 LINE",
"616 238 OFFCURVE",
"616 140 OFFCURVE",
"614 46 CURVE",
"510 36 LINE",
"510 0 LINE",
"808 0 LINE",
"808 36 LINE",
"703 47 LINE",
"701 143 OFFCURVE",
"701 241 OFFCURVE",
"701 337 CURVE SMOOTH",
"701 392 LINE SMOOTH",
"701 491 OFFCURVE",
"701 588 OFFCURVE",
"703 683 CURVE",
"808 694 LINE",
"808 729 LINE",
"510 729 LINE",
"510 694 LINE",
"614 683 LINE",
"616 589 OFFCURVE",
"616 493 OFFCURVE",
"616 397 CURVE",
"242 397 LINE",
"242 494 OFFCURVE",
"242 590 OFFCURVE",
"245 683 CURVE",
"349 694 LINE",
"349 729 LINE",
"52 729 LINE",
"52 694 LINE",
"156 683 LINE",
"159 587 OFFCURVE",
"159 489 OFFCURVE",
"159 392 CURVE SMOOTH",
"159 337 LINE SMOOTH",
"159 239 OFFCURVE",
"159 142 OFFCURVE",
"156 47 CURVE",
"52 36 LINE",
"52 0 LINE"
);
}
);
width = 859;
}
);
leftKerningGroup = B;
note = cid00041;
rightKerningGroup = H;
unicode = 0048;
},
{
glyphname = I;
lastChange = "2019-12-26 05:49:10 +0000";
layers = (
{
hints = (
{
horizontal = 1;
place = "{0, 41.5}";
type = Stem;
},
{
horizontal = 1;
place = "{688.5, 40.5}";
type = Stem;
},
{
place = "{159, 83}";
type = Stem;
}
);
layerId = "AODEWCWT-RYM3-6S2H-YGKD-BAMV0KWXFSSX";
paths = (
{
closed = 1;
nodes = (
"349 0 LINE",
"349 36 LINE",
"245 47 LINE",
"242 143 OFFCURVE",
"242 241 OFFCURVE",
"242 337 CURVE SMOOTH",
"242 392 LINE SMOOTH",
"242 491 OFFCURVE",
"242 588 OFFCURVE",
"245 683 CURVE",
"349 694 LINE",
"349 729 LINE",
"52 729 LINE",
"52 694 LINE",
"156 683 LINE",
"159 587 OFFCURVE",
"159 489 OFFCURVE",
"159 392 CURVE SMOOTH",
"159 337 LINE SMOOTH",
"159 239 OFFCURVE",
"159 142 OFFCURVE",
"156 47 CURVE",
"52 36 LINE",
"52 0 LINE"
);
}
);
width = 401;
}
);
leftKerningGroup = B;
note = cid00042;
rightKerningGroup = H;
unicode = 0049;
},
{
glyphname = J;
lastChange = "2019-12-26 05:49:10 +0000";
layers = (
{
hints = (
{
horizontal = 1;
place = "{-173, 93}";
type = Stem;
},
{
horizontal = 1;
place = "{688, 41}";
type = Stem;
},
{
place = "{178, 79}";
type = Stem;
},
{
horizontal = 1;
place = "{688.5, 40.5}";
type = Stem;
}
);
layerId = "AODEWCWT-RYM3-6S2H-YGKD-BAMV0KWXFSSX";
paths = (
{
closed = 1;
nodes = (
"137 -173 OFFCURVE",
"227 -111 OFFCURVE",
"246 8 CURVE SMOOTH",
"254 57 OFFCURVE",
"257 107 OFFCURVE",
"257 218 CURVE SMOOTH",
"257 391 LINE SMOOTH",
"257 491 OFFCURVE",
"257 588 OFFCURVE",
"259 683 CURVE",
"363 694 LINE",
"363 729 LINE",
"55 729 LINE",
"55 694 LINE",
"170 682 LINE",
"175 178 OFFCURVE",
"178 85 OFFCURVE",
"178 29 CURVE SMOOTH",
"178 -55 OFFCURVE",
"155 -101 OFFCURVE",
"119 -129 CURVE",
"93 -110 LINE SMOOTH",
"64 -88 OFFCURVE",
"43 -80 OFFCURVE",
"17 -80 CURVE SMOOTH",
"-13 -80 OFFCURVE",
"-37 -92 OFFCURVE",
"-42 -127 CURVE",
"-33 -162 OFFCURVE",
"4 -173 OFFCURVE",
"43 -173 CURVE SMOOTH"
);
}
);
width = 402;
}
);
leftKerningGroup = J;
note = cid00043;
rightKerningGroup = J;
unicode = 004A;
},
{
glyphname = K;
lastChange = "2019-12-26 05:49:10 +0000";
layers = (
{
hints = (
{
horizontal = 1;
place = "{0, 41}";
type = Stem;
},
{
horizontal = 1;
place = "{694, 35}";
type = Stem;
},
{
place = "{159, 81}";
type = Stem;
},
{
horizontal = 1;
place = "{0, 41.5}";
type = Stem;
},
{
horizontal = 1;
place = "{688, 41}";
type = Stem;
},
{
horizontal = 1;
place = "{688.5, 40.5}";
type = Stem;
}
);
layerId = "AODEWCWT-RYM3-6S2H-YGKD-BAMV0KWXFSSX";
paths = (
{
closed = 1;
nodes = (
"349 0 LINE",
"349 36 LINE",
"242 47 LINE",
"240 120 OFFCURVE",
"240 189 OFFCURVE",
"240 247 CURVE",
"358 389 LINE",
"546 46 LINE",
"450 36 LINE",
"450 0 LINE",
"722 0 LINE",
"722 36 LINE",
"634 46 LINE",
"408 449 LINE",
"600 680 LINE",
"701 694 LINE",
"701 729 LINE",
"452 729 LINE",
"452 694 LINE",
"545 680 LINE",
"240 308 LINE",
"240 392 LINE SMOOTH",
"240 491 OFFCURVE",
"240 588 OFFCURVE",
"242 682 CURVE",
"349 694 LINE",
"349 729 LINE",
"52 729 LINE",
"52 694 LINE",
"156 683 LINE",
"159 587 OFFCURVE",
"159 489 OFFCURVE",
"159 392 CURVE SMOOTH",
"159 337 LINE SMOOTH",
"159 239 OFFCURVE",
"159 142 OFFCURVE",
"156 47 CURVE",
"52 36 LINE",
"52 0 LINE"
);
}
);
width = 723;
}
);
leftKerningGroup = B;
note = cid00044;
rightKerningGroup = K;
unicode = 004B;
},
{
glyphname = L;
lastChange = "2019-12-26 05:49:10 +0000";
layers = (
{
hints = (
{
horizontal = 1;
place = "{0, 199}";
type = Stem;
},
{
horizontal = 1;
place = "{688.5, 40.5}";
type = Stem;
},
{
place = "{159, 83}";
type = Stem;
},
{
horizontal = 1;
place = "{0, 45}";
type = Stem;
},
{
horizontal = 1;
place = "{0, 41.5}";
type = Stem;
}
);
layerId = "AODEWCWT-RYM3-6S2H-YGKD-BAMV0KWXFSSX";
paths = (
{
closed = 1;
nodes = (
"585 0 LINE",
"594 199 LINE",
"541 199 LINE",
"509 45 LINE",
"245 45 LINE",
"242 140 OFFCURVE",
"242 236 OFFCURVE",
"242 317 CURVE SMOOTH",
"242 387 LINE SMOOTH",
"242 489 OFFCURVE",
"242 587 OFFCURVE",
"245 683 CURVE",
"349 694 LINE",
"349 729 LINE",
"52 729 LINE",
"52 694 LINE",
"156 683 LINE",
"159 588 OFFCURVE",
"159 491 OFFCURVE",
"159 392 CURVE SMOOTH",
"159 336 LINE SMOOTH",
"159 240 OFFCURVE",
"159 143 OFFCURVE",
"156 47 CURVE",
"52 36 LINE",
"52 0 LINE"
);
}
);
width = 640;
}
);
leftKerningGroup = B;
note = cid00045;
rightKerningGroup = L;
unicode = 004C;
},
{
glyphname = M;
lastChange = "2019-12-26 05:49:15 +0000";
layers = (
{
hints = (
{
horizontal = 1;
place = "{0, 41}";
type = Stem;
},
{
horizontal = 1;
place = "{688.5, 40.5}";
type = Stem;
},
{
place = "{142.5, 46.5}";
type = Stem;
},
{
place = "{738.5, 82.5}";
type = Stem;
},
{
horizontal = 1;
place = "{0, 42}";
type = Stem;
},
{
horizontal = 1;
place = "{688, 41}";
type = Stem;
},
{
place = "{736, 85}";
type = Stem;
}
);
layerId = "AODEWCWT-RYM3-6S2H-YGKD-BAMV0KWXFSSX";
paths = (
{
closed = 1;
nodes = (
"286 0 LINE",
"286 36 LINE",
"189 48 LINE",
"189 403 LINE",
"184 631 LINE",
"446 0 LINE",
"487 0 LINE",
"739 635 LINE",
"738 334 LINE SMOOTH",
"737 239 OFFCURVE",
"738 142 OFFCURVE",
"736 46 CURVE",
"638 36 LINE",
"638 0 LINE",
"927 0 LINE",
"927 36 LINE",
"823 46 LINE",
"821 143 OFFCURVE",
"821 240 OFFCURVE",
"821 337 CURVE SMOOTH",
"821 392 LINE SMOOTH",
"821 491 OFFCURVE",
"821 588 OFFCURVE",
"823 683 CURVE",
"927 694 LINE",
"927 729 LINE",
"729 729 LINE",
"483 109 LINE",
"228 729 LINE",
"42 729 LINE",
"42 694 LINE",
"143 682 LINE",
"142 48 LINE",
"45 36 LINE",
"45 0 LINE"
);
}
);
width = 979;
}
);
leftKerningGroup = M;
note = cid00046;
rightKerningGroup = H;
unicode = 004D;
},
{
glyphname = N;
lastChange = "2019-12-26 05:49:10 +0000";
layers = (
{
hints = (
{
horizontal = 1;
place = "{0, 42.5}";
type = Stem;
},
{
horizontal = 1;
place = "{690, 39}";
type = Stem;
},
{
place = "{137.5, 46}";
type = Stem;
},
{
place = "{616.5, 45}";
type = Stem;
},
{
place = "{499, 162.5}";
type = Stem;
},
{
horizontal = 1;
place = "{694, 35}";
type = Stem;
},
{
place = "{137.5, 162.5}";
type = Stem;
},
{
horizontal = 1;
place = "{-8, 21}";
target = up;
type = BottomGhost;
}
);
layerId = "AODEWCWT-RYM3-6S2H-YGKD-BAMV0KWXFSSX";
paths = (
{
closed = 1;
nodes = (
"661 -8 LINE",
"662 681 LINE",
"755 694 LINE",
"755 729 LINE",
"499 729 LINE",
"499 694 LINE",
"616 680 LINE",
"617 150 LINE",
"203 729 LINE",
"47 729 LINE",
"47 695 LINE",
"129 685 LINE",
"138 672 LINE",
"137 48 LINE",
"43 36 LINE",
"43 0 LINE",
"300 0 LINE",
"300 36 LINE",
"184 49 LINE",
"183 609 LINE",
"628 -8 LINE"
);
}
);
width = 798;
}
);
leftKerningGroup = M;
note = cid00047;
rightKerningGroup = N;
unicode = 004E;
},
{
glyphname = O;
lastChange = "2019-12-26 05:49:10 +0000";
layers = (
{
hints = (
{
horizontal = 1;
place = "{-16, 44}";
type = Stem;
},
{
horizontal = 1;
place = "{701, 45}";
type = Stem;
},
{
place = "{55, 98}";
type = Stem;
},
{
place = "{615, 97}";
type = Stem;
}
);
layerId = "AODEWCWT-RYM3-6S2H-YGKD-BAMV0KWXFSSX";
paths = (
{
closed = 1;
nodes = (
"555 -16 OFFCURVE",
"712 128 OFFCURVE",
"712 365 CURVE SMOOTH",
"712 609 OFFCURVE",
"555 746 OFFCURVE",
"385 746 CURVE SMOOTH",
"214 746 OFFCURVE",
"55 601 OFFCURVE",
"55 365 CURVE SMOOTH",
"55 121 OFFCURVE",
"213 -16 OFFCURVE",
"385 -16 CURVE SMOOTH"
);
},
{
closed = 1;
nodes = (
"227 28 OFFCURVE",
"153 192 OFFCURVE",
"153 365 CURVE SMOOTH",
"153 537 OFFCURVE",
"227 701 OFFCURVE",
"385 701 CURVE SMOOTH",
"541 701 OFFCURVE",
"615 537 OFFCURVE",
"615 365 CURVE SMOOTH",
"615 192 OFFCURVE",
"541 28 OFFCURVE",
"385 28 CURVE SMOOTH"
);
}
);
width = 769;
}
);
leftKerningGroup = C;
note = cid00048;
rightKerningGroup = O;
unicode = 004F;
},
{
glyphname = P;
lastChange = "2019-12-26 05:49:10 +0000";
layers = (
{
hints = (
{
horizontal = 1;
place = "{0, 41.5}";
type = Stem;
},
{
horizontal = 1;
place = "{295, 40}";
type = Stem;
},
{
horizontal = 1;
place = "{688, 41}";
type = Stem;
},
{
place = "{159, 83}";
type = Stem;
},
{
place = "{517, 88}";
type = Stem;
},
{
horizontal = 1;
place = "{688.5, 40.5}";
type = Stem;
}
);
layerId = "AODEWCWT-RYM3-6S2H-YGKD-BAMV0KWXFSSX";
paths = (
{
closed = 1;
nodes = (
"352 0 LINE",
"352 36 LINE",
"245 47 LINE",
"242 131 OFFCURVE",
"242 212 OFFCURVE",
"242 295 CURVE",
"305 295 LINE SMOOTH",
"520 295 OFFCURVE",
"605 392 OFFCURVE",
"605 515 CURVE SMOOTH",
"605 644 OFFCURVE",
"517 729 OFFCURVE",
"340 729 CURVE SMOOTH",
"52 729 LINE",
"52 694 LINE",
"156 683 LINE",
"159 587 OFFCURVE",
"159 489 OFFCURVE",
"159 392 CURVE SMOOTH",
"159 337 LINE SMOOTH",
"159 239 OFFCURVE",
"159 142 OFFCURVE",
"156 47 CURVE",
"52 36 LINE",
"52 0 LINE"
);
},
{
closed = 1;
nodes = (
"242 392 LINE SMOOTH",
"242 493 OFFCURVE",
"242 592 OFFCURVE",
"245 688 CURVE",
"324 688 LINE SMOOTH",
"459 688 OFFCURVE",
"517 626 OFFCURVE",
"517 515 CURVE SMOOTH",
"517 409 OFFCURVE",
"461 335 OFFCURVE",
"314 335 CURVE SMOOTH",
"242 335 LINE"
);
}
);
width = 637;
}
);
leftKerningGroup = B;
note = cid00049;
rightKerningGroup = P;
unicode = 0050;
},
{
glyphname = Q;
lastChange = "2019-12-26 05:49:10 +0000";
layers = (
{
hints = (
{
horizontal = 1;
place = "{-230, 47}";
type = Stem;
},
{
horizontal = 1;
place = "{-12, 40}";
type = Stem;
},
{
horizontal = 1;
place = "{701, 45}";
type = Stem;
},
{
place = "{55, 98}";
type = Stem;
},
{
place = "{615, 97}";
type = Stem;
},
{
horizontal = 1;
place = "{-14, 42}";
type = Stem;
}
);
layerId = "AODEWCWT-RYM3-6S2H-YGKD-BAMV0KWXFSSX";
paths = (
{
closed = 1;
nodes = (
"584 -230 OFFCURVE",
"634 -220 OFFCURVE",
"671 -197 CURVE",
"661 -167 LINE",
"627 -178 OFFCURVE",
"600 -183 OFFCURVE",
"573 -183 CURVE SMOOTH",
"481 -183 OFFCURVE",
"423 -121 OFFCURVE",
"421 -14 CURVE",
"577 5 OFFCURVE",
"712 145 OFFCURVE",
"712 365 CURVE SMOOTH",
"712 609 OFFCURVE",
"555 746 OFFCURVE",
"385 746 CURVE SMOOTH",
"214 746 OFFCURVE",
"55 601 OFFCURVE",
"55 365 CURVE SMOOTH",
"55 144 OFFCURVE",
"185 11 OFFCURVE",
"337 -12 CURVE",
"338 -127 OFFCURVE",
"408 -230 OFFCURVE",
"541 -230 CURVE SMOOTH"
);
},
{
closed = 1;
nodes = (
"227 28 OFFCURVE",
"153 192 OFFCURVE",
"153 365 CURVE SMOOTH",
"153 537 OFFCURVE",
"227 701 OFFCURVE",
"385 701 CURVE SMOOTH",
"541 701 OFFCURVE",
"615 537 OFFCURVE",
"615 365 CURVE SMOOTH",
"615 192 OFFCURVE",
"541 28 OFFCURVE",
"385 28 CURVE SMOOTH"
);
}
);
width = 769;
}
);
leftKerningGroup = C;
note = cid00050;
rightKerningGroup = O;
unicode = 0051;
},
{
glyphname = R;
lastChange = "2019-12-26 05:49:10 +0000";
layers = (
{
hints = (
{
horizontal = 1;
place = "{0, 41.5}";
type = Stem;
},
{
horizontal = 1;
place = "{339, 40}";
type = Stem;
},
{
horizontal = 1;
place = "{688, 41}";
type = Stem;
},
{
place = "{159, 83}";
type = Stem;
},
{
place = "{521, 87}";
type = Stem;
},
{
horizontal = 1;
place = "{-10, 50.5}";
type = Stem;
},
{
horizontal = 1;
place = "{352, 27}";
type = Stem;
},
{
horizontal = 1;
place = "{688.5, 40.5}";
type = Stem;
}
);
layerId = "AODEWCWT-RYM3-6S2H-YGKD-BAMV0KWXFSSX";
paths = (
{
closed = 1;
nodes = (
"645 -10 OFFCURVE",
"671 -5 OFFCURVE",
"689 0 CURVE",
"689 36 LINE",
"599 45 LINE",
"545 222 LINE SMOOTH",
"520 301 OFFCURVE",
"487 338 OFFCURVE",
"425 352 CURVE",
"545 374 OFFCURVE",
"608 450 OFFCURVE",
"608 538 CURVE SMOOTH",
"608 660 OFFCURVE",
"513 729 OFFCURVE",
"350 729 CURVE SMOOTH",
"52 729 LINE",
"52 694 LINE",
"156 683 LINE",
"159 587 OFFCURVE",
"159 489 OFFCURVE",
"159 392 CURVE SMOOTH",
"159 337 LINE SMOOTH",
"159 239 OFFCURVE",
"159 142 OFFCURVE",
"156 47 CURVE",
"52 36 LINE",
"52 0 LINE",
"349 0 LINE",
"349 36 LINE",
"245 47 LINE",
"242 141 OFFCURVE",
"242 236 OFFCURVE",
"242 339 CURVE",
"309 339 LINE SMOOTH",
"401 339 OFFCURVE",
"436 320 OFFCURVE",
"459 233 CURVE SMOOTH",
"509 53 LINE SMOOTH",
"521 8 OFFCURVE",
"547 -10 OFFCURVE",
"612 -10 CURVE SMOOTH"
);
},
{
closed = 1;
nodes = (
"242 495 OFFCURVE",
"242 592 OFFCURVE",
"245 688 CURVE",
"348 688 LINE SMOOTH",
"467 688 OFFCURVE",
"521 634 OFFCURVE",
"521 539 CURVE SMOOTH",
"521 447 OFFCURVE",
"458 379 OFFCURVE",
"341 379 CURVE SMOOTH",
"242 379 LINE"
);
}
);
width = 707;
}
);
leftKerningGroup = B;
note = cid00051;
rightKerningGroup = R;
unicode = 0052;
},
{
glyphname = S;
lastChange = "2019-12-26 05:49:10 +0000";
layers = (
{
hints = (
{
horizontal = 1;
place = "{-16, 45}";
type = Stem;
},
{
horizontal = 1;
place = "{701, 45}";
type = Stem;
},
{
place = "{64, 76}";
type = Stem;
},
{
place = "{434, 76}";
type = Stem;
},
{
place = "{51.5, 53.5}";
type = Stem;
}
);
layerId = "AODEWCWT-RYM3-6S2H-YGKD-BAMV0KWXFSSX";
paths = (
{
closed = 1;
nodes = (
"403 -16 OFFCURVE",
"510 61 OFFCURVE",
"510 188 CURVE SMOOTH",
"510 289 OFFCURVE",
"458 349 OFFCURVE",
"310 408 CURVE SMOOTH",
"267 424 LINE SMOOTH",
"187 455 OFFCURVE",
"140 498 OFFCURVE",
"140 571 CURVE SMOOTH",
"140 657 OFFCURVE",
"207 701 OFFCURVE",
"298 701 CURVE SMOOTH",
"335 701 OFFCURVE",
"364 694 OFFCURVE",
"394 676 CURVE",
"418 549 LINE",
"471 549 LINE",
"476 689 LINE",
"428 724 OFFCURVE",
"374 746 OFFCURVE",
"300 746 CURVE SMOOTH",
"168 746 OFFCURVE",
"64 675 OFFCURVE",
"64 550 CURVE SMOOTH",
"64 445 OFFCURVE",
"135 382 OFFCURVE",
"247 337 CURVE SMOOTH",
"288 321 LINE SMOOTH",
"392 279 OFFCURVE",
"434 243 OFFCURVE",
"434 171 CURVE SMOOTH",
"434 78 OFFCURVE",
"361 29 OFFCURVE",
"252 29 CURVE SMOOTH",
"201 29 OFFCURVE",
"167 38 OFFCURVE",
"129 60 CURVE",
"105 192 LINE",
"54 192 LINE",
"49 42 LINE",
"97 11 OFFCURVE",
"175 -16 OFFCURVE",
"257 -16 CURVE SMOOTH"
);
}
);
width = 557;
}
);
leftKerningGroup = S;
note = cid00052;
rightKerningGroup = S;
unicode = 0053;
},
{
glyphname = T;
lastChange = "2019-12-26 05:49:10 +0000";
layers = (
{
hints = (
{
horizontal = 1;
place = "{0, 41.5}";
type = Stem;
},
{
horizontal = 1;
place = "{685, 44}";
type = Stem;
},
{
place = "{285, 83}";
type = Stem;
},
{
horizontal = 1;
place = "{539, 190}";
type = Stem;
},
{
place = "{26, 74}";
type = Stem;
}
);
layerId = "AODEWCWT-RYM3-6S2H-YGKD-BAMV0KWXFSSX";
paths = (
{
closed = 1;
nodes = (
"486 0 LINE",
"486 36 LINE",
"371 47 LINE",
"368 143 OFFCURVE",
"368 241 OFFCURVE",
"368 337 CURVE SMOOTH",
"368 392 LINE SMOOTH",
"368 492 OFFCURVE",
"368 590 OFFCURVE",
"371 685 CURVE",
"554 685 LINE",
"582 539 LINE",
"632 539 LINE",
"622 729 LINE",
"30 729 LINE",
"22 539 LINE",
"72 539 LINE",
"100 685 LINE",
"283 685 LINE",
"285 589 OFFCURVE",
"285 490 OFFCURVE",
"285 392 CURVE SMOOTH",
"285 337 LINE SMOOTH",
"285 239 OFFCURVE",
"285 142 OFFCURVE",
"283 47 CURVE",
"167 36 LINE",
"167 0 LINE"
);
}
);
width = 653;
}
);
leftKerningGroup = T;
note = cid00053;
rightKerningGroup = T;
unicode = 0054;
},
{
glyphname = U;
lastChange = "2019-12-26 05:49:10 +0000";
layers = (
{
hints = (
{
horizontal = 1;
place = "{-16, 64}";
type = Stem;
},
{
horizontal = 1;
place = "{688, 41}";
type = Stem;
},
{
place = "{141, 85}";
type = Stem;
},
{
place = "{611, 44}";
type = Stem;
},
{
horizontal = 1;
place = "{694, 35}";
type = Stem;
},
{
horizontal = 1;
place = "{689, 40}";
type = Stem;
}
);
layerId = "AODEWCWT-RYM3-6S2H-YGKD-BAMV0KWXFSSX";
paths = (
{
closed = 1;
nodes = (
"553 -16 OFFCURVE",
"655 74 OFFCURVE",
"655 290 CURVE SMOOTH",
"657 682 LINE",
"752 694 LINE",
"752 729 LINE",
"492 729 LINE",
"492 694 LINE",
"610 680 LINE",
"611 318 LINE SMOOTH",
"611 122 OFFCURVE",
"547 48 OFFCURVE",
"414 48 CURVE SMOOTH",
"299 48 OFFCURVE",
"226 111 OFFCURVE",
"226 299 CURVE SMOOTH",
"226 391 LINE SMOOTH",
"226 490 OFFCURVE",
"226 587 OFFCURVE",
"227 682 CURVE",
"340 694 LINE",
"340 729 LINE",
"46 729 LINE",
"46 694 LINE",
"139 684 LINE",
"141 587 OFFCURVE",
"141 489 OFFCURVE",
"141 391 CURVE SMOOTH",
"141 275 LINE SMOOTH",
"141 71 OFFCURVE",
"246 -16 OFFCURVE",
"401 -16 CURVE SMOOTH"
);
}
);
width = 792;
}
);
leftKerningGroup = U;
note = cid00054;
rightKerningGroup = U;
unicode = 0055;
},
{
glyphname = V;
lastChange = "2019-12-26 05:49:10 +0000";
layers = (
{
hints = (
{
horizontal = 1;
place = "{-8, 21}";
target = up;
type = BottomGhost;
},
{
horizontal = 1;
place = "{685.5, 43.5}";
type = Stem;
},
{
place = "{12, 704}";
type = Stem;
},
{
horizontal = 1;
place = "{685, 44}";
type = Stem;
},
{
horizontal = 1;
place = "{689, 40}";
type = Stem;
},
{
horizontal = 1;
place = "{695, 34}";
type = Stem;
}
);
layerId = "AODEWCWT-RYM3-6S2H-YGKD-BAMV0KWXFSSX";
paths = (
{
closed = 1;
nodes = (
"390 -8 LINE",
"620 682 LINE",
"716 695 LINE",
"716 729 LINE",
"466 729 LINE",
"466 690 LINE",
"570 680 LINE",
"386 117 LINE",
"190 681 LINE",
"299 690 LINE",
"299 729 LINE",
"12 729 LINE",
"12 694 LINE",
"100 684 LINE",
"352 -8 LINE"
);
}
);
width = 726;
}
);
leftKerningGroup = V;
note = cid00055;
rightKerningGroup = V;
unicode = 0056;
},
{
glyphname = W;
lastChange = "2019-12-26 05:49:10 +0000";
layers = (
{
hints = (
{
horizontal = 1;
place = "{-8, 21}";
target = up;
type = BottomGhost;
},
{
horizontal = 1;
place = "{688, 41}";
type = Stem;
},
{
place = "{15, 1020}";
type = Stem;
},
{
horizontal = 1;
place = "{694, 35}";
type = Stem;
},
{
horizontal = 1;
place = "{689, 40}";
type = Stem;
}
);
layerId = "AODEWCWT-RYM3-6S2H-YGKD-BAMV0KWXFSSX";
paths = (
{
closed = 1;
nodes = (
"342 -8 LINE",
"525 583 LINE",
"716 -8 LINE",
"755 -8 LINE",
"939 681 LINE",
"1035 694 LINE",
"1035 729 LINE",
"787 729 LINE",
"787 694 LINE",
"891 680 LINE",
"747 136 LINE",
"576 681 LINE",
"687 694 LINE",
"687 729 LINE",
"404 729 LINE",
"404 694 LINE",
"514 682 LINE",
"340 140 LINE",
"196 682 LINE",
"299 694 LINE",
"299 729 LINE",
"15 729 LINE",
"15 694 LINE",
"109 684 LINE",
"304 -8 LINE"
);
}
);
width = 1047;
}
);
leftKerningGroup = W;
note = cid00056;
rightKerningGroup = W;
unicode = 0057;
},
{
glyphname = X;
lastChange = "2019-12-26 05:49:10 +0000";
layers = (
{
hints = (
{
horizontal = 1;
place = "{0, 41}";
type = Stem;
},
{
horizontal = 1;
place = "{688.5, 40.5}";
type = Stem;
},
{
place = "{15, 673}";
type = Stem;
},
{
horizontal = 1;
place = "{694, 35}";
type = Stem;
}
);
layerId = "AODEWCWT-RYM3-6S2H-YGKD-BAMV0KWXFSSX";
paths = (
{
closed = 1;
nodes = (
"263 0 LINE",
"263 36 LINE",
"168 49 LINE",
"336 321 LINE",
"499 46 LINE",
"396 36 LINE",
"396 0 LINE",
"688 0 LINE",
"688 36 LINE",
"594 46 LINE",
"387 394 LINE",
"571 681 LINE",
"669 694 LINE",
"669 729 LINE",
"420 729 LINE",
"420 694 LINE",
"520 681 LINE",
"366 429 LINE",
"214 683 LINE",
"318 694 LINE",
"318 729 LINE",
"24 729 LINE",
"24 694 LINE",
"120 683 LINE",
"315 356 LINE",
"118 49 LINE",
"15 36 LINE",
"15 0 LINE"
);
}
);
width = 702;
}
);
leftKerningGroup = X;
note = cid00057;
rightKerningGroup = X;
unicode = 0058;
},
{
glyphname = Y;
lastChange = "2019-12-26 05:49:10 +0000";
layers = (
{
hints = (
{
horizontal = 1;
place = "{0, 41.5}";
type = Stem;
},
{
horizontal = 1;
place = "{694, 35}";
type = Stem;
},
{
place = "{303, 85}";
type = Stem;
},
{
horizontal = 1;
place = "{688, 41}";
type = Stem;
},
{
horizontal = 1;
place = "{689, 40}";
type = Stem;
}
);
layerId = "AODEWCWT-RYM3-6S2H-YGKD-BAMV0KWXFSSX";
paths = (
{
closed = 1;
nodes = (
"505 0 LINE",
"505 36 LINE",
"390 47 LINE",
"388 119 OFFCURVE",
"388 190 OFFCURVE",
"388 288 CURVE",
"579 680 LINE",
"675 694 LINE",
"675 729 LINE",
"427 729 LINE",
"427 694 LINE",
"532 681 LINE",
"367 334 LINE",
"202 682 LINE",
"311 694 LINE",
"311 729 LINE",
"21 729 LINE",
"21 694 LINE",
"106 684 LINE",
"303 287 LINE",
"303 189 OFFCURVE",
"303 118 OFFCURVE",
"301 47 CURVE",
"186 36 LINE",
"186 0 LINE"
);
}
);
width = 688;
}
);
leftKerningGroup = Y;
note = cid00058;
rightKerningGroup = Y;
unicode = 0059;
},
{
glyphname = Z;
lastChange = "2019-12-26 05:49:10 +0000";
layers = (
{
hints = (
{
horizontal = 1;
place = "{0, 192}";
type = Stem;
},
{
horizontal = 1;
place = "{685, 44}";
type = Stem;
},
{
place = "{490, 80}";
type = Stem;
},
{
horizontal = 1;
place = "{0, 45}";
type = Stem;
},
{
horizontal = 1;
place = "{539, 190}";
type = Stem;
}
);
layerId = "AODEWCWT-RYM3-6S2H-YGKD-BAMV0KWXFSSX";
paths = (
{
closed = 1;
nodes = (
"566 0 LINE",
"574 192 LINE",
"522 192 LINE",
"490 45 LINE",
"123 45 LINE",
"552 696 LINE",
"552 729 LINE",
"46 729 LINE",
"37 539 LINE",
"90 539 LINE",
"121 685 LINE",
"456 685 LINE",
"24 35 LINE",
"24 0 LINE"
);
}
);
width = 599;
}
);
leftKerningGroup = Z;
note = cid00059;
rightKerningGroup = Z;
unicode = 005A;
},
{
glyphname = bracketleft;
lastChange = "2019-12-26 05:49:10 +0000";
layers = (
{
hints = (
{
horizontal = 1;
place = "{-173, 43}";
type = Stem;
},
{
horizontal = 1;
place = "{734, 43}";
type = Stem;
},
{
place = "{112, 66}";
type = Stem;
}
);
layerId = "AODEWCWT-RYM3-6S2H-YGKD-BAMV0KWXFSSX";
paths = (
{
closed = 1;
nodes = (
"303 -173 LINE",
"303 -136 LINE",
"181 -124 LINE",
"178 -25 OFFCURVE",
"178 74 OFFCURVE",
"178 172 CURVE SMOOTH",
"178 433 LINE SMOOTH",
"178 532 OFFCURVE",
"178 631 OFFCURVE",
"180 728 CURVE",
"303 740 LINE",
"303 777 LINE",
"109 777 LINE",
"112 663 OFFCURVE",
"112 547 OFFCURVE",
"112 433 CURVE SMOOTH",
"112 172 LINE SMOOTH",
"112 55 OFFCURVE",
"112 -61 OFFCURVE",
"109 -173 CURVE"
);
}
);
width = 341;
}
);
leftKerningGroup = parenleft;
note = cid00060;
rightKerningGroup = parenleft;
unicode = 005B;
},
{
glyphname = backslash;
lastChange = "2019-12-26 02:40:52 +0000";
layers = (
{
hints = (
{
horizontal = 1;
place = "{-174, 21}";
target = up;
type = BottomGhost;
},
{
place = "{3, 342}";
type = Stem;
}
);
layerId = "AODEWCWT-RYM3-6S2H-YGKD-BAMV0KWXFSSX";
paths = (
{
closed = 1;
nodes = (
"345 -174 LINE",
"53 772 LINE",
"3 772 LINE",
"293 -174 LINE"
);
}
);
width = 348;
}
);
leftKerningGroup = backslash;
note = cid00061;
rightKerningGroup = backslash;
unicode = 005C;
},
{
glyphname = bracketright;
lastChange = "2019-12-26 05:49:10 +0000";
layers = (
{
hints = (
{
horizontal = 1;
place = "{-173, 43}";
type = Stem;
},
{
horizontal = 1;
place = "{734, 43}";
type = Stem;
},
{
place = "{163, 66}";
type = Stem;
}
);
layerId = "AODEWCWT-RYM3-6S2H-YGKD-BAMV0KWXFSSX";
paths = (
{
closed = 1;
nodes = (
"233 -173 LINE",
"229 -59 OFFCURVE",
"229 58 OFFCURVE",
"229 172 CURVE SMOOTH",
"229 433 LINE SMOOTH",
"229 549 OFFCURVE",
"229 665 OFFCURVE",
"233 777 CURVE",
"38 777 LINE",
"38 740 LINE",
"161 728 LINE",
"163 630 OFFCURVE",
"163 531 OFFCURVE",
"163 433 CURVE SMOOTH",
"163 172 LINE SMOOTH",
"163 72 OFFCURVE",
"163 -27 OFFCURVE",
"161 -124 CURVE",
"38 -136 LINE",
"38 -173 LINE"
);
}
);
width = 341;
}
);
leftKerningGroup = parenright;
note = cid00062;
rightKerningGroup = parenright;
unicode = 005D;
},
{
glyphname = asciicircum;
lastChange = "2019-12-26 05:49:10 +0000";
layers = (
{
hints = (
{
horizontal = 1;
place = "{525, -20}";
target = down;
type = TopGhost;
},
{
place = "{99, 381}";
type = Stem;
},
{
horizontal = 1;
place = "{473, 52}";
type = Stem;
}
);
layerId = "AODEWCWT-RYM3-6S2H-YGKD-BAMV0KWXFSSX";
paths = (
{
closed = 1;
nodes = (
"289 473 LINE",
"443 229 LINE",
"480 258 LINE",
"315 525 LINE",
"262 525 LINE",
"99 258 LINE",
"137 229 LINE"
);
}
);
width = 576;
}
);
note = cid00063;
unicode = 005E;
},
{
glyphname = underscore;
lastChange = "2019-12-26 05:49:10 +0000";
layers = (
{
hints = (
{
horizontal = 1;
place = "{-64, 57}";
type = Stem;
},
{
place = "{43, 469}";
type = Stem;
}
);
layerId = "AODEWCWT-RYM3-6S2H-YGKD-BAMV0KWXFSSX";
paths = (
{
closed = 1;
nodes = (
"512 -64 LINE",
"512 -7 LINE",
"43 -7 LINE",
"43 -64 LINE"
);
}
);
width = 555;
}
);
leftKerningGroup = underscore;
note = cid00064;
rightKerningGroup = underscore;
unicode = 005F;
},
{
glyphname = grave;
lastChange = "2019-12-26 05:49:15 +0000";
layers = (
{
hints = (
{
horizontal = 1;
place = "{608, 211}";
type = Stem;
},
{
place = "{88, 188}";
type = Stem;
}
);
layerId = "AODEWCWT-RYM3-6S2H-YGKD-BAMV0KWXFSSX";
paths = (
{
closed = 1;
nodes = (
"276 624 LINE",
"242 676 OFFCURVE",
"210 727 OFFCURVE",
"177 776 CURVE SMOOTH",
"158 808 OFFCURVE",
"141 819 OFFCURVE",
"124 819 CURVE SMOOTH",
"105 819 OFFCURVE",
"88 807 OFFCURVE",
"88 783 CURVE SMOOTH",
"88 770 OFFCURVE",
"96 753 OFFCURVE",
"124 728 CURVE SMOOTH",
"165 690 OFFCURVE",
"209 649 OFFCURVE",
"254 608 CURVE"
);
}
);
width = 435;
}
);
note = cid00065;
unicode = 0060;
},
{
glyphname = a;
lastChange = "2019-12-26 05:49:15 +0000";
layers = (
{
hints = (
{
horizontal = 1;
place = "{-14, 59}";
type = Stem;
},
{
horizontal = 1;
place = "{488, 40}";
type = Stem;
},
{
place = "{52, 81}";
type = Stem;
},
{
place = "{360, 76}";
type = Stem;
},
{
horizontal = 1;
place = "{-12, 47}";
type = Stem;
},
{
place = "{362, 74}";
type = Stem;
}
);
layerId = "AODEWCWT-RYM3-6S2H-YGKD-BAMV0KWXFSSX";
paths = (
{
closed = 1;
nodes = (
"261 -14 OFFCURVE",
"301 15 OFFCURVE",
"362 77 CURVE",
"371 22 OFFCURVE",
"403 -12 OFFCURVE",
"454 -12 CURVE SMOOTH",
"489 -12 OFFCURVE",
"517 2 OFFCURVE",
"541 38 CURVE",
"524 59 LINE",
"509 43 OFFCURVE",
"497 35 OFFCURVE",
"479 35 CURVE SMOOTH",
"452 35 OFFCURVE",
"436 53 OFFCURVE",
"436 111 CURVE SMOOTH",
"436 348 LINE SMOOTH",
"436 478 OFFCURVE",
"382 528 OFFCURVE",
"271 528 CURVE SMOOTH",
"165 528 OFFCURVE",
"87 479 OFFCURVE",
"66 397 CURVE",
"68 373 OFFCURVE",
"85 359 OFFCURVE",
"110 359 CURVE SMOOTH",
"136 359 OFFCURVE",
"151 374 OFFCURVE",
"159 403 CURVE SMOOTH",
"181 477 LINE",
"207 486 OFFCURVE",
"230 488 OFFCURVE",
"251 488 CURVE SMOOTH",
"327 488 OFFCURVE",
"360 461 OFFCURVE",
"360 351 CURVE SMOOTH",
"360 319 LINE",
"314 309 OFFCURVE",
"266 295 OFFCURVE",
"227 283 CURVE SMOOTH",
"91 234 OFFCURVE",
"52 185 OFFCURVE",
"52 118 CURVE SMOOTH",
"52 32 OFFCURVE",
"116 -14 OFFCURVE",
"196 -14 CURVE SMOOTH"
);
},
{
closed = 1;
nodes = (
"171 45 OFFCURVE",
"133 72 OFFCURVE",
"133 132 CURVE SMOOTH",
"133 172 OFFCURVE",
"151 214 OFFCURVE",
"248 251 CURVE SMOOTH",
"275 262 OFFCURVE",
"319 276 OFFCURVE",
"360 287 CURVE",
"360 114 LINE",
"296 63 OFFCURVE",
"267 45 OFFCURVE",
"225 45 CURVE SMOOTH"
);
}
);
width = 552;
}
);
leftKerningGroup = a;
note = cid00066;
rightKerningGroup = a;
unicode = 0061;
},
{
glyphname = b;
lastChange = "2019-12-26 05:49:10 +0000";
layers = (
{
hints = (
{
horizontal = 1;
place = "{-14, 51}";
type = Stem;
},
{
horizontal = 1;
place = "{478, 50}";
type = Stem;
},
{
place = "{125, 76}";
type = Stem;
},
{
place = "{495, 81}";
type = Stem;
},
{
horizontal = 1;
place = "{-10, 55}";
type = Stem;
},
{
place = "{125, 73}";
type = Stem;
},
{
horizontal = 1;
place = "{0, 21}";
target = up;
type = BottomGhost;
},
{
horizontal = 1;
place = "{-10, 21}";
target = up;
type = BottomGhost;
}
);
layerId = "AODEWCWT-RYM3-6S2H-YGKD-BAMV0KWXFSSX";
paths = (
{
closed = 1;
nodes = (
"485 -14 OFFCURVE",
"576 98 OFFCURVE",
"576 263 CURVE SMOOTH",
"576 427 OFFCURVE",
"487 528 OFFCURVE",
"368 528 CURVE SMOOTH",
"310 528 OFFCURVE",
"251 504 OFFCURVE",
"198 445 CURVE",
"198 644 LINE",
"202 798 LINE",
"187 807 LINE",
"34 765 LINE",
"34 734 LINE",
"125 725 LINE",
"125 228 LINE SMOOTH",
"125 177 OFFCURVE",
"124 100 OFFCURVE",
"123 45 CURVE",
"37 32 LINE",
"37 0 LINE",
"191 -10 LINE",
"199 65 LINE",
"249 4 OFFCURVE",
"304 -14 OFFCURVE",
"355 -14 CURVE SMOOTH"
);
},
{
closed = 1;
nodes = (
"296 37 OFFCURVE",
"248 55 OFFCURVE",
"201 101 CURVE",
"201 411 LINE",
"263 468 OFFCURVE",
"307 478 OFFCURVE",
"345 478 CURVE SMOOTH",
"433 478 OFFCURVE",
"495 402 OFFCURVE",
"495 257 CURVE SMOOTH",
"495 102 OFFCURVE",
"423 37 OFFCURVE",
"340 37 CURVE SMOOTH"
);
}
);
width = 627;
}
);
leftKerningGroup = b;
note = cid00067;
rightKerningGroup = b;
unicode = 0062;
},
{
glyphname = c;
lastChange = "2019-12-26 05:49:10 +0000";
layers = (
{
hints = (
{
horizontal = 1;
place = "{-14, 56}";
type = Stem;
},
{
horizontal = 1;
place = "{488, 40}";
type = Stem;
},
{
place = "{49, 79}";
type = Stem;
}
);
layerId = "AODEWCWT-RYM3-6S2H-YGKD-BAMV0KWXFSSX";
paths = (
{
closed = 1;
nodes = (
"389 -14 OFFCURVE",
"455 34 OFFCURVE",
"489 114 CURVE",
"468 124 LINE",
"432 71 OFFCURVE",
"375 42 OFFCURVE",
"312 42 CURVE SMOOTH",
"204 42 OFFCURVE",
"128 124 OFFCURVE",
"128 264 CURVE SMOOTH",
"128 405 OFFCURVE",
"200 488 OFFCURVE",
"301 488 CURVE SMOOTH",
"322 488 OFFCURVE",
"345 484 OFFCURVE",
"369 476 CURVE",
"391 401 LINE SMOOTH",
"398 376 OFFCURVE",
"412 358 OFFCURVE",
"442 358 CURVE SMOOTH",
"466 358 OFFCURVE",
"482 370 OFFCURVE",
"486 395 CURVE",
"467 474 OFFCURVE",
"390 528 OFFCURVE",
"298 528 CURVE SMOOTH",
"168 528 OFFCURVE",
"49 427 OFFCURVE",
"49 257 CURVE SMOOTH",
"49 91 OFFCURVE",
"145 -14 OFFCURVE",
"291 -14 CURVE SMOOTH"
);
}
);
width = 529;
}
);
leftKerningGroup = c;
note = cid00068;
rightKerningGroup = c;
unicode = 0063;
},
{
glyphname = d;
lastChange = "2019-12-26 05:49:10 +0000";
layers = (
{
hints = (
{
horizontal = 1;
place = "{-14, 50}";
type = Stem;
},
{
horizontal = 1;
place = "{478, 50}";
type = Stem;
},
{
place = "{51, 81}";
type = Stem;
},
{
place = "{426, 76}";
type = Stem;
},
{
horizontal = 1;
place = "{-10, 47.5}";
type = Stem;
},
{
place = "{429, 73}";
type = Stem;
},
{
place = "{431, 71}";
type = Stem;
},
{
horizontal = 1;
place = "{0, 21}";
target = up;
type = BottomGhost;
}
);
layerId = "AODEWCWT-RYM3-6S2H-YGKD-BAMV0KWXFSSX";
paths = (
{
closed = 1;
nodes = (
"339 -14 OFFCURVE",
"388 15 OFFCURVE",
"428 66 CURVE",
"434 -10 LINE",
"598 0 LINE",
"598 32 LINE",
"502 43 LINE",
"502 645 LINE",
"505 798 LINE",
"491 807 LINE",
"335 765 LINE",
"335 734 LINE",
"429 726 LINE",
"429 455 LINE",
"382 510 OFFCURVE",
"332 528 OFFCURVE",
"283 528 CURVE SMOOTH",
"149 528 OFFCURVE",
"51 420 OFFCURVE",
"51 252 CURVE SMOOTH",
"51 96 OFFCURVE",
"141 -14 OFFCURVE",
"272 -14 CURVE SMOOTH"
);
},
{
closed = 1;
nodes = (
"201 36 OFFCURVE",
"132 103 OFFCURVE",
"132 254 CURVE SMOOTH",
"132 412 OFFCURVE",
"207 478 OFFCURVE",
"295 478 CURVE SMOOTH",
"335 478 OFFCURVE",
"376 463 OFFCURVE",
"426 416 CURVE",
"426 106 LINE",
"381 55 OFFCURVE",
"343 36 OFFCURVE",
"292 36 CURVE SMOOTH"
);
}
);
width = 617;
}
);
leftKerningGroup = c;
note = cid00069;
rightKerningGroup = d;
unicode = 0064;
},
{
glyphname = e;
lastChange = "2019-12-26 05:49:10 +0000";
layers = (
{
hints = (
{
horizontal = 1;
place = "{-14, 56}";
type = Stem;
},
{
horizontal = 1;
place = "{262.5, 38.5}";
type = Stem;
},
{
horizontal = 1;
place = "{488, 40}";
type = Stem;
},
{
place = "{51, 82}";
type = Stem;
},
{
place = "{421, 75}";
type = Stem;
},
{
place = "{51, 81}";
type = Stem;
}
);
layerId = "AODEWCWT-RYM3-6S2H-YGKD-BAMV0KWXFSSX";
paths = (
{
closed = 1;
nodes = (
"385 -14 OFFCURVE",
"454 32 OFFCURVE",
"495 104 CURVE",
"474 120 LINE",
"435 73 OFFCURVE",
"388 42 OFFCURVE",
"317 42 CURVE SMOOTH",
"211 42 OFFCURVE",
"133 115 OFFCURVE",
"132 263 CURVE",
"489 262 LINE",
"494 277 OFFCURVE",
"496 298 OFFCURVE",
"496 324 CURVE SMOOTH",
"496 449 OFFCURVE",
"412 528 OFFCURVE",
"296 528 CURVE SMOOTH",
"164 528 OFFCURVE",
"51 421 OFFCURVE",
"51 254 CURVE SMOOTH",
"51 83 OFFCURVE",
"152 -14 OFFCURVE",
"292 -14 CURVE SMOOTH"
);
},
{
closed = 1;
nodes = (
"145 428 OFFCURVE",
"218 488 OFFCURVE",
"291 488 CURVE SMOOTH",
"368 488 OFFCURVE",
"421 425 OFFCURVE",
"421 355 CURVE SMOOTH",
"421 323 OFFCURVE",
"411 301 OFFCURVE",
"367 301 CURVE SMOOTH",
"133 301 LINE"
);
}
);
width = 549;
}
);
leftKerningGroup = c;
note = cid00070;
rightKerningGroup = e;
unicode = 0065;
},
{
glyphname = f;
lastChange = "2019-12-26 05:49:15 +0000";
layers = (
{
hints = (
{
horizontal = 1;
place = "{0, 32}";
type = Stem;
},
{
horizontal = 1;
place = "{468, 49}";
type = Stem;
},
{
place = "{133, 76}";
type = Stem;
},
{
horizontal = 1;
place = "{468, 46}";
type = Stem;
},
{
horizontal = 1;
place = "{722, 95}";
type = Stem;
},
{
place = "{133, 74}";
type = Stem;
},
{
place = "{134, 73}";
type = Stem;
}
);
layerId = "AODEWCWT-RYM3-6S2H-YGKD-BAMV0KWXFSSX";
paths = (
{
closed = 1;
nodes = (
"313 0 LINE",
"313 32 LINE",
"211 45 LINE",
"210 106 OFFCURVE",
"209 167 OFFCURVE",
"209 228 CURVE SMOOTH",
"209 468 LINE",
"364 468 LINE",
"364 514 LINE",
"207 514 LINE",
"204 631 OFFCURVE",
"220 692 OFFCURVE",
"247 732 CURVE SMOOTH",
"259 752 OFFCURVE",
"276 767 OFFCURVE",
"294 776 CURVE",
"323 753 LINE SMOOTH",
"349 733 OFFCURVE",
"372 722 OFFCURVE",
"398 722 CURVE SMOOTH",
"432 722 OFFCURVE",
"452 740 OFFCURVE",
"454 764 CURVE",
"443 800 OFFCURVE",
"403 817 OFFCURVE",
"355 817 CURVE SMOOTH",
"308 817 OFFCURVE",
"254 801 OFFCURVE",
"210 752 CURVE SMOOTH",
"162 702 OFFCURVE",
"141 634 OFFCURVE",
"134 517 CURVE",
"37 505 LINE",
"37 468 LINE",
"133 468 LINE",
"133 228 LINE SMOOTH",
"133 167 OFFCURVE",
"132 106 OFFCURVE",
"131 45 CURVE",
"38 32 LINE",
"38 0 LINE"
);
}
);
width = 385;
}
);
leftKerningGroup = f;
note = cid00071;
rightKerningGroup = f;
unicode = 0066;
},
{
glyphname = g;
lastChange = "2019-12-26 05:49:10 +0000";
layers = (
{
hints = (
{
horizontal = 1;
place = "{-262, 41}";
type = Stem;
},
{
horizontal = 1;
place = "{-13, 68}";
type = Stem;
},
{
horizontal = 1;
place = "{171, 36}";
type = Stem;
},
{
horizontal = 1;
place = "{492, 36}";
type = Stem;
},
{
place = "{68, 74}";
type = Stem;
},
{
place = "{377, 74}";
type = Stem;
},
{
place = "{516, 17}";
type = Stem;
},
{
place = "{43, 75}";
type = Stem;
},
{
place = "{459, 68}";
type = Stem;
},
{
horizontal = 1;
place = "{-10, 21}";
target = up;
type = BottomGhost;
},
{
horizontal = 1;
place = "{516, -20}";
target = down;
type = TopGhost;
},
{
horizontal = 1;
place = "{457.5, 30.5}";
type = Stem;
},
{
horizontal = 1;
place = "{-3, 21}";
target = up;
type = BottomGhost;
},
{
place = "{78, 64}";
type = Stem;
},
{
horizontal = 1;
place = "{457.5, 69.5}";
type = Stem;
}
);
layerId = "AODEWCWT-RYM3-6S2H-YGKD-BAMV0KWXFSSX";
paths = (
{
closed = 1;
nodes = (
"440 -262 OFFCURVE",
"527 -171 OFFCURVE",
"527 -78 CURVE SMOOTH",
"527 8 OFFCURVE",
"473 55 OFFCURVE",
"362 55 CURVE SMOOTH",
"215 55 LINE SMOOTH",
"159 55 OFFCURVE",
"142 77 OFFCURVE",
"142 108 CURVE SMOOTH",
"142 135 OFFCURVE",
"154 157 OFFCURVE",
"176 185 CURVE",
"201 176 OFFCURVE",
"229 171 OFFCURVE",
"260 171 CURVE SMOOTH",
"370 171 OFFCURVE",
"451 236 OFFCURVE",
"451 350 CURVE SMOOTH",
"451 394 OFFCURVE",
"440 430 OFFCURVE",
"419 458 CURVE",
"533 457 LINE",
"533 516 LINE",
"516 527 LINE",
"392 488 LINE",
"358 514 OFFCURVE",
"313 528 OFFCURVE",
"261 528 CURVE SMOOTH",
"150 528 OFFCURVE",
"68 463 OFFCURVE",
"68 350 CURVE SMOOTH",
"68 277 OFFCURVE",
"100 225 OFFCURVE",
"151 196 CURVE",
"98 148 OFFCURVE",
"78 113 OFFCURVE",
"78 77 CURVE SMOOTH",
"78 36 OFFCURVE",
"104 9 OFFCURVE",
"148 -3 CURVE",
"73 -39 OFFCURVE",
"43 -78 OFFCURVE",
"43 -126 CURVE SMOOTH",
"43 -207 OFFCURVE",
"115 -262 OFFCURVE",
"267 -262 CURVE SMOOTH"
);
},
{
closed = 1;
nodes = (
"177 -221 OFFCURVE",
"118 -187 OFFCURVE",
"118 -113 CURVE SMOOTH",
"118 -72 OFFCURVE",
"134 -43 OFFCURVE",
"168 -10 CURVE",
"184 -12 OFFCURVE",
"201 -13 OFFCURVE",
"221 -13 CURVE SMOOTH",
"349 -13 LINE SMOOTH",
"429 -13 OFFCURVE",
"459 -51 OFFCURVE",
"459 -101 CURVE SMOOTH",
"459 -167 OFFCURVE",
"393 -221 OFFCURVE",
"268 -221 CURVE SMOOTH"
);
},
{
closed = 1;
nodes = (
"186 207 OFFCURVE",
"142 264 OFFCURVE",
"142 349 CURVE SMOOTH",
"142 434 OFFCURVE",
"188 492 OFFCURVE",
"261 492 CURVE SMOOTH",
"334 492 OFFCURVE",
"377 435 OFFCURVE",
"377 352 CURVE SMOOTH",
"377 267 OFFCURVE",
"332 207 OFFCURVE",
"258 207 CURVE SMOOTH"
);
}
);
width = 560;
}
);
leftKerningGroup = g;
note = cid00072;
rightKerningGroup = g;
unicode = 0067;
},
{
glyphname = h;
lastChange = "2019-12-26 05:49:10 +0000";
layers = (
{
hints = (
{
horizontal = 1;
place = "{0, 32}";
type = Stem;
},
{
horizontal = 1;
place = "{466, 62}";
type = Stem;
},
{
place = "{125, 73}";
type = Stem;
},
{
place = "{463, 75}";
type = Stem;
},
{
place = "{125, 76}";
type = Stem;
}
);
layerId = "AODEWCWT-RYM3-6S2H-YGKD-BAMV0KWXFSSX";
paths = (
{
closed = 1;
nodes = (
"282 0 LINE",
"282 32 LINE",
"203 44 LINE",
"202 100 OFFCURVE",
"201 177 OFFCURVE",
"201 228 CURVE SMOOTH",
"201 386 LINE",
"266 448 OFFCURVE",
"317 466 OFFCURVE",
"367 466 CURVE SMOOTH",
"432 466 OFFCURVE",
"463 432 OFFCURVE",
"463 328 CURVE SMOOTH",
"463 228 LINE SMOOTH",
"463 176 OFFCURVE",
"462 100 OFFCURVE",
"461 44 CURVE",
"376 32 LINE",
"376 0 LINE",
"620 0 LINE",
"620 32 LINE",
"540 45 LINE",
"539 100 OFFCURVE",
"538 176 OFFCURVE",
"538 228 CURVE SMOOTH",
"538 332 LINE SMOOTH",
"538 474 OFFCURVE",
"492 528 OFFCURVE",
"401 528 CURVE SMOOTH",
"332 528 OFFCURVE",
"256 487 OFFCURVE",
"198 423 CURVE",
"198 644 LINE",
"202 798 LINE",
"187 807 LINE",
"34 765 LINE",
"34 734 LINE",
"125 726 LINE",
"125 228 LINE SMOOTH",
"125 177 OFFCURVE",
"124 100 OFFCURVE",
"123 45 CURVE",
"37 32 LINE",
"37 0 LINE"
);
}
);
width = 655;
}
);
leftKerningGroup = b;
note = cid00073;
rightKerningGroup = h;
unicode = 0068;
},
{
glyphname = i;
lastChange = "2019-12-26 05:49:10 +0000";
layers = (
{
hints = (
{
horizontal = 1;
place = "{0, 32}";
type = Stem;
},
{
horizontal = 1;
place = "{527, -20}";
target = down;
type = TopGhost;
},
{
horizontal = 1;
place = "{663, 122}";
type = Stem;
},
{
place = "{101, 127}";
type = Stem;
},
{
horizontal = 1;
place = "{517, -20}";
target = down;
type = TopGhost;
},
{
place = "{129, 75}";
type = Stem;
}
);
layerId = "AODEWCWT-RYM3-6S2H-YGKD-BAMV0KWXFSSX";
paths = (
{
closed = 1;
nodes = (
"285 0 LINE",
"285 32 LINE",
"206 45 LINE",
"205 100 OFFCURVE",
"204 177 OFFCURVE",
"204 228 CURVE SMOOTH",
"204 375 LINE",
"207 517 LINE",
"192 527 LINE",
"35 475 LINE",
"35 442 LINE",
"127 436 LINE",
"129 386 OFFCURVE",
"129 346 OFFCURVE",
"129 284 CURVE SMOOTH",
"129 228 LINE SMOOTH",
"129 177 OFFCURVE",
"128 100 OFFCURVE",
"127 45 CURVE",
"41 32 LINE",
"41 0 LINE"
);
},
{
closed = 1;
nodes = (
"200 663 OFFCURVE",
"228 688 OFFCURVE",
"228 724 CURVE SMOOTH",
"228 761 OFFCURVE",
"200 785 OFFCURVE",
"164 785 CURVE SMOOTH",
"129 785 OFFCURVE",
"101 761 OFFCURVE",
"101 724 CURVE SMOOTH",
"101 688 OFFCURVE",
"129 663 OFFCURVE",
"164 663 CURVE SMOOTH"
);
}
);
width = 325;
}
);
leftKerningGroup = i;
note = cid00074;
rightKerningGroup = i;
unicode = 0069;
},
{
glyphname = j;
lastChange = "2019-12-26 05:49:15 +0000";
layers = (
{
hints = (
{
horizontal = 1;
place = "{-273, 91}";
type = Stem;
},
{
horizontal = 1;
place = "{527, -20}";
target = down;
type = TopGhost;
},
{
horizontal = 1;
place = "{663, 122}";
type = Stem;
},
{
place = "{127, 73}";
type = Stem;
},
{
horizontal = 1;
place = "{517, -20}";
target = down;
type = TopGhost;
},
{
place = "{99, 127}";
type = Stem;
}
);
layerId = "AODEWCWT-RYM3-6S2H-YGKD-BAMV0KWXFSSX";
paths = (
{
closed = 1;
nodes = (
"66 -273 OFFCURVE",
"103 -251 OFFCURVE",
"139 -211 CURVE SMOOTH",
"192 -151 OFFCURVE",
"200 -74 OFFCURVE",
"200 118 CURVE SMOOTH",
"200 375 LINE",
"203 517 LINE",
"189 527 LINE",
"35 475 LINE",
"35 442 LINE",
"124 436 LINE",
"126 389 OFFCURVE",
"127 347 OFFCURVE",
"127 283 CURVE SMOOTH",
"127 105 LINE SMOOTH",
"127 -55 OFFCURVE",
"122 -148 OFFCURVE",
"100 -193 CURVE SMOOTH",
"93 -209 OFFCURVE",
"84 -220 OFFCURVE",
"74 -227 CURVE",
"49 -210 LINE SMOOTH",
"22 -190 OFFCURVE",
"0 -182 OFFCURVE",
"-25 -182 CURVE SMOOTH",
"-54 -182 OFFCURVE",
"-74 -195 OFFCURVE",
"-83 -221 CURVE",
"-80 -245 OFFCURVE",
"-54 -273 OFFCURVE",
"8 -273 CURVE SMOOTH"
);
},
{
closed = 1;
nodes = (
"198 663 OFFCURVE",
"226 688 OFFCURVE",
"226 724 CURVE SMOOTH",
"226 761 OFFCURVE",
"198 785 OFFCURVE",
"163 785 CURVE SMOOTH",
"127 785 OFFCURVE",
"99 761 OFFCURVE",
"99 724 CURVE SMOOTH",
"99 688 OFFCURVE",
"127 663 OFFCURVE",
"163 663 CURVE SMOOTH"
);
}
);
width = 301;
}
);
leftKerningGroup = j;
note = cid00075;
rightKerningGroup = j;
unicode = 006A;
},
{
glyphname = k;
lastChange = "2019-12-26 05:49:10 +0000";
layers = (
{
hints = (
{
horizontal = 1;
place = "{0, 37}";
type = Stem;
},
{
horizontal = 1;
place = "{479, 35}";
type = Stem;
},
{
place = "{125, 76}";
type = Stem;
},
{
horizontal = 1;
place = "{0, 32}";
type = Stem;
}
);
layerId = "AODEWCWT-RYM3-6S2H-YGKD-BAMV0KWXFSSX";
paths = (
{
closed = 1;
nodes = (
"290 0 LINE",
"290 32 LINE",
"203 45 LINE",
"202 95 OFFCURVE",
"201 150 OFFCURVE",
"201 201 CURVE",
"279 280 LINE",
"453 0 LINE",
"591 0 LINE",
"591 32 LINE",
"517 42 LINE",
"332 334 LINE",
"463 466 LINE",
"564 479 LINE",
"564 514 LINE",
"315 514 LINE",
"315 479 LINE",
"403 463 LINE",
"201 254 LINE",
"201 644 LINE",
"204 798 LINE",
"189 807 LINE",
"34 765 LINE",
"34 734 LINE",
"125 726 LINE",
"125 228 LINE SMOOTH",
"125 169 OFFCURVE",
"124 104 OFFCURVE",
"123 45 CURVE",
"33 32 LINE",
"33 0 LINE"
);
}
);
width = 592;
}
);
leftKerningGroup = b;
note = cid00076;
rightKerningGroup = k;
unicode = 006B;
},
{
glyphname = l;
lastChange = "2019-12-26 05:49:10 +0000";
layers = (
{
hints = (
{
horizontal = 1;
place = "{0, 32}";
type = Stem;
},
{
place = "{125, 76}";
type = Stem;
}
);
layerId = "AODEWCWT-RYM3-6S2H-YGKD-BAMV0KWXFSSX";
paths = (
{
closed = 1;
nodes = (
"293 0 LINE",
"293 32 LINE",
"203 45 LINE",
"202 104 OFFCURVE",
"201 169 OFFCURVE",
"201 228 CURVE SMOOTH",
"201 644 LINE",
"204 798 LINE",
"189 807 LINE",
"34 765 LINE",
"34 734 LINE",
"125 726 LINE",
"125 228 LINE SMOOTH",
"125 169 OFFCURVE",
"124 104 OFFCURVE",
"123 45 CURVE",
"30 32 LINE",
"30 0 LINE"
);
}
);
width = 324;
}
);
leftKerningGroup = b;
note = cid00077;
rightKerningGroup = d;
unicode = 006C;
},
{
glyphname = m;
lastChange = "2019-12-26 05:49:10 +0000";
layers = (
{
hints = (
{
horizontal = 1;
place = "{0, 32}";
type = Stem;
},
{
horizontal = 1;
place = "{465, 63}";
type = Stem;
},
{
place = "{132, 76}";
type = Stem;
},
{
place = "{459, 75}";
type = Stem;
},
{
place = "{786, 75}";
type = Stem;
},
{
horizontal = 1;
place = "{517, -20}";
target = down;
type = TopGhost;
}
);
layerId = "AODEWCWT-RYM3-6S2H-YGKD-BAMV0KWXFSSX";
paths = (
{
closed = 1;
nodes = (
"289 0 LINE",
"289 32 LINE",
"210 45 LINE",
"209 100 OFFCURVE",
"208 177 OFFCURVE",
"208 228 CURVE SMOOTH",
"208 387 LINE",
"270 444 OFFCURVE",
"317 465 OFFCURVE",
"366 465 CURVE SMOOTH",
"428 465 OFFCURVE",
"459 430 OFFCURVE",
"459 328 CURVE SMOOTH",
"459 228 LINE SMOOTH",
"459 176 OFFCURVE",
"458 99 OFFCURVE",
"457 44 CURVE",
"372 32 LINE",
"372 0 LINE",
"615 0 LINE",
"615 32 LINE",
"536 45 LINE",
"535 100 OFFCURVE",
"534 176 OFFCURVE",
"534 228 CURVE SMOOTH",
"534 332 LINE SMOOTH",
"534 351 OFFCURVE",
"533 369 OFFCURVE",
"531 385 CURVE",
"593 446 OFFCURVE",
"643 465 OFFCURVE",
"690 465 CURVE SMOOTH",
"753 465 OFFCURVE",
"786 434 OFFCURVE",
"786 330 CURVE SMOOTH",
"786 228 LINE SMOOTH",
"786 176 OFFCURVE",
"785 100 OFFCURVE",
"784 44 CURVE",
"699 32 LINE",
"699 0 LINE",
"942 0 LINE",
"942 32 LINE",
"863 45 LINE",
"862 100 OFFCURVE",
"861 176 OFFCURVE",
"861 228 CURVE SMOOTH",
"861 340 LINE SMOOTH",
"861 475 OFFCURVE",
"810 528 OFFCURVE",
"724 528 CURVE SMOOTH",
"654 528 OFFCURVE",
"583 494 OFFCURVE",
"525 423 CURVE",
"508 497 OFFCURVE",
"465 528 OFFCURVE",
"398 528 CURVE SMOOTH",
"332 528 OFFCURVE",
"262 488 OFFCURVE",
"205 425 CURVE",
"197 517 LINE",
"183 527 LINE",
"39 474 LINE",
"39 442 LINE",
"128 435 LINE",
"130 389 OFFCURVE",
"132 347 OFFCURVE",
"132 283 CURVE SMOOTH",
"132 228 LINE SMOOTH",
"132 177 OFFCURVE",
"131 100 OFFCURVE",
"129 44 CURVE",
"45 32 LINE",
"45 0 LINE"
);
}
);
width = 976;
}
);
leftKerningGroup = m;
note = cid00078;
rightKerningGroup = h;
unicode = 006D;
},
{
glyphname = n;
lastChange = "2019-12-26 05:49:10 +0000";
layers = (
{
hints = (
{
horizontal = 1;
place = "{0, 32}";
type = Stem;
},
{
horizontal = 1;
place = "{466, 62}";
type = Stem;
},
{
place = "{132, 76}";
type = Stem;
},
{
place = "{466, 76}";
type = Stem;
},
{
horizontal = 1;
place = "{517, -20}";
target = down;
type = TopGhost;
}
);
layerId = "AODEWCWT-RYM3-6S2H-YGKD-BAMV0KWXFSSX";
paths = (
{
closed = 1;
nodes = (
"289 0 LINE",
"289 32 LINE",
"210 45 LINE",
"209 100 OFFCURVE",
"208 177 OFFCURVE",
"208 228 CURVE SMOOTH",
"208 386 LINE",
"272 445 OFFCURVE",
"323 466 OFFCURVE",
"372 466 CURVE SMOOTH",
"436 466 OFFCURVE",
"466 432 OFFCURVE",
"466 328 CURVE SMOOTH",
"466 228 LINE SMOOTH",
"466 176 OFFCURVE",
"465 99 OFFCURVE",
"464 44 CURVE",
"379 32 LINE",
"379 0 LINE",
"624 0 LINE",
"624 32 LINE",
"545 45 LINE",
"543 100 OFFCURVE",
"542 176 OFFCURVE",
"542 228 CURVE SMOOTH",
"542 332 LINE SMOOTH",
"542 473 OFFCURVE",
"496 528 OFFCURVE",
"405 528 CURVE SMOOTH",
"338 528 OFFCURVE",
"263 489 OFFCURVE",
"205 425 CURVE",
"197 517 LINE",
"183 527 LINE",
"39 474 LINE",
"39 442 LINE",
"128 435 LINE",
"130 388 OFFCURVE",
"132 346 OFFCURVE",
"132 283 CURVE SMOOTH",
"132 228 LINE SMOOTH",
"132 177 OFFCURVE",
"131 100 OFFCURVE",
"129 44 CURVE",
"45 32 LINE",
"45 0 LINE"
);
}
);
width = 658;
}
);
leftKerningGroup = m;
note = cid00079;
rightKerningGroup = h;
unicode = 006E;
},
{
glyphname = o;
lastChange = "2019-12-26 02:40:52 +0000";
layers = (
{
hints = (
{
horizontal = 1;
place = "{-14, 40}";
type = Stem;
},
{
horizontal = 1;
place = "{488, 40}";
type = Stem;
},
{
place = "{51, 85}";
type = Stem;
},
{
place = "{458, 84}";
type = Stem;
}
);
layerId = "AODEWCWT-RYM3-6S2H-YGKD-BAMV0KWXFSSX";
paths = (
{
closed = 1;
nodes = (
"420 -14 OFFCURVE",
"542 74 OFFCURVE",
"542 255 CURVE SMOOTH",
"542 437 OFFCURVE",
"418 528 OFFCURVE",
"297 528 CURVE SMOOTH",
"173 528 OFFCURVE",
"51 437 OFFCURVE",
"51 255 CURVE SMOOTH",
"51 74 OFFCURVE",
"173 -14 OFFCURVE",
"297 -14 CURVE SMOOTH"
);
},
{
closed = 1;
nodes = (
"196 26 OFFCURVE",
"136 105 OFFCURVE",
"136 255 CURVE SMOOTH",
"136 404 OFFCURVE",
"196 488 OFFCURVE",
"297 488 CURVE SMOOTH",
"397 488 OFFCURVE",
"458 404 OFFCURVE",
"458 255 CURVE SMOOTH",
"458 105 OFFCURVE",
"397 26 OFFCURVE",
"297 26 CURVE SMOOTH"
);
}
);
width = 594;
}
);
leftKerningGroup = c;
note = cid00080;
rightKerningGroup = b;
unicode = 006F;
},
{
glyphname = p;
lastChange = "2019-12-26 05:49:10 +0000";
layers = (
{
hints = (
{
horizontal = 1;
place = "{-262, 32}";
type = Stem;
},
{
horizontal = 1;
place = "{-14, 51}";
type = Stem;
},
{
horizontal = 1;
place = "{478, 50}";
type = Stem;
},
{
place = "{133, 76}";
type = Stem;
},
{
place = "{499, 80}";
type = Stem;
},
{
horizontal = 1;
place = "{517, -20}";
target = down;
type = TopGhost;
},
{
place = "{133, 72}";
type = Stem;
}
);
layerId = "AODEWCWT-RYM3-6S2H-YGKD-BAMV0KWXFSSX";
paths = (
{
closed = 1;
nodes = (
"311 -262 LINE",
"311 -230 LINE",
"208 -217 LINE",
"206 -156 OFFCURVE",
"205 -90 OFFCURVE",
"205 -32 CURVE SMOOTH",
"205 61 LINE",
"254 2 OFFCURVE",
"308 -14 OFFCURVE",
"358 -14 CURVE SMOOTH",
"486 -14 OFFCURVE",
"579 92 OFFCURVE",
"579 261 CURVE SMOOTH",
"579 425 OFFCURVE",
"490 528 OFFCURVE",
"373 528 CURVE SMOOTH",
"314 528 OFFCURVE",
"256 503 OFFCURVE",
"204 445 CURVE",
"198 517 LINE",
"184 527 LINE",
"39 474 LINE",
"39 442 LINE",
"129 435 LINE",
"132 388 OFFCURVE",
"133 346 OFFCURVE",
"133 282 CURVE SMOOTH",
"133 -34 LINE SMOOTH",
"133 -93 OFFCURVE",
"132 -157 OFFCURVE",
"131 -217 CURVE",
"40 -230 LINE",
"40 -262 LINE"
);
},
{
closed = 1;
nodes = (
"296 37 OFFCURVE",
"253 53 OFFCURVE",
"209 97 CURVE",
"209 413 LINE",
"269 467 OFFCURVE",
"314 478 OFFCURVE",
"350 478 CURVE SMOOTH",
"437 478 OFFCURVE",
"499 400 OFFCURVE",
"499 253 CURVE SMOOTH",
"499 101 OFFCURVE",
"427 37 OFFCURVE",
"341 37 CURVE SMOOTH"
);
}
);
width = 630;
}
);
leftKerningGroup = p;
note = cid00081;
rightKerningGroup = b;
unicode = 0070;
},
{
glyphname = q;
lastChange = "2019-12-26 05:49:10 +0000";
layers = (
{
hints = (
{
horizontal = 1;
place = "{-262, 32}";
type = Stem;
},
{
horizontal = 1;
place = "{-14, 50}";
type = Stem;
},
{
horizontal = 1;
place = "{478, 50}";
type = Stem;
},
{
place = "{51, 81}";
type = Stem;
},
{
place = "{429, 76}";
type = Stem;
},
{
horizontal = 1;
place = "{517, -20}";
target = down;
type = TopGhost;
},
{
place = "{433, 72}";
type = Stem;
}
);
layerId = "AODEWCWT-RYM3-6S2H-YGKD-BAMV0KWXFSSX";
paths = (
{
closed = 1;
nodes = (
"598 -262 LINE",
"598 -230 LINE",
"508 -217 LINE",
"506 -156 OFFCURVE",
"505 -93 OFFCURVE",
"505 -32 CURVE SMOOTH",
"505 371 LINE",
"509 517 LINE",
"494 526 LINE",
"432 450 LINE",
"385 508 OFFCURVE",
"331 528 OFFCURVE",
"279 528 CURVE SMOOTH",
"149 528 OFFCURVE",
"51 418 OFFCURVE",
"51 251 CURVE SMOOTH",
"51 95 OFFCURVE",
"140 -14 OFFCURVE",
"271 -14 CURVE SMOOTH",
"335 -14 OFFCURVE",
"389 12 OFFCURVE",
"433 74 CURVE",
"433 -32 LINE SMOOTH",
"433 -93 OFFCURVE",
"432 -155 OFFCURVE",
"431 -217 CURVE",
"328 -230 LINE",
"328 -262 LINE"
);
},
{
closed = 1;
nodes = (
"201 36 OFFCURVE",
"132 102 OFFCURVE",
"132 253 CURVE SMOOTH",
"132 410 OFFCURVE",
"207 478 OFFCURVE",
"293 478 CURVE SMOOTH",
"336 478 OFFCURVE",
"377 461 OFFCURVE",
"429 413 CURVE",
"429 109 LINE",
"383 56 OFFCURVE",
"344 36 OFFCURVE",
"292 36 CURVE SMOOTH"
);
}
);
width = 602;
}
);
leftKerningGroup = c;
note = cid00082;
rightKerningGroup = q;
unicode = 0071;
},
{
glyphname = r;
lastChange = "2019-12-26 05:49:10 +0000";
layers = (
{
hints = (
{
horizontal = 1;
place = "{0, 32}";
type = Stem;
},
{
horizontal = 1;
place = "{517, -20}";
target = down;
type = TopGhost;
},
{
place = "{132, 70}";
type = Stem;
},
{
horizontal = 1;
place = "{424, 104}";
type = Stem;
},
{
place = "{132, 76}";
type = Stem;
}
);
layerId = "AODEWCWT-RYM3-6S2H-YGKD-BAMV0KWXFSSX";
paths = (
{
closed = 1;
nodes = (
"302 0 LINE",
"302 32 LINE",
"210 45 LINE",
"209 101 OFFCURVE",
"208 177 OFFCURVE",
"208 228 CURVE SMOOTH",
"208 319 LINE",
"233 388 OFFCURVE",
"265 434 OFFCURVE",
"312 465 CURVE",
"326 453 LINE SMOOTH",
"346 436 OFFCURVE",
"365 424 OFFCURVE",
"390 424 CURVE SMOOTH",
"429 424 OFFCURVE",
"446 449 OFFCURVE",
"446 492 CURVE",
"435 514 OFFCURVE",
"402 528 OFFCURVE",
"370 528 CURVE SMOOTH",
"307 528 OFFCURVE",
"243 474 OFFCURVE",
"207 386 CURVE",
"197 517 LINE",
"183 527 LINE",
"39 474 LINE",
"39 442 LINE",
"128 435 LINE",
"130 388 OFFCURVE",
"132 347 OFFCURVE",
"132 283 CURVE SMOOTH",
"132 228 LINE SMOOTH",
"132 177 OFFCURVE",
"131 100 OFFCURVE",
"129 44 CURVE",
"47 32 LINE",
"47 0 LINE"
);
}
);
width = 454;
}
);
leftKerningGroup = m;
note = cid00083;
rightKerningGroup = r;
unicode = 0072;
},
{
glyphname = s;
lastChange = "2019-12-26 05:49:10 +0000";
layers = (
{
hints = (
{
horizontal = 1;
place = "{-14, 40}";
type = Stem;
},
{
horizontal = 1;
place = "{488, 40}";
type = Stem;
},
{
place = "{63, 73}";
type = Stem;
},
{
place = "{349, 74}";
type = Stem;
},
{
place = "{348, 46}";
type = Stem;
},
{
place = "{56, 46}";
type = Stem;
}
);
layerId = "AODEWCWT-RYM3-6S2H-YGKD-BAMV0KWXFSSX";
paths = (
{
closed = 1;
nodes = (
"354 -14 OFFCURVE",
"423 58 OFFCURVE",
"423 137 CURVE SMOOTH",
"423 204 OFFCURVE",
"383 252 OFFCURVE",
"277 291 CURVE SMOOTH",
"238 305 LINE SMOOTH",
"164 333 OFFCURVE",
"136 354 OFFCURVE",
"136 405 CURVE SMOOTH",
"136 454 OFFCURVE",
"173 488 OFFCURVE",
"246 488 CURVE SMOOTH",
"275 488 OFFCURVE",
"303 481 OFFCURVE",
"330 466 CURVE",
"348 377 LINE",
"392 377 LINE",
"396 485 LINE",
"348 513 OFFCURVE",
"304 528 OFFCURVE",
"246 528 CURVE SMOOTH",
"128 528 OFFCURVE",
"63 460 OFFCURVE",
"63 382 CURVE SMOOTH",
"63 308 OFFCURVE",
"115 266 OFFCURVE",
"195 237 CURVE SMOOTH",
"245 218 LINE SMOOTH",
"318 191 OFFCURVE",
"349 166 OFFCURVE",
"349 117 CURVE SMOOTH",
"349 63 OFFCURVE",
"307 26 OFFCURVE",
"218 26 CURVE SMOOTH",
"181 26 OFFCURVE",
"151 33 OFFCURVE",
"124 45 CURVE",
"102 142 LINE",
"54 142 LINE",
"58 25 LINE",
"111 0 OFFCURVE",
"158 -14 OFFCURVE",
"218 -14 CURVE SMOOTH"
);
}
);
width = 470;
}
);
leftKerningGroup = s;
note = cid00084;
rightKerningGroup = s;
unicode = 0073;
},
{
glyphname = t;
lastChange = "2019-12-26 05:49:10 +0000";
layers = (
{
hints = (
{
horizontal = 1;
place = "{-14, 46}";
type = Stem;
},
{
horizontal = 1;
place = "{468, 46}";
type = Stem;
},
{
place = "{109, 76}";
type = Stem;
},
{
place = "{109, 80}";
type = Stem;
},
{
horizontal = 1;
place = "{468, 49}";
type = Stem;
}
);
layerId = "AODEWCWT-RYM3-6S2H-YGKD-BAMV0KWXFSSX";
paths = (
{
closed = 1;
nodes = (
"277 -14 OFFCURVE",
"318 4 OFFCURVE",
"346 36 CURVE",
"326 61 LINE",
"298 41 OFFCURVE",
"276 32 OFFCURVE",
"250 32 CURVE SMOOTH",
"209 32 OFFCURVE",
"185 57 OFFCURVE",
"185 116 CURVE SMOOTH",
"185 468 LINE",
"336 468 LINE",
"336 514 LINE",
"186 514 LINE",
"192 665 LINE",
"137 665 LINE",
"113 517 LINE",
"11 505 LINE",
"11 468 LINE",
"109 468 LINE",
"109 199 LINE SMOOTH",
"109 160 OFFCURVE",
"108 137 OFFCURVE",
"108 112 CURVE SMOOTH",
"108 27 OFFCURVE",
"150 -14 OFFCURVE",
"226 -14 CURVE SMOOTH"
);
}
);
width = 354;
}
);
leftKerningGroup = t;
note = cid00085;
rightKerningGroup = t;
unicode = 0074;
},
{
glyphname = u;
lastChange = "2019-12-26 05:49:10 +0000";
layers = (
{
hints = (
{
horizontal = 1;
place = "{-9, 53}";
type = Stem;
},
{
horizontal = 1;
place = "{462, 59}";
type = Stem;
},
{
place = "{111.5, 73.5}";
type = Stem;
},
{
place = "{446, 74}";
type = Stem;
},
{
horizontal = 1;
place = "{-14, 64}";
type = Stem;
},
{
place = "{451, 69}";
type = Stem;
},
{
horizontal = 1;
place = "{-9, 21}";
target = up;
type = BottomGhost;
},
{
horizontal = 1;
place = "{0, 21}";
target = up;
type = BottomGhost;
}
);
layerId = "AODEWCWT-RYM3-6S2H-YGKD-BAMV0KWXFSSX";
paths = (
{
closed = 1;
nodes = (
"322 -14 OFFCURVE",
"391 22 OFFCURVE",
"447 91 CURVE",
"455 -9 LINE",
"597 0 LINE",
"597 32 LINE",
"520 44 LINE",
"520 358 LINE",
"524 510 LINE",
"513 521 LINE",
"365 508 LINE",
"365 476 LINE",
"447 462 LINE",
"445 130 LINE",
"394 77 OFFCURVE",
"339 50 OFFCURVE",
"282 50 CURVE SMOOTH",
"217 50 OFFCURVE",
"185 86 OFFCURVE",
"185 190 CURVE SMOOTH",
"185 358 LINE",
"190 510 LINE",
"180 521 LINE",
"30 508 LINE",
"30 476 LINE",
"113 462 LINE",
"110 184 LINE SMOOTH",
"109 37 OFFCURVE",
"162 -14 OFFCURVE",
"252 -14 CURVE SMOOTH"
);
}
);
width = 639;
}
);
leftKerningGroup = u;
note = cid00086;
rightKerningGroup = u;
unicode = 0075;
},
{
glyphname = v;
lastChange = "2019-12-26 05:49:10 +0000";
layers = (
{
hints = (
{
horizontal = 1;
place = "{-7, 21}";
target = up;
type = BottomGhost;
},
{
horizontal = 1;
place = "{473.5, 40.5}";
type = Stem;
},
{
place = "{335, 202}";
type = Stem;
},
{
horizontal = 1;
place = "{479, 35}";
type = Stem;
},
{
place = "{-3, 540}";
type = Stem;
},
{
horizontal = 1;
place = "{474.5, 39.5}";
type = Stem;
}
);
layerId = "AODEWCWT-RYM3-6S2H-YGKD-BAMV0KWXFSSX";
paths = (
{
closed = 1;
nodes = (
"296 -7 LINE",
"474 467 LINE",
"537 479 LINE",
"537 514 LINE",
"335 514 LINE",
"335 479 LINE",
"426 466 LINE",
"294 90 LINE",
"151 468 LINE",
"247 479 LINE",
"247 514 LINE",
"-3 514 LINE",
"-3 479 LINE",
"63 470 LINE",
"258 -7 LINE"
);
}
);
width = 546;
}
);
leftKerningGroup = v;
note = cid00087;
rightKerningGroup = v;
unicode = 0076;
},
{
glyphname = w;
lastChange = "2019-12-26 05:49:10 +0000";
layers = (
{
hints = (
{
horizontal = 1;
place = "{-7, 21}";
target = up;
type = BottomGhost;
},
{
horizontal = 1;
place = "{473.5, 40.5}";
type = Stem;
},
{
place = "{622, 199}";
type = Stem;
},
{
horizontal = 1;
place = "{479, 35}";
type = Stem;
},
{
place = "{320, 229}";
type = Stem;
},
{
place = "{-1, 822}";
type = Stem;
}
);
layerId = "AODEWCWT-RYM3-6S2H-YGKD-BAMV0KWXFSSX";
paths = (
{
closed = 1;
nodes = (
"271 -7 LINE",
"420 402 LINE",
"447 317 OFFCURVE",
"480 222 OFFCURVE",
"566 -7 CURVE",
"600 -7 LINE",
"758 467 LINE",
"821 479 LINE",
"821 514 LINE",
"622 514 LINE",
"622 479 LINE",
"709 466 LINE",
"599 104 LINE",
"465 467 LINE",
"549 479 LINE",
"549 514 LINE",
"320 514 LINE",
"320 479 LINE",
"403 467 LINE",
"272 104 LINE",
"150 468 LINE",
"238 479 LINE",
"238 514 LINE",
"-1 514 LINE",
"-1 479 LINE",
"64 469 LINE",
"238 -7 LINE"
);
}
);
width = 829;
}
);
leftKerningGroup = v;
note = cid00088;
rightKerningGroup = v;
unicode = 0077;
},
{
glyphname = x;
lastChange = "2019-12-26 05:49:10 +0000";
layers = (
{
hints = (
{
horizontal = 1;
place = "{0, 32}";
type = Stem;
},
{
horizontal = 1;
place = "{474, 40}";
type = Stem;
},
{
place = "{10, 543}";
type = Stem;
},
{
horizontal = 1;
place = "{479, 35}";
type = Stem;
},
{
place = "{342, 200}";
type = Stem;
},
{
place = "{10, 211}";
type = Stem;
}
);
layerId = "AODEWCWT-RYM3-6S2H-YGKD-BAMV0KWXFSSX";
paths = (
{
closed = 1;
nodes = (
"221 0 LINE",
"221 32 LINE",
"136 45 LINE",
"266 218 LINE",
"387 44 LINE",
"303 32 LINE",
"304 0 LINE",
"553 0 LINE",
"553 32 LINE",
"476 44 LINE",
"316 269 LINE",
"477 469 LINE",
"542 479 LINE",
"542 514 LINE",
"342 514 LINE",
"342 479 LINE",
"419 467 LINE",
"293 302 LINE",
"177 468 LINE",
"250 479 LINE",
"250 514 LINE",
"18 514 LINE",
"18 479 LINE",
"92 469 LINE",
"244 249 LINE",
"81 44 LINE",
"10 32 LINE",
"10 0 LINE"
);
}
);
width = 564;
}
);
leftKerningGroup = x;
note = cid00089;
rightKerningGroup = x;
unicode = 0078;
},
{
glyphname = y;
lastChange = "2019-12-26 05:49:10 +0000";
layers = (
{
hints = (
{
horizontal = 1;
place = "{-273, 103}";
type = Stem;
},
{
horizontal = 1;
place = "{476.5, 37.5}";
type = Stem;
},
{
place = "{343, 209}";
type = Stem;
},
{
horizontal = 1;
place = "{483, 31}";
type = Stem;
},
{
place = "{-4, 556}";
type = Stem;
},
{
horizontal = 1;
place = "{478.5, 35.5}";
type = Stem;
}
);
layerId = "AODEWCWT-RYM3-6S2H-YGKD-BAMV0KWXFSSX";
paths = (
{
closed = 1;
nodes = (
"170 -273 OFFCURVE",
"238 -199 OFFCURVE",
"307 -16 CURVE SMOOTH",
"491 471 LINE",
"552 483 LINE",
"552 514 LINE",
"343 514 LINE",
"343 483 LINE",
"441 470 LINE",
"299 73 LINE",
"152 471 LINE",
"248 482 LINE",
"248 514 LINE",
"0 514 LINE",
"0 483 LINE",
"64 474 LINE",
"262 -26 LINE",
"253 -49 LINE SMOOTH",
"228 -118 OFFCURVE",
"193 -179 OFFCURVE",
"142 -215 CURVE",
"134 -207 LINE SMOOTH",
"108 -182 OFFCURVE",
"87 -170 OFFCURVE",
"59 -170 CURVE SMOOTH",
"30 -170 OFFCURVE",
"2 -183 OFFCURVE",
"-4 -210 CURVE",
"-3 -248 OFFCURVE",
"40 -273 OFFCURVE",
"89 -273 CURVE SMOOTH"
);
}
);
width = 551;
}
);
leftKerningGroup = y;
note = cid00090;
rightKerningGroup = v;
unicode = 0079;
},
{
glyphname = z;
lastChange = "2019-12-26 05:49:10 +0000";
layers = (
{
hints = (
{
horizontal = 1;
place = "{0, 171}";
type = Stem;
},
{
horizontal = 1;
place = "{476, 38}";
type = Stem;
},
{
place = "{38, 427}";
type = Stem;
},
{
horizontal = 1;
place = "{0, 38}";
type = Stem;
}
);
layerId = "AODEWCWT-RYM3-6S2H-YGKD-BAMV0KWXFSSX";
paths = (
{
closed = 1;
nodes = (
"454 0 LINE",
"465 171 LINE",
"421 171 LINE",
"388 38 LINE",
"128 38 LINE",
"448 482 LINE",
"448 514 LINE",
"51 514 LINE",
"43 359 LINE",
"87 354 LINE",
"117 476 LINE",
"359 476 LINE",
"38 33 LINE",
"38 0 LINE"
);
}
);
width = 496;
}
);
leftKerningGroup = z;
note = cid00091;
rightKerningGroup = z;
unicode = 007A;
},
{
glyphname = braceleft;
lastChange = "2019-12-26 05:49:10 +0000";
layers = (
{
hints = (
{
horizontal = 1;
place = "{-173, 37.5}";
type = Stem;
},
{
horizontal = 1;
place = "{739.5, 37.5}";
type = Stem;
},
{
place = "{129, 68}";
type = Stem;
},
{
horizontal = 1;
place = "{284, 37}";
type = Stem;
},
{
place = "{176, 48}";
type = Stem;
}
);
layerId = "AODEWCWT-RYM3-6S2H-YGKD-BAMV0KWXFSSX";
paths = (
{
closed = 1;
nodes = (
"342 -173 LINE",
"342 -137 LINE",
"310 -134 LINE SMOOTH",
"226 -126 OFFCURVE",
"197 -104 OFFCURVE",
"197 -38 CURVE SMOOTH",
"197 47 OFFCURVE",
"224 124 OFFCURVE",
"224 172 CURVE SMOOTH",
"224 238 OFFCURVE",
"195 287 OFFCURVE",
"118 302 CURVE",
"195 317 OFFCURVE",
"224 366 OFFCURVE",
"224 433 CURVE SMOOTH",
"224 480 OFFCURVE",
"197 558 OFFCURVE",
"197 642 CURVE SMOOTH",
"197 709 OFFCURVE",
"226 730 OFFCURVE",
"310 738 CURVE SMOOTH",
"342 741 LINE",
"342 777 LINE",
"296 777 LINE SMOOTH",
"186 777 OFFCURVE",
"129 730 OFFCURVE",
"129 645 CURVE SMOOTH",
"129 557 OFFCURVE",
"176 478 OFFCURVE",
"176 423 CURVE SMOOTH",
"176 367 OFFCURVE",
"138 330 OFFCURVE",
"43 321 CURVE",
"43 284 LINE",
"138 274 OFFCURVE",
"176 237 OFFCURVE",
"176 182 CURVE SMOOTH",
"176 126 OFFCURVE",
"129 48 OFFCURVE",
"129 -40 CURVE SMOOTH",
"129 -126 OFFCURVE",
"186 -173 OFFCURVE",
"296 -173 CURVE SMOOTH"
);
}
);
width = 375;
}
);
leftKerningGroup = parenleft;
note = cid00092;
rightKerningGroup = parenleft;
unicode = 007B;
},
{
glyphname = bar;
lastChange = "2019-12-26 05:49:10 +0000";
layers = (
{
hints = (
{
horizontal = 1;
place = "{-272, 21}";
target = up;
type = BottomGhost;
},
{
place = "{109, 52}";
type = Stem;
}
);
layerId = "AODEWCWT-RYM3-6S2H-YGKD-BAMV0KWXFSSX";
paths = (
{
closed = 1;
nodes = (
"161 -272 LINE",
"161 815 LINE",
"109 815 LINE",
"109 -272 LINE"
);
}
);
width = 270;
}
);
note = cid00093;
unicode = 007C;
},
{
glyphname = braceright;
lastChange = "2019-12-26 05:49:10 +0000";
layers = (
{
hints = (
{
horizontal = 1;
place = "{-173, 37.5}";
type = Stem;
},
{
horizontal = 1;
place = "{284, 37}";
type = Stem;
},
{
horizontal = 1;
place = "{739.5, 37.5}";
type = Stem;
},
{
place = "{178, 68}";
type = Stem;
},
{
place = "{151, 48}";
type = Stem;
}
);
layerId = "AODEWCWT-RYM3-6S2H-YGKD-BAMV0KWXFSSX";
paths = (
{
closed = 1;
nodes = (
"79 -173 LINE SMOOTH",
"189 -173 OFFCURVE",
"246 -126 OFFCURVE",
"246 -40 CURVE SMOOTH",
"246 48 OFFCURVE",
"199 126 OFFCURVE",
"199 182 CURVE SMOOTH",
"199 237 OFFCURVE",
"237 274 OFFCURVE",
"332 284 CURVE",
"332 321 LINE",
"237 330 OFFCURVE",
"199 367 OFFCURVE",
"199 423 CURVE SMOOTH",
"199 478 OFFCURVE",
"246 557 OFFCURVE",
"246 645 CURVE SMOOTH",
"246 730 OFFCURVE",
"189 777 OFFCURVE",
"79 777 CURVE SMOOTH",
"33 777 LINE",
"33 741 LINE",
"65 738 LINE SMOOTH",
"149 730 OFFCURVE",
"178 709 OFFCURVE",
"178 642 CURVE SMOOTH",
"178 558 OFFCURVE",
"151 480 OFFCURVE",
"151 433 CURVE SMOOTH",
"151 366 OFFCURVE",
"180 317 OFFCURVE",
"257 302 CURVE",
"180 287 OFFCURVE",
"151 238 OFFCURVE",
"151 172 CURVE SMOOTH",
"151 124 OFFCURVE",
"178 47 OFFCURVE",
"178 -38 CURVE SMOOTH",
"178 -104 OFFCURVE",
"149 -126 OFFCURVE",
"65 -134 CURVE SMOOTH",
"33 -137 LINE",
"33 -173 LINE"
);
}
);
width = 375;
}
);
leftKerningGroup = parenright;
note = cid00094;
rightKerningGroup = parenright;
unicode = 007D;
},
{
glyphname = asciitilde;
lastChange = "2019-12-26 05:49:10 +0000";
layers = (
{
hints = (
{
horizontal = 1;
place = "{299, 48}";
type = Stem;
},
{
horizontal = 1;
place = "{402, 49}";
type = Stem;
},
{
place = "{58, 43}";
type = Stem;
},
{
place = "{477, 44}";
type = Stem;
}
);
layerId = "AODEWCWT-RYM3-6S2H-YGKD-BAMV0KWXFSSX";
paths = (
{
closed = 1;
nodes = (
"473 299 OFFCURVE",
"515 350 OFFCURVE",
"521 440 CURVE",
"477 447 LINE",
"467 372 OFFCURVE",
"437 347 OFFCURVE",
"401 347 CURVE SMOOTH",
"368 347 OFFCURVE",
"340 361 OFFCURVE",
"307 392 CURVE SMOOTH",
"266 429 OFFCURVE",
"230 451 OFFCURVE",
"184 451 CURVE SMOOTH",
"107 451 OFFCURVE",
"63 400 OFFCURVE",
"58 310 CURVE",
"101 303 LINE",
"111 378 OFFCURVE",
"141 402 OFFCURVE",
"178 402 CURVE SMOOTH",
"211 402 OFFCURVE",
"238 389 OFFCURVE",
"272 358 CURVE SMOOTH",
"313 320 OFFCURVE",
"348 299 OFFCURVE",
"396 299 CURVE SMOOTH"
);
}
);
width = 576;
}
);
note = cid00095;
unicode = 007E;
},
{
glyphname = A.full;
lastChange = "2019-12-26 05:49:10 +0000";
layers = (
{
layerId = "AODEWCWT-RYM3-6S2H-YGKD-BAMV0KWXFSSX";
paths = (
{
closed = 1;
nodes = (
"354 0 LINE",
"354 37 LINE",
"247 46 LINE",
"321 253 LINE",
"629 253 LINE",
"710 45 LINE",
"603 37 LINE",
"603 0 LINE",
"909 0 LINE",
"909 37 LINE",
"801 45 LINE",
"526 748 LINE",
"465 748 LINE",
"202 46 LINE",
"95 37 LINE",
"95 0 LINE"
);
},
{
closed = 1;
nodes = (
"470 665 LINE",
"615 291 LINE",
"335 291 LINE"
);
}
);
vertOrigin = 6;
width = 1000;
}
);
note = cid59976;
unicode = FF21;
},
{
glyphname = B.full;
lastChange = "2019-12-26 05:49:10 +0000";
layers = (
{
layerId = "AODEWCWT-RYM3-6S2H-YGKD-BAMV0KWXFSSX";
paths = (
{
closed = 1;
nodes = (
"538 0 LINE SMOOTH",
"767 0 OFFCURVE",
"841 95 OFFCURVE",
"841 202 CURVE SMOOTH",
"841 305 OFFCURVE",
"778 381 OFFCURVE",
"620 396 CURVE",
"750 421 OFFCURVE",
"801 493 OFFCURVE",
"801 574 CURVE SMOOTH",
"801 676 OFFCURVE",
"733 748 OFFCURVE",
"542 748 CURVE SMOOTH",
"185 748 LINE",
"185 710 LINE",
"296 702 LINE",
"298 602 OFFCURVE",
"298 501 OFFCURVE",
"298 400 CURVE SMOOTH",
"298 346 LINE SMOOTH",
"298 245 OFFCURVE",
"298 145 OFFCURVE",
"296 45 CURVE",
"185 37 LINE",
"185 0 LINE"
);
},
{
closed = 1;
nodes = (
"385 146 OFFCURVE",
"385 245 OFFCURVE",
"385 372 CURVE",
"529 372 LINE SMOOTH",
"685 372 OFFCURVE",
"753 313 OFFCURVE",
"753 204 CURVE SMOOTH",
"753 98 OFFCURVE",
"680 39 OFFCURVE",
"542 39 CURVE SMOOTH",
"386 39 LINE"
);
},
{
closed = 1;
nodes = (
"385 512 OFFCURVE",
"385 610 OFFCURVE",
"386 707 CURVE",
"520 707 LINE SMOOTH",
"672 707 OFFCURVE",
"717 651 OFFCURVE",
"717 570 CURVE SMOOTH",
"717 473 OFFCURVE",
"646 409 OFFCURVE",
"517 409 CURVE SMOOTH",
"385 409 LINE"
);
}
);
vertOrigin = 6;
width = 1000;
}
);
note = cid59977;
unicode = FF22;
},
{
glyphname = C.full;
lastChange = "2019-12-26 05:49:10 +0000";
layers = (
{
layerId = "AODEWCWT-RYM3-6S2H-YGKD-BAMV0KWXFSSX";
paths = (
{
closed = 1;
nodes = (
"662 -18 OFFCURVE",
"737 -1 OFFCURVE",
"811 45 CURVE",
"816 205 LINE",
"768 205 LINE",
"743 60 LINE",
"693 34 OFFCURVE",
"641 22 OFFCURVE",
"577 22 CURVE SMOOTH",
"389 22 OFFCURVE",
"260 149 OFFCURVE",
"260 375 CURVE SMOOTH",
"260 597 OFFCURVE",
"384 726 OFFCURVE",
"579 726 CURVE SMOOTH",
"642 726 OFFCURVE",
"685 717 OFFCURVE",
"733 689 CURVE",
"756 543 LINE",
"804 543 LINE",
"800 707 LINE",
"730 747 OFFCURVE",
"667 765 OFFCURVE",
"574 765 CURVE SMOOTH",
"330 765 OFFCURVE",
"168 615 OFFCURVE",
"168 375 CURVE SMOOTH",
"168 128 OFFCURVE",
"336 -18 OFFCURVE",
"575 -18 CURVE SMOOTH"
);
}
);
vertOrigin = 7;
width = 1000;
}
);
note = cid59978;
unicode = FF23;
},
{
glyphname = D.full;
lastChange = "2019-12-26 05:49:10 +0000";
layers = (
{
layerId = "AODEWCWT-RYM3-6S2H-YGKD-BAMV0KWXFSSX";
paths = (
{
closed = 1;
nodes = (
"462 0 LINE SMOOTH",
"708 0 OFFCURVE",
"852 146 OFFCURVE",
"852 375 CURVE SMOOTH",
"852 613 OFFCURVE",
"709 748 OFFCURVE",
"471 748 CURVE SMOOTH",
"168 748 LINE",
"168 710 LINE",
"280 702 LINE",
"281 603 OFFCURVE",
"281 502 OFFCURVE",
"281 401 CURVE SMOOTH",
"281 346 LINE SMOOTH",
"281 245 OFFCURVE",
"281 144 OFFCURVE",
"280 45 CURVE",
"168 37 LINE",
"168 0 LINE"
);
},
{
closed = 1;
nodes = (
"368 141 OFFCURVE",
"368 244 OFFCURVE",
"368 346 CURVE SMOOTH",
"368 401 LINE SMOOTH",
"368 504 OFFCURVE",
"368 606 OFFCURVE",
"369 707 CURVE",
"454 707 LINE SMOOTH",
"652 707 OFFCURVE",
"760 599 OFFCURVE",
"760 374 CURVE SMOOTH",
"760 159 OFFCURVE",
"654 39 OFFCURVE",
"443 39 CURVE SMOOTH",
"369 39 LINE"
);
}
);
vertOrigin = 6;
width = 1000;
}
);
note = cid59979;
unicode = FF24;
},
{
glyphname = E.full;
lastChange = "2019-12-26 05:49:10 +0000";
layers = (
{
layerId = "AODEWCWT-RYM3-6S2H-YGKD-BAMV0KWXFSSX";
paths = (
{
closed = 1;
nodes = (
"805 0 LINE",
"815 176 LINE",
"764 176 LINE",
"744 38 LINE",
"398 38 LINE",
"396 140 OFFCURVE",
"396 239 OFFCURVE",
"396 361 CURVE",
"648 361 LINE",
"660 261 LINE",
"697 261 LINE",
"697 499 LINE",
"660 499 LINE",
"648 400 LINE",
"396 400 LINE",
"396 510 OFFCURVE",
"396 610 OFFCURVE",
"398 708 CURVE",
"726 708 LINE",
"745 570 LINE",
"797 570 LINE",
"787 748 LINE",
"206 748 LINE",
"206 710 LINE",
"308 702 LINE",
"310 602 OFFCURVE",
"310 502 OFFCURVE",
"310 401 CURVE SMOOTH",
"310 346 LINE SMOOTH",
"310 242 OFFCURVE",
"310 146 OFFCURVE",
"308 45 CURVE",
"206 37 LINE",
"206 0 LINE"
);
}
);
vertOrigin = 6;
width = 1000;
}
);
note = cid59980;
unicode = FF25;
},
{
glyphname = F.full;
lastChange = "2019-12-26 05:49:10 +0000";
layers = (
{
layerId = "AODEWCWT-RYM3-6S2H-YGKD-BAMV0KWXFSSX";
paths = (
{
closed = 1;
nodes = (
"517 0 LINE",
"517 37 LINE",
"404 46 LINE",
"402 144 OFFCURVE",
"402 246 OFFCURVE",
"402 361 CURVE",
"650 361 LINE",
"662 258 LINE",
"699 258 LINE",
"699 499 LINE",
"662 499 LINE",
"650 400 LINE",
"402 400 LINE",
"402 509 OFFCURVE",
"402 610 OFFCURVE",
"404 708 CURVE",
"739 708 LINE",
"758 570 LINE",
"809 570 LINE",
"799 748 LINE",
"212 748 LINE",
"212 710 LINE",
"314 703 LINE",
"315 603 OFFCURVE",
"315 501 OFFCURVE",
"315 401 CURVE SMOOTH",
"315 346 LINE SMOOTH",
"315 245 OFFCURVE",
"315 144 OFFCURVE",
"314 45 CURVE",
"212 37 LINE",
"212 0 LINE"
);
}
);
vertOrigin = 6;
width = 1000;
}
);
note = cid59981;
unicode = FF26;
},
{
glyphname = G.full;
lastChange = "2019-12-26 05:49:10 +0000";
layers = (
{
layerId = "AODEWCWT-RYM3-6S2H-YGKD-BAMV0KWXFSSX";
paths = (
{
closed = 1;
nodes = (
"642 -18 OFFCURVE",
"716 -3 OFFCURVE",
"803 50 CURVE",
"803 103 LINE SMOOTH",
"803 188 OFFCURVE",
"804 259 OFFCURVE",
"805 324 CURVE",
"896 334 LINE",
"896 370 LINE",
"586 370 LINE",
"586 334 LINE",
"714 323 LINE",
"716 250 OFFCURVE",
"717 176 OFFCURVE",
"717 105 CURVE SMOOTH",
"717 56 LINE",
"666 30 OFFCURVE",
"613 21 OFFCURVE",
"553 21 CURVE SMOOTH",
"378 21 OFFCURVE",
"257 151 OFFCURVE",
"257 374 CURVE SMOOTH",
"257 595 OFFCURVE",
"379 727 OFFCURVE",
"557 727 CURVE SMOOTH",
"622 727 OFFCURVE",
"672 716 OFFCURVE",
"721 689 CURVE",
"745 542 LINE",
"793 542 LINE",
"789 705 LINE",
"718 747 OFFCURVE",
"642 765 OFFCURVE",
"547 765 CURVE SMOOTH",
"314 765 OFFCURVE",
"164 610 OFFCURVE",
"164 374 CURVE SMOOTH",
"164 136 OFFCURVE",
"316 -18 OFFCURVE",
"543 -18 CURVE SMOOTH"
);
}
);
vertOrigin = 7;
width = 1000;
}
);
note = cid59982;
unicode = FF27;
},
{
glyphname = H.full;
lastChange = "2019-12-26 05:49:10 +0000";
layers = (
{
layerId = "AODEWCWT-RYM3-6S2H-YGKD-BAMV0KWXFSSX";
paths = (
{
closed = 1;
nodes = (
"402 0 LINE",
"402 37 LINE",
"291 45 LINE",
"289 144 OFFCURVE",
"289 247 OFFCURVE",
"289 371 CURVE",
"711 371 LINE",
"711 246 OFFCURVE",
"711 143 OFFCURVE",
"709 45 CURVE",
"598 37 LINE",
"598 0 LINE",
"910 0 LINE",
"910 37 LINE",
"799 45 LINE",
"798 145 OFFCURVE",
"798 246 OFFCURVE",
"798 346 CURVE SMOOTH",
"798 401 LINE SMOOTH",
"798 502 OFFCURVE",
"798 603 OFFCURVE",
"799 702 CURVE",
"910 710 LINE",
"910 748 LINE",
"598 748 LINE",
"598 710 LINE",
"709 702 LINE",
"711 607 OFFCURVE",
"711 509 OFFCURVE",
"711 412 CURVE",
"289 412 LINE",
"289 510 OFFCURVE",
"289 607 OFFCURVE",
"291 702 CURVE",
"402 710 LINE",
"402 748 LINE",
"90 748 LINE",
"90 710 LINE",
"201 702 LINE",
"202 603 OFFCURVE",
"202 502 OFFCURVE",
"202 401 CURVE SMOOTH",
"202 346 LINE SMOOTH",
"202 245 OFFCURVE",
"202 144 OFFCURVE",
"201 45 CURVE",
"90 37 LINE",
"90 0 LINE"
);
}
);
vertOrigin = 6;
width = 1000;
}
);
note = cid59983;
unicode = FF28;
},
{
glyphname = I.full;
lastChange = "2019-12-26 05:49:10 +0000";
layers = (
{
layerId = "AODEWCWT-RYM3-6S2H-YGKD-BAMV0KWXFSSX";
paths = (
{
closed = 1;
nodes = (
"648 0 LINE",
"648 37 LINE",
"545 45 LINE",
"544 145 OFFCURVE",
"544 246 OFFCURVE",
"544 346 CURVE SMOOTH",
"544 401 LINE SMOOTH",
"544 502 OFFCURVE",
"544 603 OFFCURVE",
"545 702 CURVE",
"648 710 LINE",
"648 748 LINE",
"353 748 LINE",
"353 710 LINE",
"455 702 LINE",
"456 603 OFFCURVE",
"456 502 OFFCURVE",
"456 401 CURVE SMOOTH",
"456 346 LINE SMOOTH",
"456 246 OFFCURVE",
"456 144 OFFCURVE",
"455 46 CURVE",
"353 37 LINE",
"353 0 LINE"
);
}
);
vertOrigin = 6;
width = 1000;
}
);
note = cid59984;
unicode = FF29;
},
{
glyphname = J.full;
lastChange = "2019-12-26 05:49:10 +0000";
layers = (
{
layerId = "AODEWCWT-RYM3-6S2H-YGKD-BAMV0KWXFSSX";
paths = (
{
closed = 1;
nodes = (
"573 -18 OFFCURVE",
"653 50 OFFCURVE",
"677 143 CURVE SMOOTH",
"689 189 OFFCURVE",
"694 224 OFFCURVE",
"694 294 CURVE SMOOTH",
"694 402 LINE SMOOTH",
"694 503 OFFCURVE",
"694 603 OFFCURVE",
"695 702 CURVE",
"817 710 LINE",
"817 748 LINE",
"456 748 LINE",
"456 710 LINE",
"604 702 LINE",
"606 475 OFFCURVE",
"606 328 OFFCURVE",
"606 236 CURVE SMOOTH",
"606 88 OFFCURVE",
"535 22 OFFCURVE",
"409 22 CURVE SMOOTH",
"368 22 OFFCURVE",
"337 27 OFFCURVE",
"307 41 CURVE",
"283 108 LINE",
"274 143 OFFCURVE",
"261 155 OFFCURVE",
"238 155 CURVE SMOOTH",
"220 155 OFFCURVE",
"205 144 OFFCURVE",
"200 124 CURVE",
"221 30 OFFCURVE",
"298 -18 OFFCURVE",
"422 -18 CURVE SMOOTH"
);
}
);
vertOrigin = 15;
width = 1000;
}
);
note = cid59985;
unicode = FF2A;
},
{
glyphname = K.full;
lastChange = "2019-12-26 05:49:10 +0000";
layers = (
{
layerId = "AODEWCWT-RYM3-6S2H-YGKD-BAMV0KWXFSSX";
paths = (
{
closed = 1;
nodes = (
"453 0 LINE",
"453 37 LINE",
"348 45 LINE",
"347 127 OFFCURVE",
"347 207 OFFCURVE",
"347 262 CURVE",
"478 401 LINE",
"694 44 LINE",
"600 37 LINE",
"600 0 LINE",
"896 0 LINE",
"896 37 LINE",
"792 45 LINE",
"534 460 LINE",
"761 701 LINE",
"874 710 LINE",
"874 748 LINE",
"609 748 LINE",
"609 710 LINE",
"712 702 LINE",
"347 314 LINE",
"347 401 LINE SMOOTH",
"347 502 OFFCURVE",
"347 603 OFFCURVE",
"348 702 CURVE",
"453 710 LINE",
"453 748 LINE",
"147 748 LINE",
"147 710 LINE",
"258 702 LINE",
"260 603 OFFCURVE",
"260 502 OFFCURVE",
"260 401 CURVE SMOOTH",
"260 346 LINE SMOOTH",
"260 245 OFFCURVE",
"260 144 OFFCURVE",
"258 45 CURVE",
"147 37 LINE",
"147 0 LINE"
);
}
);
vertOrigin = 6;
width = 1000;
}
);
note = cid59986;
unicode = FF2B;
},
{
glyphname = L.full;
lastChange = "2019-12-26 05:49:10 +0000";
layers = (
{
layerId = "AODEWCWT-RYM3-6S2H-YGKD-BAMV0KWXFSSX";
paths = (
{
closed = 1;
nodes = (
"821 0 LINE",
"832 195 LINE",
"782 195 LINE",
"760 39 LINE",
"406 39 LINE",
"404 141 OFFCURVE",
"404 244 OFFCURVE",
"404 346 CURVE SMOOTH",
"404 401 LINE SMOOTH",
"404 502 OFFCURVE",
"404 603 OFFCURVE",
"406 702 CURVE",
"528 710 LINE",
"528 748 LINE",
"204 748 LINE",
"204 710 LINE",
"316 702 LINE",
"318 603 OFFCURVE",
"318 502 OFFCURVE",
"318 401 CURVE SMOOTH",
"318 346 LINE SMOOTH",
"318 245 OFFCURVE",
"318 144 OFFCURVE",
"316 45 CURVE",
"204 37 LINE",
"204 0 LINE"
);
}
);
vertOrigin = 6;
width = 1000;
}
);
note = cid59987;
unicode = FF2C;
},
{
glyphname = M.full;
lastChange = "2019-12-26 05:49:10 +0000";
layers = (
{
layerId = "AODEWCWT-RYM3-6S2H-YGKD-BAMV0KWXFSSX";
paths = (
{
closed = 1;
nodes = (
"307 0 LINE",
"307 37 LINE",
"193 47 LINE",
"194 626 LINE",
"458 0 LINE",
"494 0 LINE",
"754 631 LINE",
"754 346 LINE SMOOTH",
"754 245 OFFCURVE",
"753 144 OFFCURVE",
"751 45 CURVE",
"640 37 LINE",
"640 0 LINE",
"961 0 LINE",
"961 37 LINE",
"843 45 LINE",
"841 145 OFFCURVE",
"841 246 OFFCURVE",
"841 346 CURVE SMOOTH",
"841 401 LINE SMOOTH",
"841 502 OFFCURVE",
"841 603 OFFCURVE",
"843 702 CURVE",
"955 710 LINE",
"955 748 LINE",
"760 748 LINE",
"501 125 LINE",
"235 748 LINE",
"46 748 LINE",
"46 710 LINE",
"151 701 LINE",
"150 47 LINE",
"33 37 LINE",
"33 0 LINE"
);
}
);
vertOrigin = 6;
width = 1000;
}
);
note = cid59988;
unicode = FF2D;
},
{
glyphname = N.full;
lastChange = "2019-12-26 05:49:10 +0000";
layers = (
{
layerId = "AODEWCWT-RYM3-6S2H-YGKD-BAMV0KWXFSSX";
paths = (
{
closed = 1;
nodes = (
"792 -7 LINE",
"792 702 LINE",
"910 710 LINE",
"910 748 LINE",
"619 748 LINE",
"619 710 LINE",
"749 702 LINE",
"749 128 LINE",
"285 748 LINE",
"99 748 LINE",
"99 710 LINE",
"210 701 LINE",
"215 694 LINE",
"215 46 LINE",
"99 37 LINE",
"99 0 LINE",
"390 0 LINE",
"390 37 LINE",
"259 46 LINE",
"259 636 LINE",
"742 -7 LINE"
);
}
);
vertOrigin = 10;
width = 1000;
}
);
note = cid59989;
unicode = FF2E;
},
{
glyphname = O.full;
lastChange = "2019-12-26 05:49:10 +0000";
layers = (
{
layerId = "AODEWCWT-RYM3-6S2H-YGKD-BAMV0KWXFSSX";
paths = (
{
closed = 1;
nodes = (
"713 -18 OFFCURVE",
"870 129 OFFCURVE",
"870 373 CURVE SMOOTH",
"870 618 OFFCURVE",
"713 765 OFFCURVE",
"500 765 CURVE SMOOTH",
"288 765 OFFCURVE",
"130 618 OFFCURVE",
"130 373 CURVE SMOOTH",
"130 129 OFFCURVE",
"287 -18 OFFCURVE",
"500 -18 CURVE SMOOTH"
);
},
{
closed = 1;
nodes = (
"323 22 OFFCURVE",
"223 170 OFFCURVE",
"223 373 CURVE SMOOTH",
"223 576 OFFCURVE",
"323 726 OFFCURVE",
"500 726 CURVE SMOOTH",
"677 726 OFFCURVE",
"777 576 OFFCURVE",
"777 373 CURVE SMOOTH",
"777 170 OFFCURVE",
"677 22 OFFCURVE",
"500 22 CURVE SMOOTH"
);
}
);
vertOrigin = 7;
width = 1000;
}
);
note = cid59990;
unicode = FF2F;
},
{
glyphname = P.full;
lastChange = "2019-12-26 05:49:10 +0000";
layers = (
{
layerId = "AODEWCWT-RYM3-6S2H-YGKD-BAMV0KWXFSSX";
paths = (
{
closed = 1;
nodes = (
"531 0 LINE",
"531 37 LINE",
"406 46 LINE",
"405 136 OFFCURVE",
"405 226 OFFCURVE",
"405 303 CURVE",
"523 303 LINE SMOOTH",
"742 303 OFFCURVE",
"833 396 OFFCURVE",
"833 529 CURVE SMOOTH",
"833 664 OFFCURVE",
"748 748 OFFCURVE",
"548 748 CURVE SMOOTH",
"204 748 LINE",
"204 710 LINE",
"315 702 LINE",
"318 603 OFFCURVE",
"317 502 OFFCURVE",
"317 401 CURVE SMOOTH",
"317 346 LINE SMOOTH",
"317 246 OFFCURVE",
"318 144 OFFCURVE",
"315 46 CURVE",
"204 37 LINE",
"204 0 LINE"
);
},
{
closed = 1;
nodes = (
"405 401 LINE SMOOTH",
"405 504 OFFCURVE",
"405 606 OFFCURVE",
"406 707 CURVE",
"547 707 LINE SMOOTH",
"685 707 OFFCURVE",
"748 645 OFFCURVE",
"748 529 CURVE SMOOTH",
"748 414 OFFCURVE",
"680 341 OFFCURVE",
"523 341 CURVE SMOOTH",
"405 341 LINE"
);
}
);
vertOrigin = 6;
width = 1000;
}
);
note = cid59991;
unicode = FF30;
},
{
glyphname = Q.full;
lastChange = "2019-12-26 05:49:10 +0000";
layers = (
{
layerId = "AODEWCWT-RYM3-6S2H-YGKD-BAMV0KWXFSSX";
paths = (
{
closed = 1;
nodes = (
"755 -222 OFFCURVE",
"803 -212 OFFCURVE",
"860 -175 CURVE",
"844 -143 LINE",
"799 -167 OFFCURVE",
"763 -174 OFFCURVE",
"711 -174 CURVE SMOOTH",
"620 -174 OFFCURVE",
"561 -113 OFFCURVE",
"553 -15 CURVE",
"738 8 OFFCURVE",
"870 150 OFFCURVE",
"870 373 CURVE SMOOTH",
"870 618 OFFCURVE",
"713 765 OFFCURVE",
"500 765 CURVE SMOOTH",
"288 765 OFFCURVE",
"130 618 OFFCURVE",
"130 373 CURVE SMOOTH",
"130 143 OFFCURVE",
"270 -1 OFFCURVE",
"465 -17 CURVE",
"469 -118 OFFCURVE",
"540 -222 OFFCURVE",
"703 -222 CURVE SMOOTH"
);
},
{
closed = 1;
nodes = (
"323 22 OFFCURVE",
"223 170 OFFCURVE",
"223 373 CURVE SMOOTH",
"223 576 OFFCURVE",
"323 726 OFFCURVE",
"500 726 CURVE SMOOTH",
"677 726 OFFCURVE",
"777 576 OFFCURVE",
"777 373 CURVE SMOOTH",
"777 170 OFFCURVE",
"677 22 OFFCURVE",
"500 22 CURVE SMOOTH"
);
}
);
vertOrigin = 109;
width = 1000;
}
);
note = cid59992;
unicode = FF31;
},
{
glyphname = R.full;
lastChange = "2019-12-26 05:49:10 +0000";
layers = (
{
layerId = "AODEWCWT-RYM3-6S2H-YGKD-BAMV0KWXFSSX";
paths = (
{
closed = 1;
nodes = (
"847 -10 OFFCURVE",
"873 -6 OFFCURVE",
"903 0 CURVE",
"903 37 LINE",
"784 46 LINE",
"714 229 LINE SMOOTH",
"688 304 OFFCURVE",
"669 347 OFFCURVE",
"586 364 CURVE",
"716 385 OFFCURVE",
"781 463 OFFCURVE",
"781 555 CURVE SMOOTH",
"781 682 OFFCURVE",
"689 748 OFFCURVE",
"525 748 CURVE SMOOTH",
"164 748 LINE",
"164 710 LINE",
"276 702 LINE",
"278 603 OFFCURVE",
"277 502 OFFCURVE",
"277 401 CURVE SMOOTH",
"277 346 LINE SMOOTH",
"277 245 OFFCURVE",
"278 144 OFFCURVE",
"276 45 CURVE",
"164 37 LINE",
"164 0 LINE",
"487 0 LINE",
"487 37 LINE",
"366 46 LINE",
"364 142 OFFCURVE",
"364 242 OFFCURVE",
"364 346 CURVE",
"490 346 LINE SMOOTH",
"579 346 OFFCURVE",
"595 308 OFFCURVE",
"624 232 CURVE SMOOTH",
"691 61 LINE",
"704 12 OFFCURVE",
"733 -10 OFFCURVE",
"808 -10 CURVE SMOOTH"
);
},
{
closed = 1;
nodes = (
"364 506 OFFCURVE",
"364 608 OFFCURVE",
"366 707 CURVE",
"502 707 LINE SMOOTH",
"631 707 OFFCURVE",
"693 655 OFFCURVE",
"693 550 CURVE SMOOTH",
"693 453 OFFCURVE",
"624 384 OFFCURVE",
"512 384 CURVE SMOOTH",
"364 384 LINE"
);
}
);
vertOrigin = 11;
width = 1000;
}
);
note = cid59993;
unicode = FF32;
},
{
glyphname = S.full;
lastChange = "2019-12-26 05:49:10 +0000";
layers = (
{
layerId = "AODEWCWT-RYM3-6S2H-YGKD-BAMV0KWXFSSX";
paths = (
{
closed = 1;
nodes = (
"666 -18 OFFCURVE",
"776 56 OFFCURVE",
"776 191 CURVE SMOOTH",
"776 284 OFFCURVE",
"731 356 OFFCURVE",
"573 405 CURVE SMOOTH",
"474 436 LINE SMOOTH",
"384 464 OFFCURVE",
"337 511 OFFCURVE",
"337 583 CURVE SMOOTH",
"337 676 OFFCURVE",
"417 725 OFFCURVE",
"530 725 CURVE SMOOTH",
"582 725 OFFCURVE",
"624 715 OFFCURVE",
"667 693 CURVE",
"682 563 LINE",
"736 563 LINE",
"740 706 LINE",
"677 746 OFFCURVE",
"619 765 OFFCURVE",
"527 765 CURVE SMOOTH",
"376 765 OFFCURVE",
"258 698 OFFCURVE",
"258 564 CURVE SMOOTH",
"258 459 OFFCURVE",
"322 392 OFFCURVE",
"448 354 CURVE SMOOTH",
"542 326 LINE SMOOTH",
"652 290 OFFCURVE",
"695 245 OFFCURVE",
"695 169 CURVE SMOOTH",
"695 76 OFFCURVE",
"614 23 OFFCURVE",
"491 23 CURVE SMOOTH",
"421 23 OFFCURVE",
"363 35 OFFCURVE",
"309 63 CURVE",
"294 200 LINE",
"242 200 LINE",
"234 50 LINE",
"306 6 OFFCURVE",
"388 -18 OFFCURVE",
"491 -18 CURVE SMOOTH"
);
}
);
vertOrigin = 7;
width = 1000;
}
);
note = cid59994;
unicode = FF33;
},
{
glyphname = T.full;
lastChange = "2019-12-26 05:49:10 +0000";
layers = (
{
layerId = "AODEWCWT-RYM3-6S2H-YGKD-BAMV0KWXFSSX";
paths = (
{
closed = 1;
nodes = (
"677 0 LINE",
"677 37 LINE",
"545 46 LINE",
"544 145 OFFCURVE",
"544 246 OFFCURVE",
"544 346 CURVE SMOOTH",
"544 401 LINE SMOOTH",
"544 504 OFFCURVE",
"544 607 OFFCURVE",
"545 708 CURVE",
"766 708 LINE",
"785 556 LINE",
"836 556 LINE",
"829 748 LINE",
"171 748 LINE",
"164 556 LINE",
"216 556 LINE",
"234 708 LINE",
"455 708 LINE",
"456 607 OFFCURVE",
"456 503 OFFCURVE",
"456 401 CURVE SMOOTH",
"456 346 LINE SMOOTH",
"456 246 OFFCURVE",
"456 145 OFFCURVE",
"455 46 CURVE",
"323 37 LINE",
"323 0 LINE"
);
}
);
vertOrigin = 6;
width = 1000;
}
);
note = cid59995;
unicode = FF34;
},
{
glyphname = U.full;
lastChange = "2019-12-26 05:49:10 +0000";
layers = (
{
layerId = "AODEWCWT-RYM3-6S2H-YGKD-BAMV0KWXFSSX";
paths = (
{
closed = 1;
nodes = (
"693 -18 OFFCURVE",
"797 90 OFFCURVE",
"797 303 CURVE SMOOTH",
"797 703 LINE",
"897 710 LINE",
"897 748 LINE",
"646 748 LINE",
"646 710 LINE",
"753 703 LINE",
"753 315 LINE SMOOTH",
"753 119 OFFCURVE",
"680 38 OFFCURVE",
"527 38 CURVE SMOOTH",
"386 38 OFFCURVE",
"302 110 OFFCURVE",
"302 299 CURVE SMOOTH",
"302 401 LINE SMOOTH",
"302 503 OFFCURVE",
"302 603 OFFCURVE",
"303 702 CURVE",
"421 710 LINE",
"421 748 LINE",
"102 748 LINE",
"102 710 LINE",
"213 702 LINE",
"214 602 OFFCURVE",
"214 502 OFFCURVE",
"214 401 CURVE SMOOTH",
"214 298 LINE SMOOTH",
"214 68 OFFCURVE",
"329 -18 OFFCURVE",
"508 -18 CURVE SMOOTH"
);
}
);
vertOrigin = 15;
width = 1000;
}
);
note = cid59996;
unicode = FF35;
},
{
glyphname = V.full;
lastChange = "2019-12-26 05:49:10 +0000";
layers = (
{
layerId = "AODEWCWT-RYM3-6S2H-YGKD-BAMV0KWXFSSX";
paths = (
{
closed = 1;
nodes = (
"548 -7 LINE",
"814 701 LINE",
"919 710 LINE",
"919 748 LINE",
"662 748 LINE",
"662 710 LINE",
"771 701 LINE",
"540 85 LINE",
"306 702 LINE",
"425 710 LINE",
"425 748 LINE",
"108 748 LINE",
"108 710 LINE",
"213 703 LINE",
"488 -7 LINE"
);
}
);
vertOrigin = 10;
width = 1000;
}
);
note = cid59997;
unicode = FF36;
},
{
glyphname = W.full;
lastChange = "2019-12-26 05:49:10 +0000";
layers = (
{
layerId = "AODEWCWT-RYM3-6S2H-YGKD-BAMV0KWXFSSX";
paths = (
{
closed = 1;
nodes = (
"335 -7 LINE",
"504 615 LINE",
"676 -7 LINE",
"732 -7 LINE",
"915 701 LINE",
"1012 710 LINE",
"1012 748 LINE",
"776 748 LINE",
"776 710 LINE",
"872 701 LINE",
"726 107 LINE",
"566 702 LINE",
"671 710 LINE",
"671 748 LINE",
"385 748 LINE",
"385 710 LINE",
"489 702 LINE",
"330 108 LINE",
"180 702 LINE",
"276 710 LINE",
"276 748 LINE",
"3 748 LINE",
"3 710 LINE",
"88 703 LINE",
"279 -7 LINE"
);
}
);
vertOrigin = 10;
width = 1000;
}
);
note = cid59998;
unicode = FF37;
},
{
glyphname = X.full;
lastChange = "2019-12-26 05:49:10 +0000";
layers = (
{
layerId = "AODEWCWT-RYM3-6S2H-YGKD-BAMV0KWXFSSX";
paths = (
{
closed = 1;
nodes = (
"386 0 LINE",
"386 37 LINE",
"278 44 LINE",
"488 330 LINE",
"684 45 LINE",
"588 37 LINE",
"588 0 LINE",
"883 0 LINE",
"883 37 LINE",
"776 46 LINE",
"539 391 LINE",
"770 702 LINE",
"869 710 LINE",
"869 748 LINE",
"610 748 LINE",
"610 710 LINE",
"717 702 LINE",
"516 423 LINE",
"323 703 LINE",
"426 710 LINE",
"426 748 LINE",
"135 748 LINE",
"135 710 LINE",
"232 702 LINE",
"465 362 LINE",
"224 44 LINE",
"117 37 LINE",
"117 0 LINE"
);
}
);
vertOrigin = 6;
width = 1000;
}
);
note = cid59999;
unicode = FF38;
},
{
glyphname = Y.full;
lastChange = "2019-12-26 05:49:10 +0000";
layers = (
{
layerId = "AODEWCWT-RYM3-6S2H-YGKD-BAMV0KWXFSSX";
paths = (
{
closed = 1;
nodes = (
"679 0 LINE",
"679 37 LINE",
"553 46 LINE",
"551 121 OFFCURVE",
"551 164 OFFCURVE",
"551 255 CURVE SMOOTH",
"551 297 LINE",
"781 701 LINE",
"895 710 LINE",
"895 748 LINE",
"625 748 LINE",
"625 710 LINE",
"736 701 LINE",
"534 343 LINE",
"334 703 LINE",
"445 710 LINE",
"445 748 LINE",
"127 748 LINE",
"127 710 LINE",
"234 702 LINE",
"463 297 LINE",
"463 255 LINE SMOOTH",
"463 163 OFFCURVE",
"463 121 OFFCURVE",
"461 46 CURVE",
"335 37 LINE",
"335 0 LINE"
);
}
);
vertOrigin = 6;
width = 1000;
}
);
note = cid60000;
unicode = FF39;
},
{
glyphname = Z.full;
lastChange = "2019-12-26 05:49:10 +0000";
layers = (
{
layerId = "AODEWCWT-RYM3-6S2H-YGKD-BAMV0KWXFSSX";
paths = (
{
closed = 1;
nodes = (
"802 0 LINE",
"812 191 LINE",
"765 191 LINE",
"740 39 LINE",
"304 39 LINE",
"799 717 LINE",
"799 748 LINE",
"220 748 LINE",
"211 556 LINE",
"258 556 LINE",
"282 708 LINE",
"696 708 LINE",
"201 30 LINE",
"201 0 LINE"
);
}
);
vertOrigin = 6;
width = 1000;
}
);
note = cid60001;
unicode = FF3A;
},
{
color = 4;
glyphname = A_P_T_O.rlig;
lastChange = "2023-03-13 01:34:33 +0000";
layers = (
{
components = (
{
alignment = -1;
name = _smart.Ap;
piece = {
Width = 0;
};
},
{
name = _smart.o;
piece = {
Height = 100;
Width = 0;
};
transform = "{1, 0, 0, 1, 646, 309}";
}
);
layerId = "AODEWCWT-RYM3-6S2H-YGKD-BAMV0KWXFSSX";
paths = (
{
closed = 1;
nodes = (
"664 297 OFFCURVE",
"692 313 OFFCURVE",
"709 335 CURVE",
"694 355 LINE",
"684 346 OFFCURVE",
"674 342 OFFCURVE",
"660 342 CURVE SMOOTH",
"639 342 OFFCURVE",
"628 360 OFFCURVE",
"628 390 CURVE SMOOTH",
"628 699 LINE",
"701 697 LINE",
"701 736 LINE",
"629 736 LINE",
"633 823 LINE",
"588 823 LINE",
"558 736 LINE",
"524 731 LINE",
"524 699 LINE",
"557 699 LINE",
"557 474 LINE SMOOTH",
"557 441 OFFCURVE",
"556 419 OFFCURVE",
"556 392 CURVE SMOOTH",
"556 337 OFFCURVE",
"579 297 OFFCURVE",
"631 297 CURVE SMOOTH"
);
}
);
width = 1000;
}
);
},
{
color = 4;
glyphname = B_T_A.rlig;
lastChange = "2023-03-13 16:21:44 +0000";
layers = (
{
background = {
paths = (
{
closed = 1;
nodes = (
"381 -16 OFFCURVE",
"461 59 OFFCURVE",
"461 265 CURVE SMOOTH",
"461 475 OFFCURVE",
"390 545 OFFCURVE",
"293 545 CURVE SMOOTH",
"245 545 OFFCURVE",
"198 521 OFFCURVE",
"162 457 CURVE",
"162 647 LINE",
"166 805 LINE",
"148 815 LINE",
"6 790 LINE",
"6 763 LINE",
"83 759 LINE",
"83 229 LINE SMOOTH",
"83 178 OFFCURVE",
"82 103 OFFCURVE",
"80 36 CURVE",
"18 30 LINE",
"18 0 LINE",
"154 -7 LINE",
"162 66 LINE",
"195 7 OFFCURVE",
"239 -16 OFFCURVE",
"284 -16 CURVE SMOOTH"
);
},
{
closed = 1;
nodes = (
"163 421 LINE",
"196 474 OFFCURVE",
"227 492 OFFCURVE",
"267 492 CURVE SMOOTH",
"333 492 OFFCURVE",
"376 445 OFFCURVE",
"376 265 CURVE SMOOTH",
"376 83 OFFCURVE",
"328 37 OFFCURVE",
"263 37 CURVE SMOOTH",
"225 37 OFFCURVE",
"195 56 OFFCURVE",
"163 101 CURVE"
);
}
);
};
components = (
{
name = _smart.a;
piece = {
Height = 100;
Width = 30;
};
transform = "{1, 0, 0, 1, 572, 309}";
}
);
layerId = "AODEWCWT-RYM3-6S2H-YGKD-BAMV0KWXFSSX";
paths = (
{
closed = 1;
nodes = (
"329 -16 OFFCURVE",
"391 59 OFFCURVE",
"391 265 CURVE SMOOTH",
"391 475 OFFCURVE",
"337 545 OFFCURVE",
"262 545 CURVE SMOOTH",
"225 545 OFFCURVE",
"190 525 OFFCURVE",
"164 475 CURVE",
"164 647 LINE",
"168 805 LINE",
"150 815 LINE",
"28 790 LINE",
"28 763 LINE",
"85 759 LINE",
"85 147 LINE",
"82 -1 LINE",
"103 -6 LINE",
"158 69 LINE",
"150 69 LINE",
"178 7 OFFCURVE",
"213 -16 OFFCURVE",
"254 -16 CURVE SMOOTH"
);
},
{
closed = 1;
nodes = (
"203 37 OFFCURVE",
"183 52 OFFCURVE",
"164 88 CURVE",
"164 436 LINE",
"184 478 OFFCURVE",
"206 492 OFFCURVE",
"233 492 CURVE SMOOTH",
"277 492 OFFCURVE",
"308 445 OFFCURVE",
"308 265 CURVE SMOOTH",
"308 83 OFFCURVE",
"273 37 OFFCURVE",
"229 37 CURVE SMOOTH"
);
},
{
closed = 1;
nodes = (
"572 297 OFFCURVE",
"608 317 OFFCURVE",
"629 345 CURVE",
"614 365 LINE",
"596 350 OFFCURVE",
"582 342 OFFCURVE",
"560 342 CURVE SMOOTH",
"532 342 OFFCURVE",
"519 364 OFFCURVE",
"519 400 CURVE SMOOTH",
"519 699 LINE",
"621 697 LINE",
"621 736 LINE",
"520 736 LINE",
"524 823 LINE",
"477 823 LINE",
"447 736 LINE",
"393 731 LINE",
"393 699 LINE",
"446 699 LINE",
"446 484 LINE SMOOTH",
"446 451 OFFCURVE",
"445 429 OFFCURVE",
"445 402 CURVE SMOOTH",
"445 341 OFFCURVE",
"472 297 OFFCURVE",
"531 297 CURVE SMOOTH"
);
}
);
width = 1000;
}
);
},
{
color = 4;
glyphname = B_T_O.rlig;
lastChange = "2023-03-13 00:56:42 +0000";
layers = (
{
components = (
{
name = _smart.o;
piece = {
Height = 100;
Width = 20;
};
transform = "{1, 0, 0, 1, 584, 309}";
}
);
layerId = "AODEWCWT-RYM3-6S2H-YGKD-BAMV0KWXFSSX";
paths = (
{
closed = 1;
nodes = (
"329 -16 OFFCURVE",
"391 59 OFFCURVE",
"391 265 CURVE SMOOTH",
"391 475 OFFCURVE",
"337 545 OFFCURVE",
"262 545 CURVE SMOOTH",
"225 545 OFFCURVE",
"190 524 OFFCURVE",
"164 474 CURVE",
"164 647 LINE",
"168 805 LINE",
"150 815 LINE",
"28 790 LINE",
"28 763 LINE",
"85 759 LINE",
"85 147 LINE",
"82 -1 LINE",
"103 -6 LINE",
"158 69 LINE",
"150 69 LINE",
"178 7 OFFCURVE",
"213 -16 OFFCURVE",
"254 -16 CURVE SMOOTH"
);
},
{
closed = 1;
nodes = (
"203 37 OFFCURVE",
"183 52 OFFCURVE",
"164 88 CURVE",
"164 436 LINE",
"184 478 OFFCURVE",
"206 492 OFFCURVE",
"233 492 CURVE SMOOTH",
"277 492 OFFCURVE",
"308 445 OFFCURVE",
"308 265 CURVE SMOOTH",
"308 83 OFFCURVE",
"273 37 OFFCURVE",
"229 37 CURVE SMOOTH"
);
},
{
closed = 1;
nodes = (
"572 297 OFFCURVE",
"608 317 OFFCURVE",
"629 345 CURVE",
"614 365 LINE",
"596 350 OFFCURVE",
"582 342 OFFCURVE",
"560 342 CURVE SMOOTH",
"532 342 OFFCURVE",
"519 364 OFFCURVE",
"519 400 CURVE SMOOTH",
"519 699 LINE",
"621 697 LINE",
"621 736 LINE",
"520 736 LINE",
"524 823 LINE",
"477 823 LINE",
"447 736 LINE",
"393 731 LINE",
"393 699 LINE",
"446 699 LINE",
"446 484 LINE SMOOTH",
"446 451 OFFCURVE",
"445 429 OFFCURVE",
"445 402 CURVE SMOOTH",
"445 341 OFFCURVE",
"472 297 OFFCURVE",
"531 297 CURVE SMOOTH"
);
}
);
width = 1000;
}
);
},
{
color = 4;
glyphname = D_E.rlig;
lastChange = "2023-03-20 15:26:30 +0000";
layers = (
{
background = {
paths = (
{
closed = 1;
nodes = (
"41 715 LINE",
"88 710 LINE",
"90 608 OFFCURVE",
"90 504 OFFCURVE",
"90 402 CURVE SMOOTH",
"90 346 LINE SMOOTH",
"90 243 OFFCURVE",
"90 139 OFFCURVE",
"88 38 CURVE",
"41 32 LINE",
"41 0 LINE",
"202 0 LINE SMOOTH",
"350 0 OFFCURVE",
"445 100 OFFCURVE",
"445 374 CURVE SMOOTH",
"445 659 OFFCURVE",
"348 747 OFFCURVE",
"203 747 CURVE SMOOTH",
"41 747 LINE"
);
},
{
closed = 1;
nodes = (
"172 34 LINE",
"170 137 OFFCURVE",
"170 242 OFFCURVE",
"170 347 CURVE SMOOTH",
"170 402 LINE SMOOTH",
"170 506 OFFCURVE",
"170 610 OFFCURVE",
"172 712 CURVE",
"199 712 LINE SMOOTH",
"306 712 OFFCURVE",
"360 639 OFFCURVE",
"360 374 CURVE SMOOTH",
"360 110 OFFCURVE",
"300 34 OFFCURVE",
"198 34 CURVE SMOOTH"
);
},
{
closed = 1;
nodes = (
"885 749 OFFCURVE",
"863 727 OFFCURVE",
"863 697 CURVE SMOOTH",
"863 675 OFFCURVE",
"872 658 OFFCURVE",
"898 641 CURVE SMOOTH",
"937 615 LINE",
"922 568 OFFCURVE",
"889 537 OFFCURVE",
"835 512 CURVE",
"846 487 LINE",
"929 522 OFFCURVE",
"981 584 OFFCURVE",
"981 662 CURVE SMOOTH",
"981 685 OFFCURVE",
"975 710 OFFCURVE",
"963 729 CURVE",
"951 742 OFFCURVE",
"935 749 OFFCURVE",
"917 749 CURVE SMOOTH"
);
}
);
};
components = (
{
name = _smart.e;
piece = {
Width = 0;
};
transform = "{1, 0, 0, 1, 436, 0}";
}
);
layerId = "AODEWCWT-RYM3-6S2H-YGKD-BAMV0KWXFSSX";
paths = (
{
closed = 1;
nodes = (
"41 715 LINE",
"88 710 LINE",
"90 608 OFFCURVE",
"90 504 OFFCURVE",
"90 402 CURVE SMOOTH",
"90 346 LINE SMOOTH",
"90 243 OFFCURVE",
"90 139 OFFCURVE",
"88 38 CURVE",
"41 32 LINE",
"41 0 LINE",
"202 0 LINE SMOOTH",
"350 0 OFFCURVE",
"445 100 OFFCURVE",
"445 374 CURVE SMOOTH",
"445 659 OFFCURVE",
"348 747 OFFCURVE",
"203 747 CURVE SMOOTH",
"41 747 LINE"
);
},
{
closed = 1;
nodes = (
"172 34 LINE",
"170 137 OFFCURVE",
"170 242 OFFCURVE",
"170 347 CURVE SMOOTH",
"170 402 LINE SMOOTH",
"170 506 OFFCURVE",
"170 610 OFFCURVE",
"172 712 CURVE",
"199 712 LINE SMOOTH",
"306 712 OFFCURVE",
"360 639 OFFCURVE",
"360 374 CURVE SMOOTH",
"360 110 OFFCURVE",
"300 34 OFFCURVE",
"198 34 CURVE SMOOTH"
);
},
{
closed = 1;
nodes = (
"855 749 OFFCURVE",
"833 727 OFFCURVE",
"833 697 CURVE SMOOTH",
"833 675 OFFCURVE",
"842 658 OFFCURVE",
"868 641 CURVE SMOOTH",
"907 615 LINE",
"895 568 OFFCURVE",
"868 537 OFFCURVE",
"825 512 CURVE",
"836 487 LINE",
"907 522 OFFCURVE",
"951 584 OFFCURVE",
"951 662 CURVE SMOOTH",
"951 709 OFFCURVE",
"933 749 OFFCURVE",
"887 749 CURVE SMOOTH"
);
}
);
width = 1000;
}
);
},
{
color = 4;
glyphname = D_E_two.rlig;
lastChange = "2023-03-13 01:35:37 +0000";
layers = (
{
background = {
paths = (
{
closed = 1;
nodes = (
"41 715 LINE",
"88 710 LINE",
"90 608 OFFCURVE",
"90 504 OFFCURVE",
"90 402 CURVE SMOOTH",
"90 346 LINE SMOOTH",
"90 243 OFFCURVE",
"90 139 OFFCURVE",
"88 38 CURVE",
"41 32 LINE",
"41 0 LINE",
"202 0 LINE SMOOTH",
"350 0 OFFCURVE",
"445 100 OFFCURVE",
"445 374 CURVE SMOOTH",
"445 659 OFFCURVE",
"348 747 OFFCURVE",
"203 747 CURVE SMOOTH",
"41 747 LINE"
);
},
{
closed = 1;
nodes = (
"172 34 LINE",
"170 137 OFFCURVE",
"170 242 OFFCURVE",
"170 347 CURVE SMOOTH",
"170 402 LINE SMOOTH",
"170 506 OFFCURVE",
"170 610 OFFCURVE",
"172 712 CURVE",
"199 712 LINE SMOOTH",
"306 712 OFFCURVE",
"360 639 OFFCURVE",
"360 374 CURVE SMOOTH",
"360 110 OFFCURVE",
"300 34 OFFCURVE",
"198 34 CURVE SMOOTH"
);
},
{
closed = 1;
nodes = (
"855 749 OFFCURVE",
"833 727 OFFCURVE",
"833 697 CURVE SMOOTH",
"833 675 OFFCURVE",
"842 658 OFFCURVE",
"868 641 CURVE SMOOTH",
"907 615 LINE",
"895 568 OFFCURVE",
"868 537 OFFCURVE",
"825 512 CURVE",
"836 487 LINE",
"907 522 OFFCURVE",
"951 584 OFFCURVE",
"951 662 CURVE SMOOTH",
"951 709 OFFCURVE",
"933 749 OFFCURVE",
"887 749 CURVE SMOOTH"
);
}
);
};
components = (
{
name = _smart.e;
piece = {
Width = 0;
};
transform = "{1, 0, 0, 1, 436, 0}";
}
);
layerId = "AODEWCWT-RYM3-6S2H-YGKD-BAMV0KWXFSSX";
paths = (
{
closed = 1;
nodes = (
"41 715 LINE",
"88 710 LINE",
"90 608 OFFCURVE",
"90 504 OFFCURVE",
"90 402 CURVE SMOOTH",
"90 346 LINE SMOOTH",
"90 243 OFFCURVE",
"90 139 OFFCURVE",
"88 38 CURVE",
"41 32 LINE",
"41 0 LINE",
"202 0 LINE SMOOTH",
"350 0 OFFCURVE",
"445 100 OFFCURVE",
"445 374 CURVE SMOOTH",
"445 659 OFFCURVE",
"348 747 OFFCURVE",
"203 747 CURVE SMOOTH",
"41 747 LINE"
);
},
{
closed = 1;
nodes = (
"172 34 LINE",
"170 137 OFFCURVE",
"170 242 OFFCURVE",
"170 347 CURVE SMOOTH",
"170 402 LINE SMOOTH",
"170 506 OFFCURVE",
"170 610 OFFCURVE",
"172 712 CURVE",
"199 712 LINE SMOOTH",
"306 712 OFFCURVE",
"360 639 OFFCURVE",
"360 374 CURVE SMOOTH",
"360 110 OFFCURVE",
"300 34 OFFCURVE",
"198 34 CURVE SMOOTH"
);
},
{
closed = 1;
nodes = (
"827 749 OFFCURVE",
"799 721 OFFCURVE",
"799 674 CURVE SMOOTH",
"799 629 OFFCURVE",
"824 590 OFFCURVE",
"893 561 CURVE",
"902 586 LINE",
"856 614 OFFCURVE",
"841 641 OFFCURVE",
"841 673 CURVE SMOOTH",
"841 700 OFFCURVE",
"852 713 OFFCURVE",
"872 713 CURVE SMOOTH",
"897 713 OFFCURVE",
"910 694 OFFCURVE",
"910 657 CURVE SMOOTH",
"910 596 OFFCURVE",
"887 548 OFFCURVE",
"825 512 CURVE",
"836 487 LINE",
"907 522 OFFCURVE",
"951 584 OFFCURVE",
"951 662 CURVE SMOOTH",
"951 709 OFFCURVE",
"929 749 OFFCURVE",
"871 749 CURVE SMOOTH"
);
}
);
width = 1000;
}
);
},
{
color = 4;
glyphname = D_P_O.rlig;
lastChange = "2023-03-13 17:09:14 +0000";
layers = (
{
layerId = "AODEWCWT-RYM3-6S2H-YGKD-BAMV0KWXFSSX";
paths = (
{
closed = 1;
nodes = (
"51 715 LINE",
"98 710 LINE",
"100 608 OFFCURVE",
"100 504 OFFCURVE",
"100 402 CURVE SMOOTH",
"100 346 LINE SMOOTH",
"100 243 OFFCURVE",
"100 139 OFFCURVE",
"98 38 CURVE",
"51 32 LINE",
"51 0 LINE",
"192 0 LINE SMOOTH",
"316 0 OFFCURVE",
"385 100 OFFCURVE",
"385 374 CURVE SMOOTH",
"385 659 OFFCURVE",
"314 747 OFFCURVE",
"193 747 CURVE SMOOTH",
"51 747 LINE"
);
},
{
closed = 1;
nodes = (
"182 34 LINE",
"180 137 OFFCURVE",
"180 242 OFFCURVE",
"180 347 CURVE SMOOTH",
"180 402 LINE SMOOTH",
"180 506 OFFCURVE",
"180 610 OFFCURVE",
"182 712 CURVE",
"189 712 LINE SMOOTH",
"286 712 OFFCURVE",
"334 639 OFFCURVE",
"334 374 CURVE SMOOTH",
"334 110 OFFCURVE",
"280 34 OFFCURVE",
"188 34 CURVE SMOOTH"
);
},
{
closed = 1;
nodes = (
"505 23 LINE",
"505 50 LINE",
"416 55 LINE",
"415 174 LINE",
"415 346 LINE",
"436 301 OFFCURVE",
"465 284 OFFCURVE",
"495 284 CURVE SMOOTH",
"567 284 OFFCURVE",
"625 346 OFFCURVE",
"625 515 CURVE SMOOTH",
"625 688 OFFCURVE",
"574 745 OFFCURVE",
"503 745 CURVE SMOOTH",
"470 745 OFFCURVE",
"438 727 OFFCURVE",
"415 677 CURVE",
"415 716 OFFCURVE",
"424 754 OFFCURVE",
"444 793 CURVE",
"429 809 LINE",
"364 760 OFFCURVE",
"344 715 OFFCURVE",
"344 578 CURVE SMOOTH",
"344 2 LINE",
"358 -7 LINE"
);
},
{
closed = 1;
nodes = (
"451 337 OFFCURVE",
"432 352 OFFCURVE",
"415 388 CURVE",
"415 636 LINE",
"433 678 OFFCURVE",
"454 692 OFFCURVE",
"479 692 CURVE SMOOTH",
"520 692 OFFCURVE",
"550 655 OFFCURVE",
"550 515 CURVE SMOOTH",
"550 373 OFFCURVE",
"516 337 OFFCURVE",
"474 337 CURVE SMOOTH"
);
},
{
closed = 1;
nodes = (
"894 284 OFFCURVE",
"948 366 OFFCURVE",
"948 516 CURVE SMOOTH",
"948 666 OFFCURVE",
"890 745 OFFCURVE",
"805 745 CURVE SMOOTH",
"720 745 OFFCURVE",
"662 666 OFFCURVE",
"662 516 CURVE SMOOTH",
"662 366 OFFCURVE",
"716 284 OFFCURVE",
"805 284 CURVE SMOOTH"
);
},
{
closed = 1;
nodes = (
"760 317 OFFCURVE",
"737 379 OFFCURVE",
"737 515 CURVE SMOOTH",
"737 649 OFFCURVE",
"760 714 OFFCURVE",
"805 714 CURVE SMOOTH",
"850 714 OFFCURVE",
"873 649 OFFCURVE",
"873 515 CURVE SMOOTH",
"873 379 OFFCURVE",
"850 317 OFFCURVE",
"805 317 CURVE SMOOTH"
);
}
);
width = 1000;
}
);
},
{
color = 4;
glyphname = D_S.rlig;
lastChange = "2023-03-20 15:25:48 +0000";
layers = (
{
background = {
paths = (
{
closed = 1;
nodes = (
"348 -7 LINE",
"490 0 LINE",
"490 30 LINE",
"427 35 LINE",
"427 652 LINE",
"430 805 LINE",
"413 815 LINE",
"269 790 LINE",
"269 763 LINE",
"347 758 LINE",
"347 462 LINE",
"315 522 OFFCURVE",
"271 545 OFFCURVE",
"224 545 CURVE SMOOTH",
"128 545 OFFCURVE",
"49 470 OFFCURVE",
"49 264 CURVE SMOOTH",
"49 55 OFFCURVE",
"119 -16 OFFCURVE",
"216 -16 CURVE SMOOTH",
"264 -16 OFFCURVE",
"311 8 OFFCURVE",
"346 71 CURVE"
);
},
{
closed = 1;
nodes = (
"346 107 LINE",
"313 55 OFFCURVE",
"282 37 OFFCURVE",
"244 37 CURVE SMOOTH",
"176 37 OFFCURVE",
"132 84 OFFCURVE",
"132 264 CURVE SMOOTH",
"132 446 OFFCURVE",
"182 492 OFFCURVE",
"248 492 CURVE SMOOTH",
"285 492 OFFCURVE",
"315 473 OFFCURVE",
"346 428 CURVE"
);
},
{
closed = 1;
nodes = (
"637 0 LINE",
"822 0 LINE",
"822 30 LINE",
"723 35 LINE",
"722 102 OFFCURVE",
"721 168 OFFCURVE",
"721 234 CURVE",
"722 589 LINE",
"722 750 OFFCURVE",
"765 804 OFFCURVE",
"832 804 CURVE SMOOTH",
"843 804 OFFCURVE",
"853 802 OFFCURVE",
"863 798 CURVE",
"873 732 LINE SMOOTH",
"879 694 OFFCURVE",
"893 679 OFFCURVE",
"914 679 CURVE SMOOTH",
"936 679 OFFCURVE",
"951 687 OFFCURVE",
"957 713 CURVE",
"945 790 OFFCURVE",
"901 836 OFFCURVE",
"823 836 CURVE SMOOTH",
"712 836 OFFCURVE",
"640 754 OFFCURVE",
"640 565 CURVE SMOOTH",
"640 528 LINE",
"552 520 LINE",
"552 490 LINE",
"640 490 LINE",
"640 234 LINE SMOOTH",
"640 168 OFFCURVE",
"639 102 OFFCURVE",
"638 36 CURVE",
"555 30 LINE",
"555 0 LINE"
);
},
{
closed = 1;
nodes = (
"190 582 LINE",
"206 631 OFFCURVE",
"230 658 OFFCURVE",
"265 658 CURVE SMOOTH",
"300 658 OFFCURVE",
"322 636 OFFCURVE",
"346 614 CURVE SMOOTH",
"367 593 OFFCURVE",
"392 575 OFFCURVE",
"433 575 CURVE SMOOTH",
"493 575 OFFCURVE",
"530 621 OFFCURVE",
"543 696 CURVE",
"519 704 LINE",
"504 655 OFFCURVE",
"482 628 OFFCURVE",
"444 628 CURVE SMOOTH",
"410 628 OFFCURVE",
"389 648 OFFCURVE",
"365 670 CURVE SMOOTH",
"342 691 OFFCURVE",
"317 711 OFFCURVE",
"278 711 CURVE SMOOTH",
"219 711 OFFCURVE",
"179 664 OFFCURVE",
"168 589 CURVE"
);
}
);
};
layerId = "AODEWCWT-RYM3-6S2H-YGKD-BAMV0KWXFSSX";
paths = (
{
closed = 1;
nodes = (
"303 -16 OFFCURVE",
"353 8 OFFCURVE",
"391 71 CURVE",
"393 -7 LINE",
"535 0 LINE",
"535 30 LINE",
"472 35 LINE",
"472 652 LINE",
"475 805 LINE",
"458 815 LINE",
"314 790 LINE",
"314 763 LINE",
"392 758 LINE",
"392 462 LINE",
"357 522 OFFCURVE",
"310 545 OFFCURVE",
"259 545 CURVE SMOOTH",
"163 545 OFFCURVE",
"84 470 OFFCURVE",
"84 264 CURVE SMOOTH",
"84 55 OFFCURVE",
"154 -16 OFFCURVE",
"251 -16 CURVE SMOOTH"
);
},
{
closed = 1;
nodes = (
"211 37 OFFCURVE",
"167 84 OFFCURVE",
"167 264 CURVE SMOOTH",
"167 446 OFFCURVE",
"217 492 OFFCURVE",
"283 492 CURVE SMOOTH",
"324 492 OFFCURVE",
"357 473 OFFCURVE",
"391 428 CURVE",
"391 107 LINE",
"355 55 OFFCURVE",
"321 37 OFFCURVE",
"279 37 CURVE SMOOTH"
);
},
{
closed = 1;
nodes = (
"140 611 OFFCURVE",
"193 638 OFFCURVE",
"280 638 CURVE SMOOTH",
"412 638 OFFCURVE",
"607 571 OFFCURVE",
"768 571 CURVE SMOOTH",
"881 571 OFFCURVE",
"936 612 OFFCURVE",
"968 676 CURVE",
"946 684 LINE",
"915 648 OFFCURVE",
"870 628 OFFCURVE",
"784 628 CURVE SMOOTH",
"629 628 OFFCURVE",
"434 695 OFFCURVE",
"293 695 CURVE SMOOTH",
"176 695 OFFCURVE",
"113 646 OFFCURVE",
"83 569 CURVE",
"105 562 LINE"
);
},
{
closed = 1;
nodes = (
"662 0 LINE",
"847 0 LINE",
"847 30 LINE",
"748 35 LINE",
"747 102 OFFCURVE",
"746 168 OFFCURVE",
"746 234 CURVE SMOOTH",
"746 589 LINE SMOOTH",
"746 743 OFFCURVE",
"782 794 OFFCURVE",
"837 794 CURVE SMOOTH",
"844 794 OFFCURVE",
"851 793 OFFCURVE",
"858 789 CURVE",
"876 751 LINE SMOOTH",
"887 729 OFFCURVE",
"904 719 OFFCURVE",
"925 719 CURVE SMOOTH",
"943 719 OFFCURVE",
"958 728 OFFCURVE",
"962 743 CURVE",
"942 795 OFFCURVE",
"901 826 OFFCURVE",
"838 826 CURVE SMOOTH",
"733 826 OFFCURVE",
"665 747 OFFCURVE",
"665 565 CURVE SMOOTH",
"665 528 LINE",
"577 520 LINE",
"577 490 LINE",
"665 490 LINE",
"665 234 LINE SMOOTH",
"665 168 OFFCURVE",
"664 102 OFFCURVE",
"663 36 CURVE",
"580 30 LINE",
"580 0 LINE"
);
}
);
width = 1000;
}
);
},
{
color = 4;
glyphname = D_S_two.rlig;
lastChange = "2023-03-13 17:23:46 +0000";
layers = (
{
background = {
paths = (
{
closed = 1;
nodes = (
"284 -16 OFFCURVE",
"331 8 OFFCURVE",
"366 71 CURVE",
"368 -7 LINE",
"510 0 LINE",
"510 30 LINE",
"447 35 LINE",
"447 652 LINE",
"450 805 LINE",
"433 815 LINE",
"289 790 LINE",
"289 763 LINE",
"367 758 LINE",
"367 462 LINE",
"335 522 OFFCURVE",
"291 545 OFFCURVE",
"244 545 CURVE SMOOTH",
"148 545 OFFCURVE",
"69 470 OFFCURVE",
"69 264 CURVE SMOOTH",
"69 55 OFFCURVE",
"139 -16 OFFCURVE",
"236 -16 CURVE SMOOTH"
);
},
{
closed = 1;
nodes = (
"196 37 OFFCURVE",
"152 84 OFFCURVE",
"152 264 CURVE SMOOTH",
"152 446 OFFCURVE",
"202 492 OFFCURVE",
"268 492 CURVE SMOOTH",
"305 492 OFFCURVE",
"335 473 OFFCURVE",
"366 428 CURVE",
"366 107 LINE",
"333 55 OFFCURVE",
"302 37 OFFCURVE",
"264 37 CURVE SMOOTH"
);
},
{
closed = 1;
nodes = (
"125 611 OFFCURVE",
"178 638 OFFCURVE",
"265 638 CURVE SMOOTH",
"397 638 OFFCURVE",
"612 575 OFFCURVE",
"773 575 CURVE SMOOTH",
"892 575 OFFCURVE",
"949 618 OFFCURVE",
"983 686 CURVE",
"961 694 LINE",
"928 658 OFFCURVE",
"880 638 OFFCURVE",
"789 638 CURVE SMOOTH",
"634 638 OFFCURVE",
"419 701 OFFCURVE",
"278 701 CURVE SMOOTH",
"161 701 OFFCURVE",
"98 650 OFFCURVE",
"68 569 CURVE",
"90 562 LINE"
);
},
{
closed = 1;
nodes = (
"740 0 LINE",
"742 589 LINE",
"742 750 OFFCURVE",
"781 804 OFFCURVE",
"842 804 CURVE SMOOTH",
"853 804 OFFCURVE",
"863 802 OFFCURVE",
"873 798 CURVE",
"891 761 LINE SMOOTH",
"902 739 OFFCURVE",
"919 729 OFFCURVE",
"940 729 CURVE SMOOTH",
"958 729 OFFCURVE",
"973 738 OFFCURVE",
"977 753 CURVE",
"955 805 OFFCURVE",
"911 836 OFFCURVE",
"843 836 CURVE SMOOTH",
"732 836 OFFCURVE",
"660 754 OFFCURVE",
"660 565 CURVE SMOOTH",
"660 528 LINE",
"572 520 LINE",
"572 490 LINE",
"660 490 LINE",
"660 234 LINE SMOOTH",
"660 168 OFFCURVE",
"659 102 OFFCURVE",
"658 36 CURVE",
"575 30 LINE",
"575 0 LINE"
);
}
);
};
layerId = "AODEWCWT-RYM3-6S2H-YGKD-BAMV0KWXFSSX";
paths = (
{
closed = 1;
nodes = (
"303 -16 OFFCURVE",
"353 8 OFFCURVE",
"391 71 CURVE",
"393 0 LINE",
"746 0 LINE",
"746 589 LINE SMOOTH",
"746 743 OFFCURVE",
"784 794 OFFCURVE",
"842 794 CURVE SMOOTH",
"889 794 OFFCURVE",
"918 762 OFFCURVE",
"918 720 CURVE SMOOTH",
"918 670 OFFCURVE",
"879 632 OFFCURVE",
"774 632 CURVE SMOOTH",
"622 632 OFFCURVE",
"431 695 OFFCURVE",
"293 695 CURVE SMOOTH",
"176 695 OFFCURVE",
"113 646 OFFCURVE",
"83 569 CURVE",
"105 562 LINE",
"140 615 OFFCURVE",
"193 644 OFFCURVE",
"280 644 CURVE SMOOTH",
"409 644 OFFCURVE",
"600 581 OFFCURVE",
"758 581 CURVE SMOOTH",
"877 581 OFFCURVE",
"968 628 OFFCURVE",
"968 721 CURVE SMOOTH",
"968 788 OFFCURVE",
"920 826 OFFCURVE",
"848 826 CURVE SMOOTH",
"733 826 OFFCURVE",
"665 747 OFFCURVE",
"665 565 CURVE SMOOTH",
"665 528 LINE",
"577 520 LINE",
"577 490 LINE",
"665 490 LINE",
"665 234 LINE SMOOTH",
"665 168 OFFCURVE",
"664 102 OFFCURVE",
"663 36 CURVE",
"558 30 LINE",
"472 35 LINE",
"472 652 LINE",
"475 805 LINE",
"458 815 LINE",
"314 790 LINE",
"314 763 LINE",
"392 758 LINE",
"392 462 LINE",
"357 522 OFFCURVE",
"310 545 OFFCURVE",
"259 545 CURVE SMOOTH",
"163 545 OFFCURVE",
"84 470 OFFCURVE",
"84 264 CURVE SMOOTH",
"84 55 OFFCURVE",
"154 -16 OFFCURVE",
"251 -16 CURVE SMOOTH"
);
},
{
closed = 1;
nodes = (
"211 37 OFFCURVE",
"167 84 OFFCURVE",
"167 264 CURVE SMOOTH",
"167 446 OFFCURVE",
"217 492 OFFCURVE",
"283 492 CURVE SMOOTH",
"324 492 OFFCURVE",
"357 473 OFFCURVE",
"391 428 CURVE",
"391 107 LINE",
"355 55 OFFCURVE",
"321 37 OFFCURVE",
"279 37 CURVE SMOOTH"
);
}
);
width = 1000;
}
);
},
{
color = 4;
glyphname = D_S_three.rlig;
lastChange = "2023-03-10 17:09:03 +0000";
layers = (
{
background = {
paths = (
{
closed = 1;
nodes = (
"41 715 LINE",
"88 710 LINE",
"90 608 OFFCURVE",
"90 504 OFFCURVE",
"90 402 CURVE SMOOTH",
"90 346 LINE SMOOTH",
"90 243 OFFCURVE",
"90 139 OFFCURVE",
"88 38 CURVE",
"41 32 LINE",
"41 0 LINE",
"202 0 LINE SMOOTH",
"350 0 OFFCURVE",
"445 100 OFFCURVE",
"445 374 CURVE SMOOTH",
"445 659 OFFCURVE",
"348 747 OFFCURVE",
"203 747 CURVE SMOOTH",
"41 747 LINE"
);
},
{
closed = 1;
nodes = (
"172 34 LINE",
"170 137 OFFCURVE",
"170 242 OFFCURVE",
"170 347 CURVE SMOOTH",
"170 402 LINE SMOOTH",
"170 506 OFFCURVE",
"170 610 OFFCURVE",
"172 712 CURVE",
"199 712 LINE SMOOTH",
"306 712 OFFCURVE",
"360 639 OFFCURVE",
"360 374 CURVE SMOOTH",
"360 110 OFFCURVE",
"300 34 OFFCURVE",
"198 34 CURVE SMOOTH"
);
},
{
closed = 1;
nodes = (
"535 749 OFFCURVE",
"513 727 OFFCURVE",
"513 697 CURVE SMOOTH",
"513 675 OFFCURVE",
"522 658 OFFCURVE",
"548 641 CURVE SMOOTH",
"587 615 LINE",
"572 568 OFFCURVE",
"539 537 OFFCURVE",
"485 512 CURVE",
"496 487 LINE",
"579 522 OFFCURVE",
"631 584 OFFCURVE",
"631 662 CURVE SMOOTH",
"631 685 OFFCURVE",
"625 710 OFFCURVE",
"613 729 CURVE",
"601 742 OFFCURVE",
"585 749 OFFCURVE",
"567 749 CURVE SMOOTH"
);
}
);
};
components = (
{
name = _smart.s.001;
piece = {
Width = 0;
};
transform = "{1, 0, 0, 1, 560, 0}";
}
);
layerId = "AODEWCWT-RYM3-6S2H-YGKD-BAMV0KWXFSSX";
paths = (
{
closed = 1;
nodes = (
"51 715 LINE",
"98 710 LINE",
"100 608 OFFCURVE",
"100 504 OFFCURVE",
"100 402 CURVE SMOOTH",
"100 346 LINE SMOOTH",
"100 243 OFFCURVE",
"100 139 OFFCURVE",
"98 38 CURVE",
"51 32 LINE",
"51 0 LINE",
"212 0 LINE SMOOTH",
"390 0 OFFCURVE",
"505 100 OFFCURVE",
"505 374 CURVE SMOOTH",
"505 659 OFFCURVE",
"388 747 OFFCURVE",
"213 747 CURVE SMOOTH",
"51 747 LINE"
);
},
{
closed = 1;
nodes = (
"182 34 LINE",
"180 137 OFFCURVE",
"180 242 OFFCURVE",
"180 347 CURVE SMOOTH",
"180 402 LINE SMOOTH",
"180 506 OFFCURVE",
"180 610 OFFCURVE",
"182 712 CURVE",
"209 712 LINE SMOOTH",
"350 712 OFFCURVE",
"420 639 OFFCURVE",
"420 374 CURVE SMOOTH",
"420 110 OFFCURVE",
"341 34 OFFCURVE",
"208 34 CURVE SMOOTH"
);
},
{
closed = 1;
nodes = (
"585 749 OFFCURVE",
"563 727 OFFCURVE",
"563 697 CURVE SMOOTH",
"563 675 OFFCURVE",
"572 658 OFFCURVE",
"598 641 CURVE SMOOTH",
"637 615 LINE",
"622 568 OFFCURVE",
"589 537 OFFCURVE",
"535 512 CURVE",
"546 487 LINE",
"629 522 OFFCURVE",
"681 584 OFFCURVE",
"681 662 CURVE SMOOTH",
"681 709 OFFCURVE",
"663 749 OFFCURVE",
"617 749 CURVE SMOOTH"
);
}
);
width = 1000;
},
{
associatedMasterId = "AODEWCWT-RYM3-6S2H-YGKD-BAMV0KWXFSSX";
layerId = "4A4EC944-F6C3-401C-9C73-716EBE5CE430";
name = "23年3月3日 23:44";
paths = (
{
closed = 1;
nodes = (
"41 715 LINE",
"88 710 LINE",
"90 608 OFFCURVE",
"90 504 OFFCURVE",
"90 402 CURVE SMOOTH",
"90 346 LINE SMOOTH",
"90 243 OFFCURVE",
"90 139 OFFCURVE",
"88 38 CURVE",
"41 32 LINE",
"41 0 LINE",
"202 0 LINE SMOOTH",
"350 0 OFFCURVE",
"445 100 OFFCURVE",
"445 374 CURVE SMOOTH",
"445 659 OFFCURVE",
"348 747 OFFCURVE",
"203 747 CURVE SMOOTH",
"41 747 LINE"
);
},
{
closed = 1;
nodes = (
"172 34 LINE",
"170 137 OFFCURVE",
"170 242 OFFCURVE",
"170 347 CURVE SMOOTH",
"170 402 LINE SMOOTH",
"170 506 OFFCURVE",
"170 610 OFFCURVE",
"172 712 CURVE",
"199 712 LINE SMOOTH",
"306 712 OFFCURVE",
"360 639 OFFCURVE",
"360 374 CURVE SMOOTH",
"360 110 OFFCURVE",
"300 34 OFFCURVE",
"198 34 CURVE SMOOTH"
);
},
{
closed = 1;
nodes = (
"535 749 OFFCURVE",
"513 727 OFFCURVE",
"513 697 CURVE SMOOTH",
"513 675 OFFCURVE",
"522 658 OFFCURVE",
"548 641 CURVE SMOOTH",
"587 615 LINE",
"572 568 OFFCURVE",
"539 537 OFFCURVE",
"485 512 CURVE",
"496 487 LINE",
"579 522 OFFCURVE",
"631 584 OFFCURVE",
"631 662 CURVE SMOOTH",
"631 685 OFFCURVE",
"625 710 OFFCURVE",
"613 729 CURVE",
"601 742 OFFCURVE",
"585 749 OFFCURVE",
"567 749 CURVE SMOOTH"
);
},
{
closed = 1;
nodes = (
"872 -16 OFFCURVE",
"934 44 OFFCURVE",
"934 131 CURVE SMOOTH",
"934 201 OFFCURVE",
"903 246 OFFCURVE",
"819 286 CURVE SMOOTH",
"760 314 LINE SMOOTH",
"693 346 OFFCURVE",
"669 378 OFFCURVE",
"669 427 CURVE SMOOTH",
"669 478 OFFCURVE",
"705 514 OFFCURVE",
"772 514 CURVE SMOOTH",
"800 514 OFFCURVE",
"825 509 OFFCURVE",
"852 496 CURVE",
"870 388 LINE",
"911 388 LINE",
"916 504 LINE",
"867 532 OFFCURVE",
"829 545 OFFCURVE",
"775 545 CURVE SMOOTH",
"661 545 OFFCURVE",
"604 486 OFFCURVE",
"604 404 CURVE SMOOTH",
"604 327 OFFCURVE",
"646 282 OFFCURVE",
"714 249 CURVE SMOOTH",
"770 222 LINE SMOOTH",
"848 184 OFFCURVE",
"866 156 OFFCURVE",
"866 109 CURVE SMOOTH",
"866 54 OFFCURVE",
"826 15 OFFCURVE",
"749 15 CURVE SMOOTH",
"709 15 OFFCURVE",
"681 22 OFFCURVE",
"654 35 CURVE",
"636 152 LINE",
"596 152 LINE",
"594 23 LINE",
"644 -4 OFFCURVE",
"690 -16 OFFCURVE",
"749 -16 CURVE SMOOTH"
);
}
);
width = 1000;
}
);
},
{
color = 4;
glyphname = D_S_four.rlig;
lastChange = "2023-03-13 15:25:05 +0000";
layers = (
{
associatedMasterId = "AODEWCWT-RYM3-6S2H-YGKD-BAMV0KWXFSSX";
background = {
paths = (
{
closed = 1;
nodes = (
"93 798 LINE",
"196 790 LINE",
"197 717 OFFCURVE",
"197 642 OFFCURVE",
"197 565 CURVE SMOOTH",
"197 538 LINE SMOOTH",
"197 449 OFFCURVE",
"197 372 OFFCURVE",
"196 299 CURVE",
"93 290 LINE",
"93 260 LINE",
"358 260 LINE SMOOTH",
"579 260 OFFCURVE",
"713 369 OFFCURVE",
"713 544 CURVE SMOOTH",
"713 725 OFFCURVE",
"585 828 OFFCURVE",
"372 828 CURVE SMOOTH",
"93 828 LINE"
);
},
{
closed = 1;
nodes = (
"287 293 LINE",
"286 369 OFFCURVE",
"286 447 OFFCURVE",
"286 538 CURVE SMOOTH",
"286 565 LINE SMOOTH",
"286 645 OFFCURVE",
"286 721 OFFCURVE",
"287 795 CURVE",
"360 795 LINE SMOOTH",
"527 795 OFFCURVE",
"619 708 OFFCURVE",
"619 544 CURVE SMOOTH",
"619 389 OFFCURVE",
"527 293 OFFCURVE",
"349 293 CURVE SMOOTH"
);
},
{
closed = 1;
nodes = (
"-125 -30 LINE",
"-125 13 LINE",
"-305 6 LINE",
"-305 -525 LINE",
"-275 -525 LINE",
"-267 -422 LINE",
"-168 -421 OFFCURVE",
"-68 -421 OFFCURVE",
"32 -421 CURVE SMOOTH",
"86 -421 LINE SMOOTH",
"187 -421 OFFCURVE",
"286 -421 OFFCURVE",
"384 -422 CURVE",
"393 -525 LINE",
"423 -525 LINE",
"423 24 LINE",
"240 30 LINE",
"240 -12 LINE",
"389 -41 LINE",
"389 -331 LINE",
"290 -332 OFFCURVE",
"188 -332 OFFCURVE",
"70 -332 CURVE",
"70 -155 LINE",
"173 -142 LINE",
"173 -107 LINE",
"-68 -107 LINE",
"-68 -142 LINE",
"37 -155 LINE",
"37 -332 LINE",
"-72 -332 OFFCURVE",
"-173 -332 OFFCURVE",
"-270 -331 CURVE",
"-270 -58 LINE"
);
},
{
closed = 1;
nodes = (
"877 222 OFFCURVE",
"844 109 OFFCURVE",
"734 -48 CURVE",
"753 -65 LINE",
"884 69 OFFCURVE",
"947 209 OFFCURVE",
"947 382 CURVE SMOOTH",
"947 556 OFFCURVE",
"884 695 OFFCURVE",
"753 829 CURVE",
"734 813 LINE",
"841 656 OFFCURVE",
"877 543 OFFCURVE",
"877 382 CURVE SMOOTH"
);
}
);
};
layerId = "4F757EF4-E2B7-4942-B426-B24A1B0A4236";
name = "23年3月4日 2:34";
paths = (
{
closed = 1;
nodes = (
"93 798 LINE",
"196 790 LINE",
"197 717 OFFCURVE",
"197 642 OFFCURVE",
"197 565 CURVE SMOOTH",
"197 538 LINE SMOOTH",
"197 449 OFFCURVE",
"197 372 OFFCURVE",
"196 299 CURVE",
"93 290 LINE",
"93 260 LINE",
"358 260 LINE SMOOTH",
"579 260 OFFCURVE",
"713 369 OFFCURVE",
"713 544 CURVE SMOOTH",
"713 725 OFFCURVE",
"585 828 OFFCURVE",
"372 828 CURVE SMOOTH",
"93 828 LINE"
);
},
{
closed = 1;
nodes = (
"287 293 LINE",
"286 369 OFFCURVE",
"286 447 OFFCURVE",
"286 538 CURVE SMOOTH",
"286 565 LINE SMOOTH",
"286 645 OFFCURVE",
"286 721 OFFCURVE",
"287 795 CURVE",
"360 795 LINE SMOOTH",
"527 795 OFFCURVE",
"619 708 OFFCURVE",
"619 544 CURVE SMOOTH",
"619 389 OFFCURVE",
"527 293 OFFCURVE",
"349 293 CURVE SMOOTH"
);
},
{
closed = 1;
nodes = (
"175 430 LINE",
"175 473 LINE",
"-5 466 LINE",
"-5 -65 LINE",
"25 -65 LINE",
"33 38 LINE",
"132 39 OFFCURVE",
"232 39 OFFCURVE",
"332 39 CURVE SMOOTH",
"386 39 LINE SMOOTH",
"487 39 OFFCURVE",
"586 39 OFFCURVE",
"684 38 CURVE",
"693 -65 LINE",
"723 -65 LINE",
"723 484 LINE",
"540 490 LINE",
"540 448 LINE",
"689 419 LINE",
"689 129 LINE",
"590 128 OFFCURVE",
"488 128 OFFCURVE",
"370 128 CURVE",
"370 305 LINE",
"473 318 LINE",
"473 353 LINE",
"232 353 LINE",
"232 318 LINE",
"337 305 LINE",
"337 128 LINE",
"228 128 OFFCURVE",
"127 128 OFFCURVE",
"30 129 CURVE",
"30 402 LINE"
);
},
{
closed = 1;
nodes = (
"877 222 OFFCURVE",
"844 109 OFFCURVE",
"734 -48 CURVE",
"753 -65 LINE",
"884 69 OFFCURVE",
"947 209 OFFCURVE",
"947 382 CURVE SMOOTH",
"947 556 OFFCURVE",
"884 695 OFFCURVE",
"753 829 CURVE",
"734 813 LINE",
"841 656 OFFCURVE",
"877 543 OFFCURVE",
"877 382 CURVE SMOOTH"
);
}
);
width = 1000;
},
{
associatedMasterId = "AODEWCWT-RYM3-6S2H-YGKD-BAMV0KWXFSSX";
background = {
paths = (
{
closed = 1;
nodes = (
"549 370 OFFCURVE",
"683 485 OFFCURVE",
"683 644 CURVE SMOOTH",
"683 764 OFFCURVE",
"589 828 OFFCURVE",
"442 828 CURVE SMOOTH",
"373 828 OFFCURVE",
"262 823 OFFCURVE",
"214 823 CURVE SMOOTH",
"184 823 OFFCURVE",
"141 825 OFFCURVE",
"93 828 CURVE",
"88 791 OFFCURVE",
"109 760 OFFCURVE",
"178 760 CURVE SMOOTH",
"252 760 OFFCURVE",
"358 795 OFFCURVE",
"430 795 CURVE SMOOTH",
"529 795 OFFCURVE",
"589 739 OFFCURVE",
"589 624 CURVE SMOOTH",
"589 487 OFFCURVE",
"501 403 OFFCURVE",
"339 383 CURVE",
"328 350 LINE"
);
},
{
closed = 1;
nodes = (
"180 39 OFFCURVE",
"276 39 OFFCURVE",
"372 39 CURVE SMOOTH",
"426 39 LINE SMOOTH",
"523 39 OFFCURVE",
"619 39 OFFCURVE",
"713 38 CURVE",
"713 343 LINE",
"679 343 LINE",
"679 129 LINE",
"596 128 OFFCURVE",
"510 128 OFFCURVE",
"410 128 CURVE",
"377 128 LINE",
"286 128 OFFCURVE",
"201 128 OFFCURVE",
"120 129 CURVE",
"120 343 LINE",
"85 343 LINE",
"85 38 LINE"
);
},
{
closed = 1;
nodes = (
"386 168 LINE",
"330 121 LINE",
"410 624 LINE SMOOTH",
"414 648 OFFCURVE",
"416 665 OFFCURVE",
"416 678 CURVE SMOOTH",
"416 699 OFFCURVE",
"408 713 OFFCURVE",
"389 713 CURVE SMOOTH",
"365 713 OFFCURVE",
"337 705 OFFCURVE",
"284 681 CURVE",
"290 661 LINE",
"309 669 OFFCURVE",
"319 672 OFFCURVE",
"325 672 CURVE SMOOTH",
"336 672 OFFCURVE",
"334 656 OFFCURVE",
"328 617 CURVE SMOOTH",
"249 121 LINE",
"257 111 LINE"
);
},
{
closed = 1;
nodes = (
"854 76 OFFCURVE",
"917 213 OFFCURVE",
"917 382 CURVE SMOOTH",
"917 552 OFFCURVE",
"854 688 OFFCURVE",
"723 819 CURVE",
"704 803 LINE",
"811 650 OFFCURVE",
"847 539 OFFCURVE",
"847 382 CURVE SMOOTH",
"847 226 OFFCURVE",
"814 116 OFFCURVE",
"704 -38 CURVE",
"723 -55 LINE"
);
}
);
};
layerId = "7DF1499B-892A-434D-BADB-5520FE0C862A";
name = "23年3月4日 2:36";
paths = (
{
closed = 1;
nodes = (
"549 370 OFFCURVE",
"683 485 OFFCURVE",
"683 644 CURVE SMOOTH",
"683 764 OFFCURVE",
"589 828 OFFCURVE",
"442 828 CURVE SMOOTH",
"373 828 OFFCURVE",
"262 823 OFFCURVE",
"214 823 CURVE SMOOTH",
"184 823 OFFCURVE",
"141 825 OFFCURVE",
"93 828 CURVE",
"88 791 OFFCURVE",
"109 760 OFFCURVE",
"178 760 CURVE SMOOTH",
"252 760 OFFCURVE",
"358 795 OFFCURVE",
"430 795 CURVE SMOOTH",
"529 795 OFFCURVE",
"589 739 OFFCURVE",
"589 624 CURVE SMOOTH",
"589 487 OFFCURVE",
"501 403 OFFCURVE",
"339 383 CURVE",
"328 350 LINE"
);
},
{
closed = 1;
nodes = (
"170 39 OFFCURVE",
"256 39 OFFCURVE",
"342 39 CURVE SMOOTH",
"396 39 LINE SMOOTH",
"483 39 OFFCURVE",
"569 39 OFFCURVE",
"653 38 CURVE",
"653 343 LINE",
"619 343 LINE",
"619 129 LINE",
"545 128 OFFCURVE",
"469 128 OFFCURVE",
"380 128 CURVE",
"347 128 LINE",
"267 128 OFFCURVE",
"192 128 OFFCURVE",
"120 129 CURVE",
"120 343 LINE",
"85 343 LINE",
"85 38 LINE"
);
},
{
closed = 1;
nodes = (
"306 131 OFFCURVE",
"336 154 OFFCURVE",
"346 220 CURVE SMOOTH",
"410 624 LINE SMOOTH",
"414 648 OFFCURVE",
"416 665 OFFCURVE",
"416 678 CURVE SMOOTH",
"416 699 OFFCURVE",
"408 713 OFFCURVE",
"389 713 CURVE SMOOTH",
"365 713 OFFCURVE",
"337 705 OFFCURVE",
"284 681 CURVE",
"290 661 LINE",
"309 669 OFFCURVE",
"319 672 OFFCURVE",
"325 672 CURVE SMOOTH",
"336 672 OFFCURVE",
"334 656 OFFCURVE",
"328 617 CURVE SMOOTH",
"249 121 LINE",
"257 111 LINE"
);
},
{
closed = 1;
nodes = (
"854 76 OFFCURVE",
"917 213 OFFCURVE",
"917 382 CURVE SMOOTH",
"917 552 OFFCURVE",
"854 688 OFFCURVE",
"723 819 CURVE",
"704 803 LINE",
"811 650 OFFCURVE",
"847 539 OFFCURVE",
"847 382 CURVE SMOOTH",
"847 226 OFFCURVE",
"814 116 OFFCURVE",
"704 -38 CURVE",
"723 -55 LINE"
);
}
);
width = 1000;
},
{
associatedMasterId = "AODEWCWT-RYM3-6S2H-YGKD-BAMV0KWXFSSX";
background = {
paths = (
{
closed = 1;
nodes = (
"93 798 LINE",
"196 790 LINE",
"197 717 OFFCURVE",
"197 642 OFFCURVE",
"197 565 CURVE SMOOTH",
"197 538 LINE SMOOTH",
"197 449 OFFCURVE",
"197 372 OFFCURVE",
"196 299 CURVE",
"93 290 LINE",
"93 260 LINE",
"358 260 LINE SMOOTH",
"579 260 OFFCURVE",
"713 369 OFFCURVE",
"713 544 CURVE SMOOTH",
"713 725 OFFCURVE",
"585 828 OFFCURVE",
"372 828 CURVE SMOOTH",
"93 828 LINE"
);
},
{
closed = 1;
nodes = (
"287 293 LINE",
"286 369 OFFCURVE",
"286 447 OFFCURVE",
"286 538 CURVE SMOOTH",
"286 565 LINE SMOOTH",
"286 645 OFFCURVE",
"286 721 OFFCURVE",
"287 795 CURVE",
"360 795 LINE SMOOTH",
"527 795 OFFCURVE",
"619 708 OFFCURVE",
"619 544 CURVE SMOOTH",
"619 389 OFFCURVE",
"527 293 OFFCURVE",
"349 293 CURVE SMOOTH"
);
},
{
closed = 1;
nodes = (
"-125 -30 LINE",
"-125 13 LINE",
"-305 6 LINE",
"-305 -525 LINE",
"-275 -525 LINE",
"-267 -422 LINE",
"-168 -421 OFFCURVE",
"-68 -421 OFFCURVE",
"32 -421 CURVE SMOOTH",
"86 -421 LINE SMOOTH",
"187 -421 OFFCURVE",
"286 -421 OFFCURVE",
"384 -422 CURVE",
"393 -525 LINE",
"423 -525 LINE",
"423 24 LINE",
"240 30 LINE",
"240 -12 LINE",
"389 -41 LINE",
"389 -331 LINE",
"290 -332 OFFCURVE",
"188 -332 OFFCURVE",
"70 -332 CURVE",
"70 -155 LINE",
"173 -142 LINE",
"173 -107 LINE",
"-68 -107 LINE",
"-68 -142 LINE",
"37 -155 LINE",
"37 -332 LINE",
"-72 -332 OFFCURVE",
"-173 -332 OFFCURVE",
"-270 -331 CURVE",
"-270 -58 LINE"
);
},
{
closed = 1;
nodes = (
"877 222 OFFCURVE",
"844 109 OFFCURVE",
"734 -48 CURVE",
"753 -65 LINE",
"884 69 OFFCURVE",
"947 209 OFFCURVE",
"947 382 CURVE SMOOTH",
"947 556 OFFCURVE",
"884 695 OFFCURVE",
"753 829 CURVE",
"734 813 LINE",
"841 656 OFFCURVE",
"877 543 OFFCURVE",
"877 382 CURVE SMOOTH"
);
}
);
};
layerId = "36450135-2D79-42E3-BC11-FB145DAFF942";
name = "23年3月4日 3:00";
paths = (
{
closed = 1;
nodes = (
"540 389 OFFCURVE",
"663 500 OFFCURVE",
"663 644 CURVE SMOOTH",
"663 767 OFFCURVE",
"582 828 OFFCURVE",
"422 828 CURVE SMOOTH",
"339 828 OFFCURVE",
"247 808 OFFCURVE",
"153 773 CURVE",
"163 729 LINE",
"153 743 LINE",
"236 770 OFFCURVE",
"327 785 OFFCURVE",
"390 785 CURVE SMOOTH",
"515 785 OFFCURVE",
"569 732 OFFCURVE",
"569 624 CURVE SMOOTH",
"569 498 OFFCURVE",
"488 421 OFFCURVE",
"339 399 CURVE",
"338 370 LINE"
);
},
{
closed = 1;
nodes = (
"182 19 OFFCURVE",
"264 19 OFFCURVE",
"347 19 CURVE SMOOTH",
"381 19 LINE SMOOTH",
"464 19 OFFCURVE",
"547 19 OFFCURVE",
"628 18 CURVE",
"637 -50 LINE",
"663 -50 LINE",
"663 317 LINE",
"599 323 LINE",
"599 301 LINE",
"629 109 LINE",
"546 108 OFFCURVE",
"460 108 OFFCURVE",
"381 108 CURVE SMOOTH",
"347 108 LINE SMOOTH",
"266 108 OFFCURVE",
"181 108 OFFCURVE",
"100 109 CURVE",
"130 301 LINE",
"130 323 LINE",
"65 317 LINE",
"65 -50 LINE",
"88 -50 LINE",
"100 18 LINE"
);
},
{
closed = 1;
nodes = (
"363 121 OFFCURVE",
"380 150 OFFCURVE",
"380 211 CURVE SMOOTH",
"380 678 LINE SMOOTH",
"380 699 OFFCURVE",
"372 713 OFFCURVE",
"353 713 CURVE SMOOTH",
"333 713 OFFCURVE",
"296 701 OFFCURVE",
"238 677 CURVE",
"244 657 LINE",
"268 665 OFFCURVE",
"281 668 OFFCURVE",
"290 668 CURVE SMOOTH",
"303 668 OFFCURVE",
"308 655 OFFCURVE",
"308 613 CURVE SMOOTH",
"308 101 LINE",
"318 101 LINE"
);
},
{
closed = 1;
nodes = (
"854 76 OFFCURVE",
"917 213 OFFCURVE",
"917 382 CURVE SMOOTH",
"917 552 OFFCURVE",
"854 688 OFFCURVE",
"723 819 CURVE",
"704 803 LINE",
"811 650 OFFCURVE",
"847 539 OFFCURVE",
"847 382 CURVE SMOOTH",
"847 226 OFFCURVE",
"814 116 OFFCURVE",
"704 -38 CURVE",
"723 -55 LINE"
);
}
);
width = 1000;
},
{
background = {
paths = (
{
closed = 1;
nodes = (
"93 798 LINE",
"196 790 LINE",
"197 717 OFFCURVE",
"197 642 OFFCURVE",
"197 565 CURVE SMOOTH",
"197 538 LINE SMOOTH",
"197 449 OFFCURVE",
"197 372 OFFCURVE",
"196 299 CURVE",
"93 290 LINE",
"93 260 LINE",
"358 260 LINE SMOOTH",
"579 260 OFFCURVE",
"713 369 OFFCURVE",
"713 544 CURVE SMOOTH",
"713 725 OFFCURVE",
"585 828 OFFCURVE",
"372 828 CURVE SMOOTH",
"93 828 LINE"
);
},
{
closed = 1;
nodes = (
"287 293 LINE",
"286 369 OFFCURVE",
"286 447 OFFCURVE",
"286 538 CURVE SMOOTH",
"286 565 LINE SMOOTH",
"286 645 OFFCURVE",
"286 721 OFFCURVE",
"287 795 CURVE",
"360 795 LINE SMOOTH",
"527 795 OFFCURVE",
"619 708 OFFCURVE",
"619 544 CURVE SMOOTH",
"619 389 OFFCURVE",
"527 293 OFFCURVE",
"349 293 CURVE SMOOTH"
);
},
{
closed = 1;
nodes = (
"-125 -30 LINE",
"-125 13 LINE",
"-305 6 LINE",
"-305 -525 LINE",
"-275 -525 LINE",
"-267 -422 LINE",
"-168 -421 OFFCURVE",
"-68 -421 OFFCURVE",
"32 -421 CURVE SMOOTH",
"86 -421 LINE SMOOTH",
"187 -421 OFFCURVE",
"286 -421 OFFCURVE",
"384 -422 CURVE",
"393 -525 LINE",
"423 -525 LINE",
"423 24 LINE",
"240 30 LINE",
"240 -12 LINE",
"389 -41 LINE",
"389 -331 LINE",
"290 -332 OFFCURVE",
"188 -332 OFFCURVE",
"70 -332 CURVE",
"70 -155 LINE",
"173 -142 LINE",
"173 -107 LINE",
"-68 -107 LINE",
"-68 -142 LINE",
"37 -155 LINE",
"37 -332 LINE",
"-72 -332 OFFCURVE",
"-173 -332 OFFCURVE",
"-270 -331 CURVE",
"-270 -58 LINE"
);
},
{
closed = 1;
nodes = (
"877 222 OFFCURVE",
"844 109 OFFCURVE",
"734 -48 CURVE",
"753 -65 LINE",
"884 69 OFFCURVE",
"947 209 OFFCURVE",
"947 382 CURVE SMOOTH",
"947 556 OFFCURVE",
"884 695 OFFCURVE",
"753 829 CURVE",
"734 813 LINE",
"841 656 OFFCURVE",
"877 543 OFFCURVE",
"877 382 CURVE SMOOTH"
);
}
);
};
layerId = "AODEWCWT-RYM3-6S2H-YGKD-BAMV0KWXFSSX";
name = Regular;
paths = (
{
closed = 1;
nodes = (
"540 379 OFFCURVE",
"663 490 OFFCURVE",
"663 634 CURVE SMOOTH",
"663 757 OFFCURVE",
"578 818 OFFCURVE",
"412 818 CURVE SMOOTH",
"317 818 OFFCURVE",
"210 798 OFFCURVE",
"103 753 CURVE",
"113 709 LINE",
"103 723 LINE",
"201 760 OFFCURVE",
"306 775 OFFCURVE",
"380 775 CURVE SMOOTH",
"512 775 OFFCURVE",
"569 722 OFFCURVE",
"569 614 CURVE SMOOTH",
"569 488 OFFCURVE",
"488 411 OFFCURVE",
"339 389 CURVE",
"338 360 LINE"
);
},
{
closed = 1;
nodes = (
"88 -55 LINE",
"100 13 LINE",
"182 14 OFFCURVE",
"264 14 OFFCURVE",
"347 14 CURVE SMOOTH",
"381 14 LINE SMOOTH",
"464 14 OFFCURVE",
"547 14 OFFCURVE",
"628 13 CURVE",
"637 -55 LINE",
"663 -55 LINE",
"663 312 LINE",
"599 318 LINE",
"599 296 LINE",
"629 104 LINE",
"546 103 OFFCURVE",
"460 103 OFFCURVE",
"381 103 CURVE SMOOTH",
"347 103 LINE SMOOTH",
"266 103 OFFCURVE",
"181 103 OFFCURVE",
"100 104 CURVE",
"130 296 LINE",
"130 318 LINE",
"65 312 LINE",
"65 -55 LINE"
);
},
{
closed = 1;
nodes = (
"318 96 LINE",
"363 116 OFFCURVE",
"380 145 OFFCURVE",
"380 206 CURVE SMOOTH",
"380 649 LINE",
"366 653 LINE",
"308 623 LINE",
"308 96 LINE"
);
},
{
closed = 1;
nodes = (
"874 76 OFFCURVE",
"937 213 OFFCURVE",
"937 382 CURVE SMOOTH",
"937 552 OFFCURVE",
"874 688 OFFCURVE",
"743 819 CURVE",
"724 803 LINE",
"831 650 OFFCURVE",
"867 539 OFFCURVE",
"867 382 CURVE SMOOTH",
"867 226 OFFCURVE",
"834 116 OFFCURVE",
"724 -38 CURVE",
"743 -55 LINE"
);
}
);
width = 1000;
},
{
anchors = (
{
name = bottom_1;
position = "{167, 0}";
},
{
name = bottom_2;
position = "{500, 0}";
},
{
name = bottom_3;
position = "{833, 0}";
},
{
name = caret_1;
position = "{333.333, 0}";
},
{
name = caret_2;
position = "{666.667, 0}";
},
{
name = center_1;
position = "{167, 365}";
},
{
name = center_2;
position = "{500, 365}";
},
{
name = center_3;
position = "{833, 365}";
},
{
name = top_1;
position = "{167, 729}";
},
{
name = top_2;
position = "{500, 729}";
},
{
name = top_3;
position = "{833, 729}";
}
);
associatedMasterId = "AODEWCWT-RYM3-6S2H-YGKD-BAMV0KWXFSSX";
background = {
paths = (
{
closed = 1;
nodes = (
"93 798 LINE",
"196 790 LINE",
"197 717 OFFCURVE",
"197 642 OFFCURVE",
"197 565 CURVE SMOOTH",
"197 538 LINE SMOOTH",
"197 449 OFFCURVE",
"197 372 OFFCURVE",
"196 299 CURVE",
"93 290 LINE",
"93 260 LINE",
"358 260 LINE SMOOTH",
"579 260 OFFCURVE",
"713 369 OFFCURVE",
"713 544 CURVE SMOOTH",
"713 725 OFFCURVE",
"585 828 OFFCURVE",
"372 828 CURVE SMOOTH",
"93 828 LINE"
);
},
{
closed = 1;
nodes = (
"287 293 LINE",
"286 369 OFFCURVE",
"286 447 OFFCURVE",
"286 538 CURVE SMOOTH",
"286 565 LINE SMOOTH",
"286 645 OFFCURVE",
"286 721 OFFCURVE",
"287 795 CURVE",
"360 795 LINE SMOOTH",
"527 795 OFFCURVE",
"619 708 OFFCURVE",
"619 544 CURVE SMOOTH",
"619 389 OFFCURVE",
"527 293 OFFCURVE",
"349 293 CURVE SMOOTH"
);
},
{
closed = 1;
nodes = (
"-125 -30 LINE",
"-125 13 LINE",
"-305 6 LINE",
"-305 -525 LINE",
"-275 -525 LINE",
"-267 -422 LINE",
"-168 -421 OFFCURVE",
"-68 -421 OFFCURVE",
"32 -421 CURVE SMOOTH",
"86 -421 LINE SMOOTH",
"187 -421 OFFCURVE",
"286 -421 OFFCURVE",
"384 -422 CURVE",
"393 -525 LINE",
"423 -525 LINE",
"423 24 LINE",
"240 30 LINE",
"240 -12 LINE",
"389 -41 LINE",
"389 -331 LINE",
"290 -332 OFFCURVE",
"188 -332 OFFCURVE",
"70 -332 CURVE",
"70 -155 LINE",
"173 -142 LINE",
"173 -107 LINE",
"-68 -107 LINE",
"-68 -142 LINE",
"37 -155 LINE",
"37 -332 LINE",
"-72 -332 OFFCURVE",
"-173 -332 OFFCURVE",
"-270 -331 CURVE",
"-270 -58 LINE"
);
},
{
closed = 1;
nodes = (
"877 222 OFFCURVE",
"844 109 OFFCURVE",
"734 -48 CURVE",
"753 -65 LINE",
"884 69 OFFCURVE",
"947 209 OFFCURVE",
"947 382 CURVE SMOOTH",
"947 556 OFFCURVE",
"884 695 OFFCURVE",
"753 829 CURVE",
"734 813 LINE",
"841 656 OFFCURVE",
"877 543 OFFCURVE",
"877 382 CURVE SMOOTH"
);
}
);
};
layerId = "9FC585A2-61E0-448B-A2C5-6D9572E73221";
name = "23年3月13日 15:22";
paths = (
{
closed = 1;
nodes = (
"540 379 OFFCURVE",
"663 490 OFFCURVE",
"663 634 CURVE SMOOTH",
"663 757 OFFCURVE",
"578 818 OFFCURVE",
"412 818 CURVE SMOOTH",
"317 818 OFFCURVE",
"210 798 OFFCURVE",
"103 753 CURVE",
"113 709 LINE",
"103 723 LINE",
"201 760 OFFCURVE",
"306 775 OFFCURVE",
"380 775 CURVE SMOOTH",
"512 775 OFFCURVE",
"569 722 OFFCURVE",
"569 614 CURVE SMOOTH",
"569 488 OFFCURVE",
"488 411 OFFCURVE",
"339 389 CURVE",
"338 360 LINE"
);
},
{
closed = 1;
nodes = (
"88 -50 LINE",
"100 18 LINE",
"182 19 OFFCURVE",
"264 19 OFFCURVE",
"347 19 CURVE SMOOTH",
"381 19 LINE SMOOTH",
"464 19 OFFCURVE",
"547 19 OFFCURVE",
"628 18 CURVE",
"637 -50 LINE",
"663 -50 LINE",
"663 317 LINE",
"599 323 LINE",
"599 301 LINE",
"629 109 LINE",
"546 108 OFFCURVE",
"460 108 OFFCURVE",
"381 108 CURVE SMOOTH",
"347 108 LINE SMOOTH",
"266 108 OFFCURVE",
"181 108 OFFCURVE",
"100 109 CURVE",
"130 301 LINE",
"130 323 LINE",
"65 317 LINE",
"65 -50 LINE"
);
},
{
closed = 1;
nodes = (
"318 101 LINE",
"363 121 OFFCURVE",
"380 150 OFFCURVE",
"380 211 CURVE SMOOTH",
"380 649 LINE",
"366 653 LINE",
"308 623 LINE",
"308 101 LINE"
);
},
{
closed = 1;
nodes = (
"867 236 OFFCURVE",
"917 341 OFFCURVE",
"917 472 CURVE SMOOTH",
"917 603 OFFCURVE",
"867 708 OFFCURVE",
"763 809 CURVE",
"744 793 LINE",
"821 676 OFFCURVE",
"847 592 OFFCURVE",
"847 472 CURVE SMOOTH",
"847 352 OFFCURVE",
"821 268 OFFCURVE",
"744 151 CURVE",
"763 135 LINE"
);
}
);
width = 1000;
}
);
},
{
color = 4;
glyphname = F_O.rlig;
layers = (
{
background = {
paths = (
{
closed = 1;
nodes = (
"208 -277 OFFCURVE",
"271 -193 OFFCURVE",
"271 -20 CURVE SMOOTH",
"272 490 LINE",
"606 488 LINE",
"656 527 LINE",
"272 527 LINE",
"272 589 LINE SMOOTH",
"272 750 OFFCURVE",
"315 804 OFFCURVE",
"382 804 CURVE SMOOTH",
"393 804 OFFCURVE",
"403 802 OFFCURVE",
"413 798 CURVE",
"423 732 LINE SMOOTH",
"429 694 OFFCURVE",
"443 679 OFFCURVE",
"464 679 CURVE SMOOTH",
"486 679 OFFCURVE",
"501 687 OFFCURVE",
"507 713 CURVE",
"495 790 OFFCURVE",
"451 836 OFFCURVE",
"373 836 CURVE SMOOTH",
"262 836 OFFCURVE",
"190 754 OFFCURVE",
"190 565 CURVE SMOOTH",
"190 528 LINE",
"102 520 LINE",
"102 490 LINE",
"190 490 LINE",
"190 -48 LINE SMOOTH",
"190 -198 OFFCURVE",
"150 -246 OFFCURVE",
"86 -246 CURVE SMOOTH",
"77 -246 OFFCURVE",
"69 -245 OFFCURVE",
"60 -242 CURVE",
"39 -188 LINE",
"31 -148 OFFCURVE",
"12 -134 OFFCURVE",
"-8 -134 CURVE SMOOTH",
"-31 -134 OFFCURVE",
"-44 -146 OFFCURVE",
"-50 -168 CURVE",
"-39 -233 OFFCURVE",
"14 -277 OFFCURVE",
"94 -277 CURVE SMOOTH"
);
},
{
closed = 1;
nodes = (
"825 -16 OFFCURVE",
"902 83 OFFCURVE",
"902 266 CURVE SMOOTH",
"902 449 OFFCURVE",
"820 545 OFFCURVE",
"700 545 CURVE SMOOTH",
"580 545 OFFCURVE",
"498 448 OFFCURVE",
"498 266 CURVE SMOOTH",
"498 84 OFFCURVE",
"575 -16 OFFCURVE",
"700 -16 CURVE SMOOTH"
);
},
{
closed = 1;
nodes = (
"622 18 OFFCURVE",
"583 96 OFFCURVE",
"583 265 CURVE SMOOTH",
"583 432 OFFCURVE",
"622 512 OFFCURVE",
"700 512 CURVE SMOOTH",
"778 512 OFFCURVE",
"817 432 OFFCURVE",
"817 265 CURVE SMOOTH",
"817 96 OFFCURVE",
"778 18 OFFCURVE",
"700 18 CURVE SMOOTH"
);
}
);
};
layerId = "AODEWCWT-RYM3-6S2H-YGKD-BAMV0KWXFSSX";
paths = (
{
closed = 1;
nodes = (
"245 -67 OFFCURVE",
"301 -12 OFFCURVE",
"301 160 CURVE SMOOTH",
"302 510 LINE",
"586 508 LINE",
"636 547 LINE",
"302 547 LINE",
"302 579 LINE SMOOTH",
"302 740 OFFCURVE",
"345 794 OFFCURVE",
"412 794 CURVE SMOOTH",
"423 794 OFFCURVE",
"433 792 OFFCURVE",
"443 788 CURVE",
"453 722 LINE SMOOTH",
"459 684 OFFCURVE",
"473 669 OFFCURVE",
"494 669 CURVE SMOOTH",
"516 669 OFFCURVE",
"531 677 OFFCURVE",
"537 703 CURVE",
"525 780 OFFCURVE",
"481 826 OFFCURVE",
"403 826 CURVE SMOOTH",
"292 826 OFFCURVE",
"220 744 OFFCURVE",
"220 555 CURVE SMOOTH",
"220 548 LINE",
"132 540 LINE",
"132 510 LINE",
"220 510 LINE",
"220 148 LINE SMOOTH",
"220 10 OFFCURVE",
"217 -22 OFFCURVE",
"184 -46 CURVE",
"200 -45 LINE",
"177 -3 OFFCURVE",
"160 12 OFFCURVE",
"134 12 CURVE SMOOTH",
"109 12 OFFCURVE",
"91 -3 OFFCURVE",
"87 -28 CURVE",
"94 -52 OFFCURVE",
"118 -67 OFFCURVE",
"163 -67 CURVE SMOOTH"
);
},
{
closed = 1;
nodes = (
"805 64 OFFCURVE",
"882 152 OFFCURVE",
"882 316 CURVE SMOOTH",
"882 479 OFFCURVE",
"800 565 OFFCURVE",
"680 565 CURVE SMOOTH",
"560 565 OFFCURVE",
"478 478 OFFCURVE",
"478 316 CURVE SMOOTH",
"478 153 OFFCURVE",
"555 64 OFFCURVE",
"680 64 CURVE SMOOTH"
);
},
{
closed = 1;
nodes = (
"602 98 OFFCURVE",
"563 167 OFFCURVE",
"563 315 CURVE SMOOTH",
"563 462 OFFCURVE",
"602 532 OFFCURVE",
"680 532 CURVE SMOOTH",
"758 532 OFFCURVE",
"797 462 OFFCURVE",
"797 315 CURVE SMOOTH",
"797 167 OFFCURVE",
"758 98 OFFCURVE",
"680 98 CURVE SMOOTH"
);
}
);
width = 1000;
},
{
associatedMasterId = "AODEWCWT-RYM3-6S2H-YGKD-BAMV0KWXFSSX";
layerId = "9C382B46-82DF-4513-BB6F-5162E8E01962";
name = "23年3月3日 23:48";
paths = (
{
closed = 1;
nodes = (
"187 0 LINE",
"372 0 LINE",
"372 30 LINE",
"273 35 LINE",
"272 102 OFFCURVE",
"271 168 OFFCURVE",
"271 234 CURVE SMOOTH",
"272 490 LINE",
"606 488 LINE",
"656 527 LINE",
"272 527 LINE",
"272 589 LINE SMOOTH",
"272 750 OFFCURVE",
"315 804 OFFCURVE",
"382 804 CURVE SMOOTH",
"393 804 OFFCURVE",
"403 802 OFFCURVE",
"413 798 CURVE",
"423 732 LINE SMOOTH",
"429 694 OFFCURVE",
"443 679 OFFCURVE",
"464 679 CURVE SMOOTH",
"486 679 OFFCURVE",
"501 687 OFFCURVE",
"507 713 CURVE",
"495 790 OFFCURVE",
"451 836 OFFCURVE",
"373 836 CURVE SMOOTH",
"262 836 OFFCURVE",
"190 754 OFFCURVE",
"190 565 CURVE SMOOTH",
"190 528 LINE",
"102 520 LINE",
"102 490 LINE",
"190 490 LINE",
"190 234 LINE SMOOTH",
"190 168 OFFCURVE",
"189 102 OFFCURVE",
"188 36 CURVE",
"105 30 LINE",
"105 0 LINE"
);
},
{
closed = 1;
nodes = (
"825 -16 OFFCURVE",
"902 83 OFFCURVE",
"902 266 CURVE SMOOTH",
"902 449 OFFCURVE",
"820 545 OFFCURVE",
"700 545 CURVE SMOOTH",
"580 545 OFFCURVE",
"498 448 OFFCURVE",
"498 266 CURVE SMOOTH",
"498 84 OFFCURVE",
"575 -16 OFFCURVE",
"700 -16 CURVE SMOOTH"
);
},
{
closed = 1;
nodes = (
"622 18 OFFCURVE",
"583 96 OFFCURVE",
"583 265 CURVE SMOOTH",
"583 432 OFFCURVE",
"622 512 OFFCURVE",
"700 512 CURVE SMOOTH",
"778 512 OFFCURVE",
"817 432 OFFCURVE",
"817 265 CURVE SMOOTH",
"817 96 OFFCURVE",
"778 18 OFFCURVE",
"700 18 CURVE SMOOTH"
);
}
);
width = 1000;
},
{
associatedMasterId = "AODEWCWT-RYM3-6S2H-YGKD-BAMV0KWXFSSX";
background = {
paths = (
{
closed = 1;
nodes = (
"208 -277 OFFCURVE",
"271 -193 OFFCURVE",
"271 -20 CURVE SMOOTH",
"272 490 LINE",
"606 488 LINE",
"656 527 LINE",
"272 527 LINE",
"272 589 LINE SMOOTH",
"272 750 OFFCURVE",
"315 804 OFFCURVE",
"382 804 CURVE SMOOTH",
"393 804 OFFCURVE",
"403 802 OFFCURVE",
"413 798 CURVE",
"423 732 LINE SMOOTH",
"429 694 OFFCURVE",
"443 679 OFFCURVE",
"464 679 CURVE SMOOTH",
"486 679 OFFCURVE",
"501 687 OFFCURVE",
"507 713 CURVE",
"495 790 OFFCURVE",
"451 836 OFFCURVE",
"373 836 CURVE SMOOTH",
"262 836 OFFCURVE",
"190 754 OFFCURVE",
"190 565 CURVE SMOOTH",
"190 528 LINE",
"102 520 LINE",
"102 490 LINE",
"190 490 LINE",
"190 -48 LINE SMOOTH",
"190 -198 OFFCURVE",
"150 -246 OFFCURVE",
"86 -246 CURVE SMOOTH",
"77 -246 OFFCURVE",
"69 -245 OFFCURVE",
"60 -242 CURVE",
"39 -188 LINE",
"31 -148 OFFCURVE",
"12 -134 OFFCURVE",
"-8 -134 CURVE SMOOTH",
"-31 -134 OFFCURVE",
"-44 -146 OFFCURVE",
"-50 -168 CURVE",
"-39 -233 OFFCURVE",
"14 -277 OFFCURVE",
"94 -277 CURVE SMOOTH"
);
},
{
closed = 1;
nodes = (
"825 -16 OFFCURVE",
"902 83 OFFCURVE",
"902 266 CURVE SMOOTH",
"902 449 OFFCURVE",
"820 545 OFFCURVE",
"700 545 CURVE SMOOTH",
"580 545 OFFCURVE",
"498 448 OFFCURVE",
"498 266 CURVE SMOOTH",
"498 84 OFFCURVE",
"575 -16 OFFCURVE",
"700 -16 CURVE SMOOTH"
);
},
{
closed = 1;
nodes = (
"622 18 OFFCURVE",
"583 96 OFFCURVE",
"583 265 CURVE SMOOTH",
"583 432 OFFCURVE",
"622 512 OFFCURVE",
"700 512 CURVE SMOOTH",
"778 512 OFFCURVE",
"817 432 OFFCURVE",
"817 265 CURVE SMOOTH",
"817 96 OFFCURVE",
"778 18 OFFCURVE",
"700 18 CURVE SMOOTH"
);
}
);
};
layerId = "A696BAFC-0EB3-4A76-A7D8-FE4D9DF507DA";
name = "23年3月4日 0:12";
paths = (
{
closed = 1;
nodes = (
"249 -277 OFFCURVE",
"301 -209 OFFCURVE",
"301 -70 CURVE SMOOTH",
"302 490 LINE",
"606 488 LINE",
"656 527 LINE",
"302 527 LINE",
"302 589 LINE SMOOTH",
"302 750 OFFCURVE",
"345 804 OFFCURVE",
"412 804 CURVE SMOOTH",
"423 804 OFFCURVE",
"433 802 OFFCURVE",
"443 798 CURVE",
"453 732 LINE SMOOTH",
"459 694 OFFCURVE",
"473 679 OFFCURVE",
"494 679 CURVE SMOOTH",
"516 679 OFFCURVE",
"531 687 OFFCURVE",
"537 713 CURVE",
"525 790 OFFCURVE",
"481 836 OFFCURVE",
"403 836 CURVE SMOOTH",
"292 836 OFFCURVE",
"220 754 OFFCURVE",
"220 565 CURVE SMOOTH",
"220 528 LINE",
"132 520 LINE",
"132 490 LINE",
"220 490 LINE",
"220 -98 LINE SMOOTH",
"220 -210 OFFCURVE",
"192 -246 OFFCURVE",
"146 -246 CURVE SMOOTH",
"140 -246 OFFCURVE",
"135 -245 OFFCURVE",
"130 -243 CURVE",
"110 -189 LINE SMOOTH",
"101 -166 OFFCURVE",
"82 -152 OFFCURVE",
"62 -152 CURVE SMOOTH",
"39 -152 OFFCURVE",
"26 -164 OFFCURVE",
"20 -186 CURVE",
"30 -251 OFFCURVE",
"80 -277 OFFCURVE",
"154 -277 CURVE SMOOTH"
);
},
{
closed = 1;
nodes = (
"825 -16 OFFCURVE",
"902 83 OFFCURVE",
"902 266 CURVE SMOOTH",
"902 449 OFFCURVE",
"820 545 OFFCURVE",
"700 545 CURVE SMOOTH",
"580 545 OFFCURVE",
"498 448 OFFCURVE",
"498 266 CURVE SMOOTH",
"498 84 OFFCURVE",
"575 -16 OFFCURVE",
"700 -16 CURVE SMOOTH"
);
},
{
closed = 1;
nodes = (
"622 18 OFFCURVE",
"583 96 OFFCURVE",
"583 265 CURVE SMOOTH",
"583 432 OFFCURVE",
"622 512 OFFCURVE",
"700 512 CURVE SMOOTH",
"778 512 OFFCURVE",
"817 432 OFFCURVE",
"817 265 CURVE SMOOTH",
"817 96 OFFCURVE",
"778 18 OFFCURVE",
"700 18 CURVE SMOOTH"
);
}
);
width = 1000;
}
);
},
{
color = 4;
glyphname = J_A_O.rlig;
layers = (
{
components = (
{
alignment = -1;
name = _smart.a;
piece = {
Width = 0;
};
transform = "{1, 0, 0, 1, 295, 70}";
},
{
alignment = -1;
name = _smart.o;
piece = {
Width = 0;
};
transform = "{1, 0, 0, 1, 613, 70}";
},
{
name = _smart.J;
piece = {
Width = 0;
};
transform = "{1, 0, 0, 1, -15, 70}";
}
);
layerId = "AODEWCWT-RYM3-6S2H-YGKD-BAMV0KWXFSSX";
paths = (
{
closed = 1;
nodes = (
"379 677 LINE",
"389 721 OFFCURVE",
"404 745 OFFCURVE",
"428 745 CURVE SMOOTH",
"472 745 OFFCURVE",
"503 672 OFFCURVE",
"560 672 CURVE SMOOTH",
"603 672 OFFCURVE",
"632 716 OFFCURVE",
"640 784 CURVE",
"619 791 LINE",
"610 748 OFFCURVE",
"594 725 OFFCURVE",
"569 725 CURVE SMOOTH",
"527 725 OFFCURVE",
"493 798 OFFCURVE",
"438 798 CURVE SMOOTH",
"394 798 OFFCURVE",
"367 752 OFFCURVE",
"357 685 CURVE"
);
}
);
width = 1000;
}
);
},
{
color = 4;
glyphname = J_O.rlig;
layers = (
{
background = {
paths = (
{
closed = 1;
nodes = (
"208 715 LINE",
"301 709 LINE",
"304 475 OFFCURVE",
"303 316 OFFCURVE",
"303 207 CURVE SMOOTH",
"303 62 OFFCURVE",
"257 12 OFFCURVE",
"197 16 CURVE SMOOTH",
"183 17 LINE",
"147 111 LINE SMOOTH",
"134 144 OFFCURVE",
"122 153 OFFCURVE",
"104 153 CURVE SMOOTH",
"85 153 OFFCURVE",
"69 141 OFFCURVE",
"64 117 CURVE",
"75 28 OFFCURVE",
"132 -16 OFFCURVE",
"212 -16 CURVE SMOOTH",
"263 -16 OFFCURVE",
"296 -2 OFFCURVE",
"326 28 CURVE SMOOTH",
"362 65 OFFCURVE",
"384 124 OFFCURVE",
"384 232 CURVE SMOOTH",
"384 401 LINE SMOOTH",
"384 506 OFFCURVE",
"384 608 OFFCURVE",
"385 709 CURVE",
"459 715 LINE",
"459 747 LINE",
"208 747 LINE"
);
},
{
closed = 1;
nodes = (
"825 -16 OFFCURVE",
"902 83 OFFCURVE",
"902 266 CURVE SMOOTH",
"902 449 OFFCURVE",
"820 545 OFFCURVE",
"700 545 CURVE SMOOTH",
"580 545 OFFCURVE",
"498 448 OFFCURVE",
"498 266 CURVE SMOOTH",
"498 84 OFFCURVE",
"575 -16 OFFCURVE",
"700 -16 CURVE SMOOTH"
);
},
{
closed = 1;
nodes = (
"622 18 OFFCURVE",
"583 96 OFFCURVE",
"583 265 CURVE SMOOTH",
"583 432 OFFCURVE",
"622 512 OFFCURVE",
"700 512 CURVE SMOOTH",
"778 512 OFFCURVE",
"817 432 OFFCURVE",
"817 265 CURVE SMOOTH",
"817 96 OFFCURVE",
"778 18 OFFCURVE",
"700 18 CURVE SMOOTH"
);
}
);
};
components = (
{
alignment = -1;
name = _smart.J;
transform = "{1, 0, 0, 1, 20, 70}";
},
{
alignment = -1;
name = o.full.hwid;
transform = "{1, 0, 0, 1, 450, 70}";
}
);
layerId = "AODEWCWT-RYM3-6S2H-YGKD-BAMV0KWXFSSX";
width = 1000;
},
{
associatedMasterId = "AODEWCWT-RYM3-6S2H-YGKD-BAMV0KWXFSSX";
hints = (
{
horizontal = 1;
place = "{0, 0}";
type = Stem;
},
{
horizontal = 1;
place = "{0, 0}";
type = Stem;
},
{
place = "{0, 0}";
type = Stem;
},
{
horizontal = 1;
place = "{0, 0}";
type = Stem;
},
{
horizontal = 1;
place = "{0, 0}";
type = Stem;
},
{
place = "{0, 0}";
type = Stem;
},
{
place = "{0, 0}";
type = Stem;
}
);
layerId = "C4B71B06-7EDE-4B9B-A5ED-C61177A6C124";
name = "23年3月3日 21:16";
paths = (
{
closed = 1;
nodes = (
"208 715 LINE",
"301 709 LINE",
"304 475 OFFCURVE",
"303 316 OFFCURVE",
"303 207 CURVE SMOOTH",
"303 62 OFFCURVE",
"257 12 OFFCURVE",
"197 16 CURVE SMOOTH",
"183 17 LINE",
"147 111 LINE SMOOTH",
"134 144 OFFCURVE",
"122 153 OFFCURVE",
"104 153 CURVE SMOOTH",
"85 153 OFFCURVE",
"69 141 OFFCURVE",
"64 117 CURVE",
"75 28 OFFCURVE",
"132 -16 OFFCURVE",
"212 -16 CURVE SMOOTH",
"263 -16 OFFCURVE",
"296 -2 OFFCURVE",
"326 28 CURVE SMOOTH",
"362 65 OFFCURVE",
"384 124 OFFCURVE",
"384 232 CURVE SMOOTH",
"384 401 LINE SMOOTH",
"384 506 OFFCURVE",
"384 608 OFFCURVE",
"385 709 CURVE",
"459 715 LINE",
"459 747 LINE",
"208 747 LINE"
);
},
{
closed = 1;
nodes = (
"825 -16 OFFCURVE",
"902 83 OFFCURVE",
"902 266 CURVE SMOOTH",
"902 449 OFFCURVE",
"820 545 OFFCURVE",
"700 545 CURVE SMOOTH",
"580 545 OFFCURVE",
"498 448 OFFCURVE",
"498 266 CURVE SMOOTH",
"498 84 OFFCURVE",
"575 -16 OFFCURVE",
"700 -16 CURVE SMOOTH"
);
},
{
closed = 1;
nodes = (
"622 18 OFFCURVE",
"583 96 OFFCURVE",
"583 265 CURVE SMOOTH",
"583 432 OFFCURVE",
"622 512 OFFCURVE",
"700 512 CURVE SMOOTH",
"778 512 OFFCURVE",
"817 432 OFFCURVE",
"817 265 CURVE SMOOTH",
"817 96 OFFCURVE",
"778 18 OFFCURVE",
"700 18 CURVE SMOOTH"
);
}
);
width = 1000;
}
);
},
{
color = 4;
glyphname = J_O_two.rlig;
lastChange = "2023-03-10 17:09:03 +0000";
layers = (
{
background = {
paths = (
{
closed = 1;
nodes = (
"825 -16 OFFCURVE",
"902 83 OFFCURVE",
"902 266 CURVE SMOOTH",
"902 449 OFFCURVE",
"820 545 OFFCURVE",
"700 545 CURVE SMOOTH",
"580 545 OFFCURVE",
"498 448 OFFCURVE",
"498 266 CURVE SMOOTH",
"498 84 OFFCURVE",
"575 -16 OFFCURVE",
"700 -16 CURVE SMOOTH"
);
},
{
closed = 1;
nodes = (
"622 18 OFFCURVE",
"583 96 OFFCURVE",
"583 265 CURVE SMOOTH",
"583 432 OFFCURVE",
"622 512 OFFCURVE",
"700 512 CURVE SMOOTH",
"778 512 OFFCURVE",
"817 432 OFFCURVE",
"817 265 CURVE SMOOTH",
"817 96 OFFCURVE",
"778 18 OFFCURVE",
"700 18 CURVE SMOOTH"
);
},
{
closed = 1;
nodes = (
"559 637 LINE",
"573 687 OFFCURVE",
"594 715 OFFCURVE",
"628 715 CURVE SMOOTH",
"659 715 OFFCURVE",
"678 694 OFFCURVE",
"700 671 CURVE SMOOTH",
"720 650 OFFCURVE",
"743 632 OFFCURVE",
"780 632 CURVE SMOOTH",
"834 632 OFFCURVE",
"870 680 OFFCURVE",
"880 754 CURVE",
"859 761 LINE",
"846 712 OFFCURVE",
"824 685 OFFCURVE",
"789 685 CURVE SMOOTH",
"760 685 OFFCURVE",
"741 703 OFFCURVE",
"718 727 CURVE SMOOTH",
"698 749 OFFCURVE",
"673 768 OFFCURVE",
"638 768 CURVE SMOOTH",
"583 768 OFFCURVE",
"549 718 OFFCURVE",
"537 645 CURVE"
);
}
);
};
components = (
{
name = _smart.J;
transform = "{1, 0, 0, 1, 20, 70}";
},
{
alignment = -1;
name = o.full.hwid;
transform = "{1, 0, 0, 1, 450, 70}";
}
);
layerId = "AODEWCWT-RYM3-6S2H-YGKD-BAMV0KWXFSSX";
paths = (
{
closed = 1;
nodes = (
"559 697 LINE",
"573 747 OFFCURVE",
"594 775 OFFCURVE",
"628 775 CURVE SMOOTH",
"659 775 OFFCURVE",
"678 754 OFFCURVE",
"700 731 CURVE SMOOTH",
"720 710 OFFCURVE",
"743 692 OFFCURVE",
"780 692 CURVE SMOOTH",
"834 692 OFFCURVE",
"870 740 OFFCURVE",
"880 814 CURVE",
"859 821 LINE",
"846 772 OFFCURVE",
"824 745 OFFCURVE",
"789 745 CURVE SMOOTH",
"760 745 OFFCURVE",
"741 763 OFFCURVE",
"718 787 CURVE SMOOTH",
"698 809 OFFCURVE",
"673 828 OFFCURVE",
"638 828 CURVE SMOOTH",
"583 828 OFFCURVE",
"549 778 OFFCURVE",
"537 705 CURVE"
);
}
);
width = 1000;
}
);
},
{
color = 4;
glyphname = J_S.rlig;
lastChange = "2023-03-13 15:26:56 +0000";
layers = (
{
background = {
paths = (
{
closed = 1;
nodes = (
"353 -66 OFFCURVE",
"404 46 OFFCURVE",
"404 182 CURVE SMOOTH",
"404 623 LINE SMOOTH",
"404 708 OFFCURVE",
"413 757 OFFCURVE",
"434 785 CURVE",
"434 817 LINE",
"243 808 OFFCURVE",
"124 767 OFFCURVE",
"124 687 CURVE SMOOTH",
"124 667 OFFCURVE",
"133 652 OFFCURVE",
"148 639 CURVE",
"168 655 LINE",
"165 660 OFFCURVE",
"164 664 OFFCURVE",
"164 669 CURVE SMOOTH",
"164 726 OFFCURVE",
"288 772 OFFCURVE",
"396 780 CURVE",
"383 786 LINE",
"336 747 OFFCURVE",
"323 704 OFFCURVE",
"323 574 CURVE SMOOTH",
"323 157 LINE SMOOTH",
"323 12 OFFCURVE",
"273 -34 OFFCURVE",
"207 -34 CURVE SMOOTH",
"143 -34 OFFCURVE",
"116 17 OFFCURVE",
"116 95 CURVE SMOOTH",
"116 186 OFFCURVE",
"165 257 OFFCURVE",
"267 325 CURVE SMOOTH",
"389 405 OFFCURVE",
"510 471 OFFCURVE",
"638 511 CURVE",
"656 549 LINE",
"512 503 OFFCURVE",
"375 438 OFFCURVE",
"243 355 CURVE SMOOTH",
"114 274 OFFCURVE",
"54 204 OFFCURVE",
"54 97 CURVE SMOOTH",
"54 -11 OFFCURVE",
"122 -66 OFFCURVE",
"212 -66 CURVE SMOOTH"
);
},
{
closed = 1;
nodes = (
"862 54 OFFCURVE",
"924 110 OFFCURVE",
"924 191 CURVE SMOOTH",
"924 256 OFFCURVE",
"892 297 OFFCURVE",
"809 336 CURVE SMOOTH",
"750 364 LINE SMOOTH",
"684 395 OFFCURVE",
"659 422 OFFCURVE",
"659 467 CURVE SMOOTH",
"659 512 OFFCURVE",
"695 544 OFFCURVE",
"762 544 CURVE SMOOTH",
"790 544 OFFCURVE",
"815 539 OFFCURVE",
"842 526 CURVE",
"860 418 LINE",
"901 418 LINE",
"906 534 LINE",
"857 562 OFFCURVE",
"819 575 OFFCURVE",
"765 575 CURVE SMOOTH",
"651 575 OFFCURVE",
"594 520 OFFCURVE",
"594 444 CURVE SMOOTH",
"594 372 OFFCURVE",
"637 331 OFFCURVE",
"704 299 CURVE SMOOTH",
"760 272 LINE SMOOTH",
"837 235 OFFCURVE",
"856 212 OFFCURVE",
"856 169 CURVE SMOOTH",
"856 120 OFFCURVE",
"816 85 OFFCURVE",
"739 85 CURVE SMOOTH",
"699 85 OFFCURVE",
"671 92 OFFCURVE",
"644 105 CURVE",
"626 222 LINE",
"586 222 LINE",
"584 93 LINE",
"634 66 OFFCURVE",
"680 54 OFFCURVE",
"739 54 CURVE SMOOTH"
);
},
{
closed = 1;
nodes = (
"137 417 LINE",
"130 375 LINE",
"108 393 OFFCURVE",
"93 423 OFFCURVE",
"93 456 CURVE SMOOTH",
"93 512 OFFCURVE",
"119 546 OFFCURVE",
"206 566 CURVE SMOOTH",
"349 598 OFFCURVE",
"580 605 OFFCURVE",
"742 635 CURVE SMOOTH",
"859 657 OFFCURVE",
"918 706 OFFCURVE",
"952 786 CURVE",
"934 794 LINE",
"901 745 OFFCURVE",
"857 717 OFFCURVE",
"758 698 CURVE SMOOTH",
"601 668 OFFCURVE",
"371 661 OFFCURVE",
"219 628 CURVE SMOOTH",
"114 606 OFFCURVE",
"58 563 OFFCURVE",
"58 477 CURVE SMOOTH",
"58 433 OFFCURVE",
"73 399 OFFCURVE",
"95 378 CURVE"
);
}
);
};
layerId = "AODEWCWT-RYM3-6S2H-YGKD-BAMV0KWXFSSX";
paths = (
{
closed = 1;
nodes = (
"379 -66 OFFCURVE",
"430 46 OFFCURVE",
"430 182 CURVE SMOOTH",
"430 623 LINE SMOOTH",
"430 708 OFFCURVE",
"439 757 OFFCURVE",
"460 785 CURVE",
"460 817 LINE",
"269 808 OFFCURVE",
"150 767 OFFCURVE",
"150 687 CURVE SMOOTH",
"150 667 OFFCURVE",
"159 652 OFFCURVE",
"174 639 CURVE",
"194 655 LINE",
"191 660 OFFCURVE",
"190 664 OFFCURVE",
"190 669 CURVE SMOOTH",
"190 726 OFFCURVE",
"314 772 OFFCURVE",
"422 780 CURVE",
"409 786 LINE",
"362 747 OFFCURVE",
"349 704 OFFCURVE",
"349 574 CURVE SMOOTH",
"349 157 LINE SMOOTH",
"349 12 OFFCURVE",
"299 -34 OFFCURVE",
"233 -34 CURVE SMOOTH",
"169 -34 OFFCURVE",
"142 17 OFFCURVE",
"142 95 CURVE SMOOTH",
"142 186 OFFCURVE",
"191 267 OFFCURVE",
"293 335 CURVE SMOOTH",
"415 415 OFFCURVE",
"525 474 OFFCURVE",
"624 511 CURVE",
"642 549 LINE",
"518 503 OFFCURVE",
"401 448 OFFCURVE",
"269 365 CURVE SMOOTH",
"140 284 OFFCURVE",
"80 204 OFFCURVE",
"80 97 CURVE SMOOTH",
"80 -11 OFFCURVE",
"148 -66 OFFCURVE",
"238 -66 CURVE SMOOTH"
);
},
{
closed = 1;
nodes = (
"163 417 LINE",
"156 375 LINE",
"134 393 OFFCURVE",
"119 423 OFFCURVE",
"119 456 CURVE SMOOTH",
"119 512 OFFCURVE",
"145 546 OFFCURVE",
"232 566 CURVE SMOOTH",
"375 598 OFFCURVE",
"566 605 OFFCURVE",
"728 635 CURVE SMOOTH",
"845 657 OFFCURVE",
"904 706 OFFCURVE",
"938 786 CURVE",
"920 794 LINE",
"887 745 OFFCURVE",
"843 717 OFFCURVE",
"744 698 CURVE SMOOTH",
"587 668 OFFCURVE",
"397 661 OFFCURVE",
"245 628 CURVE SMOOTH",
"140 606 OFFCURVE",
"84 563 OFFCURVE",
"84 477 CURVE SMOOTH",
"84 433 OFFCURVE",
"99 399 OFFCURVE",
"121 378 CURVE"
);
},
{
closed = 1;
nodes = (
"848 54 OFFCURVE",
"910 110 OFFCURVE",
"910 191 CURVE SMOOTH",
"910 256 OFFCURVE",
"878 297 OFFCURVE",
"795 336 CURVE SMOOTH",
"736 364 LINE SMOOTH",
"670 395 OFFCURVE",
"645 422 OFFCURVE",
"645 467 CURVE SMOOTH",
"645 512 OFFCURVE",
"681 544 OFFCURVE",
"748 544 CURVE SMOOTH",
"755 544 OFFCURVE",
"762 544 OFFCURVE",
"767 542 CURVE",
"791 502 OFFCURVE",
"814 481 OFFCURVE",
"843 481 CURVE SMOOTH",
"867 481 OFFCURVE",
"889 494 OFFCURVE",
"895 518 CURVE",
"874 557 OFFCURVE",
"817 575 OFFCURVE",
"751 575 CURVE SMOOTH",
"637 575 OFFCURVE",
"580 520 OFFCURVE",
"580 444 CURVE SMOOTH",
"580 372 OFFCURVE",
"623 331 OFFCURVE",
"690 299 CURVE SMOOTH",
"746 272 LINE SMOOTH",
"823 235 OFFCURVE",
"842 212 OFFCURVE",
"842 169 CURVE SMOOTH",
"842 120 OFFCURVE",
"802 85 OFFCURVE",
"725 85 CURVE SMOOTH",
"718 85 OFFCURVE",
"712 85 OFFCURVE",
"707 87 CURVE",
"680 134 OFFCURVE",
"654 158 OFFCURVE",
"621 158 CURVE SMOOTH",
"597 158 OFFCURVE",
"575 145 OFFCURVE",
"569 121 CURVE",
"580 75 OFFCURVE",
"655 54 OFFCURVE",
"725 54 CURVE SMOOTH"
);
}
);
width = 1000;
}
);
},
{
color = 4;
glyphname = J_X_O.rlig;
lastChange = "2023-03-13 01:40:46 +0000";
layers = (
{
background = {
paths = (
{
closed = 1;
nodes = (
"219 807 OFFCURVE",
"109 759 OFFCURVE",
"109 667 CURVE SMOOTH",
"109 639 OFFCURVE",
"121 617 OFFCURVE",
"139 599 CURVE",
"159 615 LINE",
"152 626 OFFCURVE",
"149 637 OFFCURVE",
"149 649 CURVE SMOOTH",
"149 716 OFFCURVE",
"260 770 OFFCURVE",
"356 780 CURVE",
"343 786 LINE",
"296 747 OFFCURVE",
"283 704 OFFCURVE",
"283 574 CURVE SMOOTH",
"283 112 LINE SMOOTH",
"283 1 OFFCURVE",
"248 -34 OFFCURVE",
"202 -34 CURVE SMOOTH",
"142 -34 OFFCURVE",
"116 21 OFFCURVE",
"116 105 CURVE SMOOTH",
"116 208 OFFCURVE",
"153 297 OFFCURVE",
"237 378 CURVE",
"223 399 LINE",
"107 315 OFFCURVE",
"54 226 OFFCURVE",
"54 107 CURVE SMOOTH",
"54 -10 OFFCURVE",
"112 -66 OFFCURVE",
"197 -66 CURVE SMOOTH",
"320 -66 OFFCURVE",
"364 30 OFFCURVE",
"364 147 CURVE SMOOTH",
"364 623 LINE SMOOTH",
"364 708 OFFCURVE",
"373 757 OFFCURVE",
"394 785 CURVE",
"394 817 LINE"
);
},
{
closed = 1;
nodes = (
"653 63 OFFCURVE",
"720 481 OFFCURVE",
"845 481 CURVE SMOOTH",
"872 481 OFFCURVE",
"889 458 OFFCURVE",
"889 417 CURVE SMOOTH",
"889 400 OFFCURVE",
"887 385 OFFCURVE",
"882 371 CURVE",
"902 362 LINE",
"926 389 OFFCURVE",
"938 417 OFFCURVE",
"938 454 CURVE SMOOTH",
"938 500 OFFCURVE",
"914 534 OFFCURVE",
"864 534 CURVE SMOOTH",
"697 534 OFFCURVE",
"630 117 OFFCURVE",
"505 117 CURVE SMOOTH",
"478 117 OFFCURVE",
"461 139 OFFCURVE",
"461 181 CURVE SMOOTH",
"461 197 OFFCURVE",
"463 212 OFFCURVE",
"468 226 CURVE",
"448 235 LINE",
"424 208 OFFCURVE",
"412 180 OFFCURVE",
"412 144 CURVE SMOOTH",
"412 97 OFFCURVE",
"436 63 OFFCURVE",
"486 63 CURVE SMOOTH"
);
},
{
closed = 1;
nodes = (
"905 63 OFFCURVE",
"940 108 OFFCURVE",
"948 189 CURVE",
"928 198 LINE",
"918 148 OFFCURVE",
"903 127 OFFCURVE",
"876 127 CURVE SMOOTH",
"751 127 OFFCURVE",
"665 534 OFFCURVE",
"516 534 CURVE SMOOTH",
"465 534 OFFCURVE",
"430 489 OFFCURVE",
"422 408 CURVE",
"442 399 LINE",
"452 449 OFFCURVE",
"468 470 OFFCURVE",
"495 470 CURVE SMOOTH",
"619 470 OFFCURVE",
"705 63 OFFCURVE",
"855 63 CURVE SMOOTH"
);
},
{
closed = 1;
nodes = (
"752 514 OFFCURVE",
"800 568 OFFCURVE",
"800 665 CURVE SMOOTH",
"800 763 OFFCURVE",
"748 815 OFFCURVE",
"674 815 CURVE SMOOTH",
"600 815 OFFCURVE",
"548 764 OFFCURVE",
"548 665 CURVE SMOOTH",
"548 567 OFFCURVE",
"596 514 OFFCURVE",
"674 514 CURVE SMOOTH"
);
},
{
closed = 1;
nodes = (
"638 544 OFFCURVE",
"620 582 OFFCURVE",
"620 665 CURVE SMOOTH",
"620 746 OFFCURVE",
"638 786 OFFCURVE",
"674 786 CURVE SMOOTH",
"710 786 OFFCURVE",
"728 746 OFFCURVE",
"728 665 CURVE SMOOTH",
"728 582 OFFCURVE",
"710 544 OFFCURVE",
"674 544 CURVE SMOOTH"
);
}
);
};
layerId = "AODEWCWT-RYM3-6S2H-YGKD-BAMV0KWXFSSX";
paths = (
{
closed = 1;
nodes = (
"320 -66 OFFCURVE",
"364 30 OFFCURVE",
"364 147 CURVE SMOOTH",
"364 623 LINE SMOOTH",
"364 708 OFFCURVE",
"373 757 OFFCURVE",
"394 785 CURVE",
"394 817 LINE",
"219 807 OFFCURVE",
"109 759 OFFCURVE",
"109 667 CURVE SMOOTH",
"109 639 OFFCURVE",
"121 617 OFFCURVE",
"139 599 CURVE",
"159 615 LINE",
"152 626 OFFCURVE",
"149 637 OFFCURVE",
"149 649 CURVE SMOOTH",
"149 716 OFFCURVE",
"260 770 OFFCURVE",
"356 780 CURVE",
"343 786 LINE",
"296 747 OFFCURVE",
"283 704 OFFCURVE",
"283 574 CURVE SMOOTH",
"283 112 LINE SMOOTH",
"283 1 OFFCURVE",
"248 -34 OFFCURVE",
"202 -34 CURVE SMOOTH",
"142 -34 OFFCURVE",
"116 17 OFFCURVE",
"116 95 CURVE SMOOTH",
"116 230 OFFCURVE",
"194 348 OFFCURVE",
"361 434 CURVE SMOOTH",
"426 467 OFFCURVE",
"466 474 OFFCURVE",
"485 474 CURVE SMOOTH",
"601 474 OFFCURVE",
"702 63 OFFCURVE",
"855 63 CURVE SMOOTH",
"905 63 OFFCURVE",
"940 108 OFFCURVE",
"948 189 CURVE",
"928 198 LINE",
"918 152 OFFCURVE",
"903 133 OFFCURVE",
"876 133 CURVE SMOOTH",
"761 133 OFFCURVE",
"665 524 OFFCURVE",
"516 524 CURVE SMOOTH",
"494 524 OFFCURVE",
"458 516 OFFCURVE",
"353 466 CURVE SMOOTH",
"172 381 OFFCURVE",
"54 256 OFFCURVE",
"54 97 CURVE SMOOTH",
"54 -13 OFFCURVE",
"112 -66 OFFCURVE",
"197 -66 CURVE SMOOTH"
);
},
{
closed = 1;
nodes = (
"653 63 OFFCURVE",
"720 471 OFFCURVE",
"845 471 CURVE SMOOTH",
"872 471 OFFCURVE",
"889 448 OFFCURVE",
"889 407 CURVE SMOOTH",
"889 390 OFFCURVE",
"887 375 OFFCURVE",
"882 361 CURVE",
"902 352 LINE",
"926 379 OFFCURVE",
"938 407 OFFCURVE",
"938 444 CURVE SMOOTH",
"938 490 OFFCURVE",
"914 524 OFFCURVE",
"864 524 CURVE SMOOTH",
"697 524 OFFCURVE",
"630 117 OFFCURVE",
"505 117 CURVE SMOOTH",
"478 117 OFFCURVE",
"461 139 OFFCURVE",
"461 181 CURVE SMOOTH",
"461 197 OFFCURVE",
"463 212 OFFCURVE",
"468 226 CURVE",
"448 235 LINE",
"424 208 OFFCURVE",
"412 180 OFFCURVE",
"412 144 CURVE SMOOTH",
"412 97 OFFCURVE",
"436 63 OFFCURVE",
"486 63 CURVE SMOOTH"
);
},
{
closed = 1;
nodes = (
"774 514 OFFCURVE",
"830 568 OFFCURVE",
"830 665 CURVE SMOOTH",
"830 763 OFFCURVE",
"770 815 OFFCURVE",
"684 815 CURVE SMOOTH",
"598 815 OFFCURVE",
"538 764 OFFCURVE",
"538 665 CURVE SMOOTH",
"538 567 OFFCURVE",
"594 514 OFFCURVE",
"684 514 CURVE SMOOTH"
);
},
{
closed = 1;
nodes = (
"635 544 OFFCURVE",
"610 582 OFFCURVE",
"610 665 CURVE SMOOTH",
"610 746 OFFCURVE",
"635 786 OFFCURVE",
"684 786 CURVE SMOOTH",
"733 786 OFFCURVE",
"758 746 OFFCURVE",
"758 665 CURVE SMOOTH",
"758 582 OFFCURVE",
"733 544 OFFCURVE",
"684 544 CURVE SMOOTH"
);
}
);
width = 1000;
},
{
associatedMasterId = "AODEWCWT-RYM3-6S2H-YGKD-BAMV0KWXFSSX";
components = (
{
alignment = -1;
name = _smart.J;
piece = {
Width = 40;
};
transform = "{1, 0, 0, 1, 20, 70}";
},
{
name = _smart.x;
piece = {
Height = 60;
Width = 20;
};
transform = "{1, 0, 0, 1, 370, 70}";
},
{
alignment = -1;
name = _smart.o;
piece = {
Height = -60;
Width = 0;
};
transform = "{1, 0, 0, 1, 500, 530}";
}
);
layerId = "5DB2E69B-EE9E-48E6-891C-0BC20D1E8ABF";
name = "23年3月4日 2:07";
width = 1000;
}
);
},
